RobotoCondensed-Thin.ufo
<glyph name="plus" format="2">
  <advance width="1014"/>
  <unicode hex="002B"/>
  <outline>
    <contour>
      <point x="960" y="702" type="line"/>
      <point x="54" y="702" type="line"/>
      <point x="54" y="650" type="line"/>
      <point x="960" y="650" type="line"/>
    </contour>
    <contour>
      <point x="533" y="1166" type="line"/>
      <point x="481" y="1166" type="line"/>
      <point x="481" y="186" type="line"/>
      <point x="533" y="186" type="line"/>
    </contour>
  </outline>
</glyph>
<glyph name="one" format="2">
  <advance width="990"/>
  <unicode hex="0031"/>
  <outline>
    <contour>
      <point x="582" y="1459" type="line"/>
      <point x="570" y="1459" type="line"/>
      <point x="177" y="1291" type="line"/>
      <point x="177" y="1234" type="line"/>
      <point x="530" y="1394" type="line"/>
      <point x="530" y="0" type="line"/>
      <point x="582" y="0" type="line"/>
    </contour>
  </outline>
</glyph>
<glyph name="seven" format="2">
  <advance width="990"/>
  <unicode hex="0037"/>
  <outline>
    <contour>
      <point x="876" y="1456" type="line"/>
      <point x="84" y="1456" type="line"/>
      <point x="84" y="1405" type="line"/>
      <point x="816" y="1405" type="line"/>
      <point x="282" y="0" type="line"/>
      <point x="335" y="0" type="line"/>
      <point x="876" y="1424" type="line"/>
    </contour>
  </outline>
</glyph>
<glyph name="less" format="2">
  <advance width="933"/>
  <unicode hex="003C"/>
  <outline>
    <contour>
      <point x="141" y="702" type="line"/>
      <point x="107" y="703" type="line"/>
      <point x="107" y="662" type="line"/>
      <point x="816" y="303" type="line"/>
      <point x="816" y="358" type="line"/>
    </contour>
    <contour>
      <point x="816" y="1015" type="line"/>
      <point x="816" y="1069" type="line"/>
      <point x="107" y="711" type="line"/>
      <point x="107" y="670" type="line"/>
      <point x="142" y="669" type="line"/>
    </contour>
  </outline>
</glyph>
<glyph name="equal" format="2">
  <advance width="1005"/>
  <unicode hex="003D"/>
  <outline>
    <contour>
      <point x="857" y="895" type="line"/>
      <point x="148" y="895" type="line"/>
      <point x="148" y="843" type="line"/>
      <point x="857" y="843" type="line"/>
    </contour>
    <contour>
      <point x="857" y="489" type="line"/>
      <point x="148" y="489" type="line"/>
      <point x="148" y="437" type="line"/>
      <point x="857" y="437" type="line"/>
    </contour>
  </outline>
</glyph>
<glyph name="E" format="2">
  <advance width="1027"/>
  <unicode hex="0045"/>
  <anchor x="544" y="1612" name="top"/>
  <anchor x="544" y="10" name="bottom"/>
  <anchor x="1008" y="1600" name="top_dd"/>
  <anchor x="1008" y="-407" name="bottom_dd"/>
  <anchor x="1008" y="1612" name="top0315"/>
  <anchor x="544" y="1612" name="parent_top"/>
  <outline>
    <contour>
      <point x="940" y="51" type="line"/>
      <point x="210" y="51" type="line"/>
      <point x="210" y="0" type="line"/>
      <point x="940" y="0" type="line"/>
    </contour>
    <contour>
      <point x="240" y="1456" type="line"/>
      <point x="188" y="1456" type="line"/>
      <point x="188" y="0" type="line"/>
      <point x="240" y="0" type="line"/>
    </contour>
    <contour>
      <point x="855" y="775" type="line"/>
      <point x="210" y="775" type="line"/>
      <point x="210" y="724" type="line"/>
      <point x="855" y="724" type="line"/>
    </contour>
    <contour>
      <point x="940" y="1456" type="line"/>
      <point x="210" y="1456" type="line"/>
      <point x="210" y="1406" type="line"/>
      <point x="940" y="1406" type="line"/>
    </contour>
  </outline>
</glyph>
<glyph name="R" format="2">
  <advance width="1170"/>
  <unicode hex="0052"/>
  <anchor x="533" y="1611" name="top"/>
  <anchor x="532" y="10" name="bottom"/>
  <anchor x="1151" y="1600" name="top_dd"/>
  <anchor x="1151" y="-407" name="bottom_dd"/>
  <anchor x="1151" y="1611" name="top0315"/>
  <anchor x="533" y="1611" name="parent_top"/>
  <outline>
    <contour>
      <point x="183" y="1456" type="line"/>
      <point x="183" y="0" type="line"/>
      <point x="235" y="0" type="line"/>
      <point x="235" y="1406" type="line"/>
      <point x="579" y="1406" type="line" smooth="yes"/>
      <point x="795" y="1406"/>
      <point x="934" y="1267"/>
      <point x="934" y="1036" type="curve" smooth="yes"/>
      <point x="934" y="856"/>
      <point x="827" y="675"/>
      <point x="618" y="675" type="curve" smooth="yes"/>
      <point x="198" y="675" type="line"/>
      <point x="200" y="624" type="line"/>
      <point x="669" y="624" type="line"/>
      <point x="696" y="637" type="line"/>
      <point x="858" y="661"/>
      <point x="985" y="825"/>
      <point x="985" y="1036" type="curve" smooth="yes"/>
      <point x="985" y="1308"/>
      <point x="817" y="1456"/>
      <point x="579" y="1456" type="curve" smooth="yes"/>
    </contour>
    <contour>
      <point x="982" y="0" type="line"/>
      <point x="1037" y="0" type="line"/>
      <point x="1037" y="14" type="line"/>
      <point x="704" y="642" type="line"/>
      <point x="644" y="641" type="line"/>
    </contour>
  </outline>
</glyph>
<glyph name="V" format="2">
  <advance width="1080"/>
  <unicode hex="0056"/>
  <anchor x="540" y="1612" name="top"/>
  <anchor x="542" y="10" name="bottom"/>
  <anchor x="1061" y="1600" name="top_dd"/>
  <anchor x="1061" y="-407" name="bottom_dd"/>
  <anchor x="1061" y="1612" name="top0315"/>
  <anchor x="540" y="1612" name="parent_top"/>
  <outline>
    <contour>
      <point x="563" y="139" type="line"/>
      <point x="522" y="0" type="line"/>
      <point x="570" y="0" type="line"/>
      <point x="1032" y="1456" type="line"/>
      <point x="974" y="1456" type="line"/>
    </contour>
    <contour>
      <point x="106" y="1456" type="line"/>
      <point x="48" y="1456" type="line"/>
      <point x="510" y="0" type="line"/>
      <point x="557" y="0" type="line"/>
      <point x="518" y="139" type="line"/>
    </contour>
  </outline>
</glyph>
<glyph name="bracketright" format="2">
  <advance width="416"/>
  <unicode hex="005D"/>
  <outline>
    <contour>
      <point x="13" y="1613" type="line"/>
      <point x="205" y="1613" type="line"/>
      <point x="205" y="-261" type="line"/>
      <point x="13" y="-261" type="line"/>
      <point x="13" y="-312" type="line"/>
      <point x="257" y="-312" type="line"/>
      <point x="257" y="1664" type="line"/>
      <point x="13" y="1664" type="line"/>
    </contour>
  </outline>
</glyph>
<glyph name="c" format="2">
  <advance width="921"/>
  <unicode hex="0063"/>
  <anchor x="482" y="1290" name="top"/>
  <anchor x="482" y="-10" name="bottom"/>
  <anchor x="482" y="1290" name="marktop"/>
  <anchor x="902" y="1600" name="top_dd"/>
  <anchor x="902" y="-407" name="bottom_dd"/>
  <anchor x="902" y="1290" name="top0315"/>
  <anchor x="482" y="1290" name="parent_top"/>
  <outline>
    <contour>
      <point x="478" y="30" type="curve" smooth="yes"/>
      <point x="253" y="30"/>
      <point x="152" y="183"/>
      <point x="152" y="483" type="curve" smooth="yes"/>
      <point x="152" y="599" type="line" smooth="yes"/>
      <point x="152" y="897"/>
      <point x="253" y="1051"/>
      <point x="478" y="1051" type="curve"/>
      <point x="625" y="1051"/>
      <point x="759" y="972"/>
      <point x="768" y="725" type="curve"/>
      <point x="820" y="725" type="line"/>
      <point x="812" y="1004"/>
      <point x="655" y="1102"/>
      <point x="478" y="1102" type="curve" smooth="yes"/>
      <point x="237" y="1102"/>
      <point x="101" y="941"/>
      <point x="101" y="599" type="curve" smooth="yes"/>
      <point x="101" y="483" type="line" smooth="yes"/>
      <point x="101" y="141"/>
      <point x="237" y="-22"/>
      <point x="478" y="-22" type="curve"/>
      <point x="658" y="-22"/>
      <point x="810" y="80"/>
      <point x="820" y="327" type="curve"/>
      <point x="768" y="327" type="line"/>
      <point x="757" y="89"/>
      <point x="620" y="30"/>
    </contour>
  </outline>
</glyph>
<glyph name="g" format="2">
  <advance width="993"/>
  <unicode hex="0067"/>
  <anchor x="500" y="1290" name="top"/>
  <anchor x="489" y="-447" name="bottom"/>
  <anchor x="974" y="1600" name="top_dd"/>
  <anchor x="974" y="-407" name="bottom_dd"/>
  <anchor x="974" y="1290" name="top0315"/>
  <anchor x="500" y="1290" name="parent_top"/>
  <outline>
    <contour>
      <point x="775" y="1082" type="line"/>
      <point x="775" y="844" type="line"/>
      <point x="775" y="-42" type="line" smooth="yes"/>
      <point x="775" y="-289"/>
      <point x="680" y="-386"/>
      <point x="484" y="-386" type="curve" smooth="yes"/>
      <point x="372" y="-386"/>
      <point x="283" y="-333"/>
      <point x="210" y="-239" type="curve"/>
      <point x="176" y="-271" type="line"/>
      <point x="244" y="-368"/>
      <point x="354" y="-436"/>
      <point x="487" y="-436" type="curve" smooth="yes"/>
      <point x="703" y="-436"/>
      <point x="827" y="-320"/>
      <point x="827" y="-43" type="curve" smooth="yes"/>
      <point x="827" y="1082" type="line"/>
    </contour>
    <contour>
      <point x="120" y="494" type="line"/>
      <point x="120" y="138"/>
      <point x="248" y="-22"/>
      <point x="466" y="-22" type="curve" smooth="yes"/>
      <point x="674" y="-22"/>
      <point x="793" y="114"/>
      <point x="821" y="259" type="curve"/>
      <point x="821" y="789" type="line"/>
      <point x="782" y="966"/>
      <point x="669" y="1102"/>
      <point x="468" y="1102" type="curve" smooth="yes"/>
      <point x="249" y="1102"/>
      <point x="120" y="957"/>
      <point x="120" y="590" type="curve" smooth="yes"/>
    </contour>
    <contour>
      <point x="174" y="590" type="line"/>
      <point x="174" y="902"/>
      <point x="268" y="1052"/>
      <point x="469" y="1052" type="curve" smooth="yes"/>
      <point x="696" y="1052"/>
      <point x="764" y="867"/>
      <point x="790" y="748" type="curve"/>
      <point x="790" y="287" type="line"/>
      <point x="758" y="145"/>
      <point x="658" y="29"/>
      <point x="469" y="29" type="curve" smooth="yes"/>
      <point x="268" y="29"/>
      <point x="174" y="179"/>
      <point x="174" y="494" type="curve" smooth="yes"/>
    </contour>
  </outline>
</glyph>
<glyph name="p" format="2">
  <advance width="991"/>
  <unicode hex="0070"/>
  <anchor x="517" y="1280" name="top"/>
  <anchor x="187" y="-407" name="bottom"/>
  <anchor x="517" y="1280" name="marktop"/>
  <anchor x="972" y="1600" name="top_dd"/>
  <anchor x="972" y="-407" name="bottom_dd"/>
  <anchor x="972" y="1280" name="top0315"/>
  <anchor x="517" y="1280" name="parent_top"/>
  <outline>
    <contour>
      <point x="214" y="874" type="line"/>
      <point x="213" y="1082" type="line"/>
      <point x="162" y="1082" type="line"/>
      <point x="162" y="-416" type="line"/>
      <point x="214" y="-416" type="line"/>
    </contour>
    <contour>
      <point x="870" y="590" type="line"/>
      <point x="870" y="957"/>
      <point x="741" y="1102"/>
      <point x="522" y="1102" type="curve" smooth="yes"/>
      <point x="321" y="1102"/>
      <point x="204" y="966"/>
      <point x="164" y="789" type="curve"/>
      <point x="164" y="261" type="line"/>
      <point x="192" y="114"/>
      <point x="317" y="-22"/>
      <point x="524" y="-22" type="curve" smooth="yes"/>
      <point x="741" y="-22"/>
      <point x="870" y="138"/>
      <point x="870" y="494" type="curve" smooth="yes"/>
    </contour>
    <contour>
      <point x="817" y="494" type="line"/>
      <point x="817" y="179"/>
      <point x="721" y="30"/>
      <point x="522" y="30" type="curve" smooth="yes"/>
      <point x="332" y="30"/>
      <point x="229" y="147"/>
      <point x="198" y="290" type="curve"/>
      <point x="198" y="748" type="line"/>
      <point x="221" y="867"/>
      <point x="294" y="1052"/>
      <point x="520" y="1052" type="curve" smooth="yes"/>
      <point x="721" y="1052"/>
      <point x="817" y="902"/>
      <point x="817" y="590" type="curve" smooth="yes"/>
    </contour>
  </outline>
</glyph>
<glyph name="s" format="2">
  <advance width="905"/>
  <unicode hex="0073"/>
  <anchor x="455" y="1290" name="top"/>
  <anchor x="455" y="-3" name="bottom"/>
  <anchor x="886" y="1600" name="top_dd"/>
  <anchor x="886" y="-407" name="bottom_dd"/>
  <anchor x="886" y="1290" name="top0315"/>
  <anchor x="455" y="1290" name="parent_top"/>
  <outline>
    <contour>
      <point x="725" y="265" type="curve" smooth="yes"/>
      <point x="725.0" y="129.0"/>
      <point x="624.0" y="31.0"/>
      <point x="453" y="31" type="curve" smooth="yes"/>
      <point x="321" y="31"/>
      <point x="169" y="77"/>
      <point x="159" y="263" type="curve"/>
      <point x="107" y="263" type="line"/>
      <point x="107" y="106"/>
      <point x="228" y="-20"/>
      <point x="453" y="-20" type="curve" smooth="yes"/>
      <point x="651" y="-20"/>
      <point x="777" y="96"/>
      <point x="777" y="264" type="curve" smooth="yes"/>
      <point x="777.0" y="410.0"/>
      <point x="692" y="503"/>
      <point x="466" y="585" type="curve" smooth="yes"/>
      <point x="245" y="665"/>
      <point x="176" y="742"/>
      <point x="176" y="845" type="curve" smooth="yes"/>
      <point x="176" y="946"/>
      <point x="251" y="1051"/>
      <point x="433" y="1051" type="curve" smooth="yes"/>
      <point x="612" y="1051"/>
      <point x="710" y="973"/>
      <point x="710" y="818" type="curve"/>
      <point x="763" y="818" type="line"/>
      <point x="763" y="1001"/>
      <point x="638" y="1102"/>
      <point x="433" y="1102" type="curve" smooth="yes"/>
      <point x="241" y="1102"/>
      <point x="125" y="993"/>
      <point x="125" y="842" type="curve" smooth="yes"/>
      <point x="125.0" y="708.0"/>
      <point x="232" y="622"/>
      <point x="448" y="542" type="curve" smooth="yes"/>
      <point x="671" y="460"/>
      <point x="725" y="375"/>
    </contour>
  </outline>
</glyph>
<glyph name="z" format="2">
  <advance width="869"/>
  <unicode hex="007A"/>
  <anchor x="452" y="1295" name="top"/>
  <anchor x="476" y="10" name="bottom"/>
  <anchor x="850" y="1600" name="top_dd"/>
  <anchor x="850" y="-407" name="bottom_dd"/>
  <anchor x="850" y="1295" name="top0315"/>
  <anchor x="452" y="1295" name="parent_top"/>
  <outline>
    <contour>
      <point x="810" y="51" type="line"/>
      <point x="107" y="51" type="line"/>
      <point x="107" y="0" type="line"/>
      <point x="810" y="0" type="line"/>
    </contour>
    <contour>
      <point x="761" y="1037" type="line"/>
      <point x="761" y="1082" type="line"/>
      <point x="729" y="1082" type="line"/>
      <point x="93" y="42" type="line"/>
      <point x="93" y="0" type="line"/>
      <point x="125" y="0" type="line"/>
    </contour>
    <contour>
      <point x="736" y="1082" type="line"/>
      <point x="119" y="1082" type="line"/>
      <point x="119" y="1030" type="line"/>
      <point x="736" y="1030" type="line"/>
    </contour>
  </outline>
</glyph>
<glyph name="degree" format="2">
  <advance width="782"/>
  <unicode hex="00B0"/>
  <outline>
    <contour>
      <point x="154" y="1236" type="curve"/>
      <point x="154" y="1103"/>
      <point x="260" y="1000"/>
      <point x="392" y="1000" type="curve" smooth="yes"/>
      <point x="518" y="1000"/>
      <point x="624" y="1103"/>
      <point x="624" y="1236" type="curve" smooth="yes"/>
      <point x="624" y="1368"/>
      <point x="518" y="1475"/>
      <point x="392" y="1475" type="curve" smooth="yes"/>
      <point x="260" y="1475"/>
      <point x="154" y="1368"/>
    </contour>
    <contour>
      <point x="213" y="1236" type="curve"/>
      <point x="213" y="1345"/>
      <point x="291" y="1423"/>
      <point x="392" y="1423" type="curve" smooth="yes"/>
      <point x="492" y="1423"/>
      <point x="567" y="1345"/>
      <point x="567" y="1236" type="curve" smooth="yes"/>
      <point x="567" y="1131"/>
      <point x="492" y="1054"/>
      <point x="392" y="1054" type="curve" smooth="yes"/>
      <point x="291" y="1054"/>
      <point x="213" y="1131"/>
    </contour>
  </outline>
</glyph>
<glyph name="plusminus" format="2">
  <advance width="953"/>
  <unicode hex="00B1"/>
  <outline>
    <contour>
      <point x="868" y="782" type="line"/>
      <point x="85" y="782" type="line"/>
      <point x="85" y="731" type="line"/>
      <point x="868" y="731" type="line"/>
    </contour>
    <contour>
      <point x="505" y="1227" type="line"/>
      <point x="453" y="1227" type="line"/>
      <point x="453" y="289" type="line"/>
      <point x="505" y="289" type="line"/>
    </contour>
    <contour>
      <point x="839" y="111" type="line"/>
      <point x="104" y="111" type="line"/>
      <point x="104" y="59" type="line"/>
      <point x="839" y="59" type="line"/>
    </contour>
  </outline>
</glyph>
<glyph name="multiply" format="2">
  <advance width="933"/>
  <unicode hex="00D7"/>
  <outline>
    <contour>
      <point x="120" y="281" type="line"/>
      <point x="83" y="316" type="line"/>
      <point x="823" y="1071" type="line"/>
      <point x="860" y="1035" type="line"/>
    </contour>
    <contour>
      <point x="821" y="280" type="line"/>
      <point x="73" y="1035" type="line"/>
      <point x="110" y="1071" type="line"/>
      <point x="859" y="315" type="line"/>
    </contour>
  </outline>
</glyph>
<glyph name="divide" format="2">
  <advance width="1022"/>
  <unicode hex="00F7"/>
  <outline>
    <contour>
      <point x="935" y="701" type="line"/>
      <point x="87" y="701" type="line"/>
      <point x="87" y="650" type="line"/>
      <point x="935" y="650" type="line"/>
    </contour>
    <contour>
      <point x="461" y="1045" type="curve" smooth="yes"/>
      <point x="461" y="1013"/>
      <point x="481" y="991"/>
      <point x="511" y="991" type="curve" smooth="yes"/>
      <point x="539" y="991"/>
      <point x="559" y="1013"/>
      <point x="559" y="1045" type="curve" smooth="yes"/>
      <point x="559" y="1073"/>
      <point x="539" y="1100"/>
      <point x="511" y="1100" type="curve" smooth="yes"/>
      <point x="481" y="1100"/>
      <point x="461" y="1073"/>
    </contour>
    <contour>
      <point x="461" y="301" type="curve" smooth="yes"/>
      <point x="461" y="273"/>
      <point x="481" y="248"/>
      <point x="511" y="248" type="curve" smooth="yes"/>
      <point x="539" y="248"/>
      <point x="559" y="273"/>
      <point x="559" y="301" type="curve" smooth="yes"/>
      <point x="559" y="333"/>
      <point x="539" y="356"/>
      <point x="511" y="356" type="curve" smooth="yes"/>
      <point x="481" y="356"/>
      <point x="461" y="333"/>
    </contour>
  </outline>
</glyph>
<glyph name="dcroat" format="2">
  <advance width="994"/>
  <unicode hex="0111"/>
  <anchor x="526" y="0" name="bottom"/>
  <anchor x="475" y="1613" name="top"/>
  <anchor x="972" y="1600" name="top_dd"/>
  <anchor x="972" y="-407" name="bottom_dd"/>
  <anchor x="526" y="0" name="markbottom"/>
  <anchor x="976" y="1613" name="top0315"/>
  <anchor x="713" y="1305" name="parenthesses.w2"/>
  <anchor x="713" y="1305" name="markparenthesses.w2"/>
  <anchor x="475" y="1613" name="parent_top"/>
  <outline>
    <contour>
      <point x="777" y="210" type="line"/>
      <point x="777" y="0" type="line"/>
      <point x="829" y="0" type="line"/>
      <point x="829" y="1536" type="line"/>
      <point x="777" y="1536" type="line"/>
    </contour>
    <contour>
      <point x="121" y="531" type="line"/>
      <point x="121" y="201"/>
      <point x="250" y="-20"/>
      <point x="467" y="-20" type="curve" smooth="yes"/>
      <point x="675" y="-20"/>
      <point x="794" y="133"/>
      <point x="823" y="298" type="curve"/>
      <point x="823" y="750" type="line"/>
      <point x="784" y="949"/>
      <point x="671" y="1102"/>
      <point x="469" y="1102" type="curve" smooth="yes"/>
      <point x="250" y="1102"/>
      <point x="121" y="892"/>
      <point x="121" y="552" type="curve" smooth="yes"/>
    </contour>
    <contour>
      <point x="176" y="552" type="line"/>
      <point x="176" y="841"/>
      <point x="269" y="1052"/>
      <point x="470" y="1052" type="curve" smooth="yes"/>
      <point x="697" y="1052"/>
      <point x="769" y="844"/>
      <point x="793" y="712" type="curve"/>
      <point x="793" y="327" type="line"/>
      <point x="763" y="162"/>
      <point x="659" y="31"/>
      <point x="468" y="31" type="curve" smooth="yes"/>
      <point x="269" y="31"/>
      <point x="176" y="240"/>
      <point x="176" y="531" type="curve" smooth="yes"/>
    </contour>
    <contour>
      <point x="965" y="1332" type="line"/>
      <point x="466" y="1332" type="line"/>
      <point x="466" y="1284" type="line"/>
      <point x="965" y="1284" type="line"/>
    </contour>
  </outline>
</glyph>
<glyph name="OE" format="2">
  <advance width="1630"/>
  <unicode hex="0152"/>
  <anchor x="831" y="1632" name="top"/>
  <anchor x="831" y="-2" name="bottom"/>
  <anchor x="1611" y="1600" name="top_dd"/>
  <anchor x="1611" y="-407" name="bottom_dd"/>
  <anchor x="1611" y="1632" name="top0315"/>
  <anchor x="831" y="1632" name="parent_top"/>
  <outline>
    <contour>
      <point x="555" y="1475" type="curve" smooth="yes"/>
      <point x="292" y="1475"/>
      <point x="113" y="1233"/>
      <point x="113" y="880" type="curve"/>
      <point x="113" y="576" type="line"/>
      <point x="113" y="223"/>
      <point x="295" y="-21"/>
      <point x="555" y="-21" type="curve" smooth="yes"/>
      <point x="653" y="-21"/>
      <point x="748" y="-10"/>
      <point x="834" y="0" type="curve"/>
      <point x="834" y="50" type="line"/>
      <point x="756" y="34"/>
      <point x="650" y="30"/>
      <point x="555" y="30" type="curve" smooth="yes"/>
      <point x="318" y="30"/>
      <point x="166" y="259"/>
      <point x="166" y="576" type="curve"/>
      <point x="166" y="882" type="line"/>
      <point x="166" y="1206"/>
      <point x="318" y="1426"/>
      <point x="555" y="1426" type="curve" smooth="yes"/>
      <point x="655" y="1426"/>
      <point x="750" y="1422"/>
      <point x="834" y="1406" type="curve"/>
      <point x="834" y="1456" type="line"/>
      <point x="748" y="1467"/>
      <point x="653" y="1475"/>
    </contour>
    <contour>
      <point x="1547" y="51" type="line"/>
      <point x="817" y="51" type="line"/>
      <point x="817" y="0" type="line"/>
      <point x="1547" y="0" type="line"/>
    </contour>
    <contour>
      <point x="846" y="1456" type="line"/>
      <point x="793" y="1456" type="line"/>
      <point x="793" y="0" type="line"/>
      <point x="846" y="0" type="line"/>
    </contour>
    <contour>
      <point x="1460" y="775" type="line"/>
      <point x="817" y="775" type="line"/>
      <point x="817" y="724" type="line"/>
      <point x="1460" y="724" type="line"/>
    </contour>
    <contour>
      <point x="1547" y="1456" type="line"/>
      <point x="817" y="1456" type="line"/>
      <point x="817" y="1406" type="line"/>
      <point x="1547" y="1406" type="line"/>
    </contour>
  </outline>
</glyph>
<glyph name="oe" format="2">
  <advance width="1667"/>
  <unicode hex="0153"/>
  <anchor x="845" y="1290" name="top"/>
  <anchor x="845" y="-10" name="bottom"/>
  <anchor x="1648" y="1600" name="top_dd"/>
  <anchor x="1648" y="-407" name="bottom_dd"/>
  <anchor x="1648" y="1290" name="top0315"/>
  <anchor x="845" y="1290" name="parent_top"/>
  <outline>
    <contour>
      <point x="1242" y="-19" type="curve"/>
      <point x="1387" y="-19"/>
      <point x="1488" y="30"/>
      <point x="1557" y="123" type="curve"/>
      <point x="1530" y="163" type="line"/>
      <point x="1468" y="78"/>
      <point x="1381" y="30"/>
      <point x="1242" y="30" type="curve" smooth="yes"/>
      <point x="1050" y="30"/>
      <point x="906" y="240"/>
      <point x="906" y="499" type="curve" smooth="yes"/>
      <point x="906" y="564" type="line" smooth="yes"/>
      <point x="906" y="833"/>
      <point x="1037" y="1051"/>
      <point x="1236" y="1051" type="curve"/>
      <point x="1419" y="1051"/>
      <point x="1539" y="883"/>
      <point x="1539" y="665" type="curve"/>
      <point x="1539" y="630" type="line"/>
      <point x="888" y="630" type="line"/>
      <point x="888" y="580" type="line"/>
      <point x="1590" y="580" type="line"/>
      <point x="1590" y="660" type="line" smooth="yes"/>
      <point x="1590" y="936"/>
      <point x="1444" y="1102"/>
      <point x="1236" y="1102" type="curve" smooth="yes"/>
      <point x="1026" y="1102"/>
      <point x="853" y="880"/>
      <point x="853" y="564" type="curve" smooth="yes"/>
      <point x="853" y="499" type="line" smooth="yes"/>
      <point x="853" y="198"/>
      <point x="1034" y="-19"/>
    </contour>
    <contour>
      <point x="97" y="520" type="line"/>
      <point x="97" y="204"/>
      <point x="261" y="-19"/>
      <point x="500" y="-19" type="curve" smooth="yes"/>
      <point x="741" y="-19"/>
      <point x="901" y="204"/>
      <point x="901" y="520" type="curve"/>
      <point x="901" y="562" type="line"/>
      <point x="901" y="880"/>
      <point x="741" y="1102"/>
      <point x="499" y="1102" type="curve" smooth="yes"/>
      <point x="261" y="1102"/>
      <point x="97" y="880"/>
      <point x="97" y="562" type="curve"/>
    </contour>
    <contour>
      <point x="150" y="562" type="line"/>
      <point x="150" y="817"/>
      <point x="277" y="1051"/>
      <point x="499" y="1051" type="curve" smooth="yes"/>
      <point x="722" y="1051"/>
      <point x="850" y="817"/>
      <point x="850" y="562" type="curve"/>
      <point x="850" y="520" type="line"/>
      <point x="850" y="259"/>
      <point x="722" y="30"/>
      <point x="500" y="30" type="curve" smooth="yes"/>
      <point x="277" y="30"/>
      <point x="150" y="259"/>
      <point x="150" y="520" type="curve"/>
    </contour>
  </outline>
</glyph>
<glyph name="uhorn" format="2">
  <advance width="1007"/>
  <unicode hex="01B0"/>
  <anchor x="511" y="1269" name="top"/>
  <anchor x="988" y="1269" name="top0315"/>
  <anchor x="495" y="0" name="bottom"/>
  <anchor x="511" y="1269" name="parent_top"/>
  <outline>
    <contour>
      <point x="982" y="1190" type="line"/>
      <point x="982" y="1036"/>
      <point x="953" y="945"/>
      <point x="795" y="945" type="curve"/>
      <point x="795" y="893" type="line"/>
      <point x="975" y="893"/>
      <point x="1032" y="998"/>
      <point x="1032" y="1190" type="curve"/>
    </contour>
    <contour>
      <point x="776" y="250" type="line"/>
      <point x="775" y="0" type="line"/>
      <point x="828" y="0" type="line"/>
      <point x="828" y="1082" type="line"/>
      <point x="776" y="1082" type="line"/>
    </contour>
    <contour>
      <point x="784" y="421" type="line"/>
      <point x="784" y="223"/>
      <point x="707" y="31"/>
      <point x="461" y="31" type="curve" smooth="yes"/>
      <point x="319" y="31"/>
      <point x="212" y="126"/>
      <point x="212" y="392" type="curve"/>
      <point x="212" y="1082" type="line"/>
      <point x="159" y="1082" type="line"/>
      <point x="159" y="394" type="line"/>
      <point x="159" y="91"/>
      <point x="282" y="-20"/>
      <point x="461" y="-20" type="curve" smooth="yes"/>
      <point x="715" y="-20"/>
      <point x="825" y="168"/>
      <point x="825" y="423" type="curve"/>
    </contour>
  </outline>
</glyph>
<glyph name="uni01C5" format="2">
  <advance width="1841"/>
  <unicode hex="01C5"/>
  <outline>
    <contour>
      <point x="1779" y="51" type="line"/>
      <point x="1080" y="51" type="line"/>
      <point x="1080" y="0" type="line"/>
      <point x="1779" y="0" type="line"/>
    </contour>
    <contour>
      <point x="1733" y="1037" type="line"/>
      <point x="1733" y="1082" type="line"/>
      <point x="1700" y="1082" type="line"/>
      <point x="1065" y="42" type="line"/>
      <point x="1065" y="0" type="line"/>
      <point x="1098" y="0" type="line"/>
    </contour>
    <contour>
      <point x="1708" y="1082" type="line"/>
      <point x="1089" y="1082" type="line"/>
      <point x="1089" y="1030" type="line"/>
      <point x="1708" y="1030" type="line"/>
    </contour>
    <contour>
      <point x="1263" y="1472" type="line"/>
      <point x="1197" y="1472" type="line"/>
      <point x="1197" y="1460" type="line"/>
      <point x="1382" y="1252" type="line"/>
      <point x="1450" y="1252" type="line"/>
      <point x="1633" y="1457" type="line"/>
      <point x="1633" y="1472" type="line"/>
      <point x="1571" y="1472" type="line"/>
      <point x="1417" y="1285" type="line"/>
    </contour>
    <contour>
      <point x="529" y="0" type="line"/>
      <point x="823" y="0"/>
      <point x="1042" y="258"/>
      <point x="1042" y="638" type="curve"/>
      <point x="1042" y="819" type="line"/>
      <point x="1042" y="1197"/>
      <point x="824" y="1456"/>
      <point x="529" y="1456" type="curve"/>
      <point x="226" y="1456" type="line"/>
      <point x="226" y="1406" type="line"/>
      <point x="529" y="1406" type="line"/>
      <point x="795" y="1406"/>
      <point x="989" y="1160"/>
      <point x="989" y="821" type="curve"/>
      <point x="989" y="638" type="line" smooth="yes"/>
      <point x="989" y="295"/>
      <point x="794" y="51"/>
      <point x="529" y="51" type="curve"/>
      <point x="231" y="51" type="line"/>
      <point x="231" y="0" type="line"/>
    </contour>
    <contour>
      <point x="240" y="1456" type="line"/>
      <point x="188" y="1456" type="line"/>
      <point x="188" y="0" type="line"/>
      <point x="240" y="0" type="line"/>
    </contour>
  </outline>
</glyph>
<glyph name="uni01F7" format="2">
  <advance width="1205"/>
  <unicode hex="01F7"/>
  <outline>
    <contour>
      <point x="240" y="1456" type="line"/>
      <point x="188" y="1456" type="line"/>
      <point x="188" y="-437" type="line"/>
      <point x="240" y="-437" type="line"/>
    </contour>
    <contour>
      <point x="213" y="-57" type="line"/>
      <point x="729" y="76"/>
      <point x="1071" y="334"/>
      <point x="1071" y="828" type="curve" smooth="yes"/>
      <point x="1071" y="898" type="line" smooth="yes"/>
      <point x="1071" y="1276"/>
      <point x="895" y="1476"/>
      <point x="622" y="1476" type="curve" smooth="yes"/>
      <point x="380" y="1476"/>
      <point x="222" y="1324"/>
      <point x="193" y="1006" type="curve"/>
      <point x="230" y="1012" type="line"/>
      <point x="257" y="1281"/>
      <point x="389" y="1426"/>
      <point x="622" y="1426" type="curve" smooth="yes"/>
      <point x="860" y="1426"/>
      <point x="1019" y="1252"/>
      <point x="1019" y="900" type="curve" smooth="yes"/>
      <point x="1019" y="828" type="line" smooth="yes"/>
      <point x="1019" y="343"/>
      <point x="672" y="99"/>
      <point x="213" y="-5" type="curve"/>
    </contour>
  </outline>
</glyph>
<glyph name="uni021C" format="2">
  <advance width="1080"/>
  <unicode hex="021C"/>
  <outline>
    <contour>
      <point x="217" y="403" type="line"/>
      <point x="740" y="646"/>
      <point x="949" y="722"/>
      <point x="949" y="1066" type="curve" smooth="yes"/>
      <point x="949" y="1341"/>
      <point x="784" y="1476"/>
      <point x="529" y="1476" type="curve" smooth="yes"/>
      <point x="310" y="1476"/>
      <point x="120" y="1323"/>
      <point x="120" y="1075" type="curve"/>
      <point x="172" y="1075" type="line"/>
      <point x="172" y="1294"/>
      <point x="335" y="1425"/>
      <point x="529" y="1425" type="curve" smooth="yes"/>
      <point x="785" y="1425"/>
      <point x="896" y="1284"/>
      <point x="896" y="1065" type="curve" smooth="yes"/>
      <point x="896" y="724"/>
      <point x="641" y="661"/>
      <point x="216" y="455" type="curve"/>
    </contour>
    <contour>
      <point x="694" y="665" type="line"/>
      <point x="801" y="668"/>
      <point x="915" y="585"/>
      <point x="915" y="341" type="curve" smooth="yes"/>
      <point x="915" y="-54"/>
      <point x="646" y="-222"/>
      <point x="217" y="-381" type="curve"/>
      <point x="217" y="-437" type="line"/>
      <point x="675" y="-266"/>
      <point x="968" y="-93"/>
      <point x="968" y="344" type="curve" smooth="yes"/>
      <point x="968" y="598"/>
      <point x="866" y="691"/>
      <point x="726" y="706" type="curve"/>
    </contour>
  </outline>
</glyph>
<glyph name="uni0223" format="2">
  <advance width="1231"/>
  <unicode hex="0223"/>
  <outline>
    <contour>
      <point x="598" y="830" type="line"/>
      <point x="329" y="830"/>
      <point x="140" y="685"/>
      <point x="140" y="407" type="curve" smooth="yes"/>
      <point x="140" y="135"/>
      <point x="329" y="-19"/>
      <point x="598" y="-19" type="curve" smooth="yes"/>
      <point x="633" y="-19" type="line" smooth="yes"/>
      <point x="902" y="-19"/>
      <point x="1092" y="135"/>
      <point x="1092" y="409" type="curve" smooth="yes"/>
      <point x="1092" y="685"/>
      <point x="902" y="830"/>
      <point x="633" y="830" type="curve" smooth="yes"/>
    </contour>
    <contour>
      <point x="633" y="788" type="line"/>
      <point x="849" y="788"/>
      <point x="1039" y="669"/>
      <point x="1039" y="409" type="curve" smooth="yes"/>
      <point x="1039" y="147"/>
      <point x="849" y="30"/>
      <point x="633" y="30" type="curve" smooth="yes"/>
      <point x="598" y="30" type="line" smooth="yes"/>
      <point x="386" y="30"/>
      <point x="191" y="147"/>
      <point x="191" y="407" type="curve" smooth="yes"/>
      <point x="191" y="669"/>
      <point x="386" y="788"/>
      <point x="598" y="788" type="curve" smooth="yes"/>
    </contour>
    <contour>
      <point x="633" y="840" type="curve"/>
      <point x="598" y="840" type="line" smooth="yes"/>
      <point x="373" y="840"/>
      <point x="191" y="930"/>
      <point x="191" y="1191" type="curve" smooth="yes"/>
      <point x="191" y="1365"/>
      <point x="280" y="1498"/>
      <point x="460" y="1505" type="curve"/>
      <point x="460" y="1557" type="line"/>
      <point x="250" y="1547"/>
      <point x="140" y="1392"/>
      <point x="140" y="1191" type="curve" smooth="yes"/>
      <point x="140" y="920"/>
      <point x="330" y="798"/>
      <point x="598" y="798" type="curve" smooth="yes"/>
      <point x="633" y="798" type="line" smooth="yes"/>
      <point x="900" y="798"/>
      <point x="1092" y="920"/>
      <point x="1092" y="1192" type="curve" smooth="yes"/>
      <point x="1092" y="1395"/>
      <point x="980" y="1545"/>
      <point x="794" y="1557" type="curve"/>
      <point x="794" y="1505" type="line"/>
      <point x="967" y="1494"/>
      <point x="1039" y="1357"/>
      <point x="1039" y="1192" type="curve" smooth="yes"/>
      <point x="1039" y="930"/>
      <point x="859" y="840"/>
    </contour>
  </outline>
</glyph>
<glyph name="uni0242" format="2">
  <advance width="809"/>
  <unicode hex="0242"/>
  <outline>
    <contour>
      <point x="47" y="700" type="curve"/>
      <point x="99" y="700" type="line"/>
      <point x="99" y="918"/>
      <point x="211" y="1051"/>
      <point x="369" y="1051" type="curve" smooth="yes"/>
      <point x="592" y="1051"/>
      <point x="654" y="885"/>
      <point x="654" y="719" type="curve" smooth="yes"/>
      <point x="654" y="544"/>
      <point x="588" y="416"/>
      <point x="368" y="416" type="curve" smooth="yes"/>
      <point x="359" y="416" type="line"/>
      <point x="359" y="365" type="line"/>
      <point x="371" y="365" type="line" smooth="yes"/>
      <point x="603" y="365"/>
      <point x="705" y="515"/>
      <point x="705" y="715" type="curve" smooth="yes"/>
      <point x="705" y="942"/>
      <point x="591" y="1100"/>
      <point x="369" y="1100" type="curve" smooth="yes"/>
      <point x="185" y="1100"/>
      <point x="47" y="948"/>
    </contour>
    <contour>
      <point x="351" y="416" type="line"/>
      <point x="351" y="0" type="line"/>
      <point x="404" y="0" type="line"/>
      <point x="404" y="416" type="line"/>
    </contour>
  </outline>
</glyph>
<glyph name="uni024A" format="2">
  <advance width="1307"/>
  <unicode hex="024A"/>
  <outline>
    <contour>
      <point x="1041" y="864" type="line"/>
      <point x="988" y="864" type="line"/>
      <point x="988" y="178" type="line"/>
      <point x="949" y="119"/>
      <point x="818" y="30"/>
      <point x="618" y="30" type="curve" smooth="yes"/>
      <point x="358" y="30"/>
      <point x="194" y="274"/>
      <point x="194" y="617" type="curve" smooth="yes"/>
      <point x="194" y="801" type="line"/>
      <point x="140" y="799" type="line"/>
      <point x="140" y="617" type="line" smooth="yes"/>
      <point x="140" y="239"/>
      <point x="332" y="-22"/>
      <point x="618" y="-22" type="curve" smooth="yes"/>
      <point x="861" y="-22"/>
      <point x="1002" y="88"/>
      <point x="1041" y="155" type="curve"/>
    </contour>
    <contour>
      <point x="1041" y="1301" type="line"/>
      <point x="1002" y="1366"/>
      <point x="861" y="1476"/>
      <point x="618" y="1476" type="curve" smooth="yes"/>
      <point x="334" y="1476"/>
      <point x="140" y="1215"/>
      <point x="140" y="837" type="curve" smooth="yes"/>
      <point x="140" y="655" type="line"/>
      <point x="194" y="653" type="line"/>
      <point x="194" y="837" type="line" smooth="yes"/>
      <point x="194" y="1181"/>
      <point x="357" y="1425"/>
      <point x="618" y="1425" type="curve" smooth="yes"/>
      <point x="818" y="1425"/>
      <point x="949" y="1337"/>
      <point x="988" y="1276" type="curve"/>
      <point x="988" y="591" type="line"/>
      <point x="1041" y="591" type="line"/>
    </contour>
    <contour>
      <point x="1041" y="1456" type="line"/>
      <point x="1000" y="1456" type="line"/>
      <point x="988" y="1342" type="line"/>
      <point x="988" y="1" type="line"/>
      <point x="1041" y="1" type="line"/>
    </contour>
    <contour>
      <point x="988" y="44" type="line"/>
      <point x="988" y="-89" type="line"/>
      <point x="988" y="-314"/>
      <point x="1046" y="-437"/>
      <point x="1197" y="-437" type="curve" smooth="yes"/>
      <point x="1233" y="-437"/>
      <point x="1260" y="-430"/>
      <point x="1293" y="-415" type="curve"/>
      <point x="1283" y="-369" type="line"/>
      <point x="1265" y="-376"/>
      <point x="1231" y="-387"/>
      <point x="1200" y="-387" type="curve" smooth="yes"/>
      <point x="1078" y="-387"/>
      <point x="1041" y="-277"/>
      <point x="1041" y="-89" type="curve"/>
      <point x="1041" y="44" type="line"/>
    </contour>
  </outline>
</glyph>
<glyph name="uni024C" format="2">
  <advance width="1167"/>
  <unicode hex="024C"/>
  <anchor x="533" y="1611" name="top"/>
  <anchor x="532" y="10" name="bottom"/>
  <anchor x="1148" y="1611" name="top0315"/>
  <anchor x="533" y="1611" name="parent_top"/>
  <outline>
    <contour>
      <point x="207" y="1456" type="line"/>
      <point x="207" y="0" type="line"/>
      <point x="259" y="0" type="line"/>
      <point x="259" y="1406" type="line"/>
      <point x="601" y="1406" type="line" smooth="yes"/>
      <point x="818" y="1406"/>
      <point x="955" y="1267"/>
      <point x="955" y="1036" type="curve" smooth="yes"/>
      <point x="955" y="856"/>
      <point x="850" y="675"/>
      <point x="639" y="675" type="curve" smooth="yes"/>
      <point x="37" y="675" type="line"/>
      <point x="37" y="624" type="line"/>
      <point x="691" y="624" type="line"/>
      <point x="719" y="637" type="line"/>
      <point x="880" y="661"/>
      <point x="1008" y="825"/>
      <point x="1008" y="1036" type="curve" smooth="yes"/>
      <point x="1008" y="1308"/>
      <point x="839" y="1456"/>
      <point x="601" y="1456" type="curve" smooth="yes"/>
    </contour>
    <contour>
      <point x="1003" y="0" type="line"/>
      <point x="1060" y="0" type="line"/>
      <point x="1060" y="14" type="line"/>
      <point x="729" y="642" type="line"/>
      <point x="668" y="641" type="line"/>
    </contour>
  </outline>
</glyph>
<glyph name="uni02C0" format="2">
  <advance width="670"/>
  <unicode hex="02C0"/>
  <outline>
    <contour>
      <point x="52" y="1527" type="curve"/>
      <point x="103" y="1527" type="line"/>
      <point x="110" y="1690"/>
      <point x="207" y="1754"/>
      <point x="305" y="1754" type="curve" smooth="yes"/>
      <point x="457" y="1754"/>
      <point x="532" y="1608"/>
      <point x="532" y="1408" type="curve" smooth="yes"/>
      <point x="532" y="1313" type="line" smooth="yes"/>
      <point x="532" y="1111"/>
      <point x="471" y="949"/>
      <point x="305" y="949" type="curve" smooth="yes"/>
      <point x="288" y="949" type="line"/>
      <point x="288" y="899" type="line"/>
      <point x="305" y="899" type="line" smooth="yes"/>
      <point x="500" y="899"/>
      <point x="586" y="1078"/>
      <point x="586" y="1313" type="curve" smooth="yes"/>
      <point x="586" y="1408" type="line" smooth="yes"/>
      <point x="586" y="1642"/>
      <point x="484" y="1807"/>
      <point x="305" y="1807" type="curve" smooth="yes"/>
      <point x="173" y="1807"/>
      <point x="57" y="1711"/>
    </contour>
    <contour>
      <point x="280" y="949" type="line"/>
      <point x="280" y="651" type="line"/>
      <point x="333" y="651" type="line"/>
      <point x="333" y="949" type="line"/>
    </contour>
  </outline>
</glyph>
<glyph name="uni02D1" format="2">
  <advance width="353"/>
  <unicode hex="02D1"/>
  <outline>
    <contour>
      <point x="119" y="1061" type="curve"/>
      <point x="119" y="1061"/>
      <point x="173" y="963"/>
      <point x="173" y="963" type="curve"/>
      <point x="173" y="963"/>
      <point x="182" y="963"/>
      <point x="182" y="963" type="curve"/>
      <point x="182" y="963"/>
      <point x="234" y="1061"/>
      <point x="234" y="1061" type="curve"/>
      <point x="234" y="1061"/>
      <point x="119" y="1061"/>
    </contour>
  </outline>
</glyph>
<glyph name="uni02D6" format="2">
  <advance width="520"/>
  <unicode hex="02D6"/>
  <outline>
    <contour>
      <point x="286" y="559" type="line"/>
      <point x="235" y="559" type="line"/>
      <point x="235" y="151" type="line"/>
      <point x="286" y="151" type="line"/>
    </contour>
    <contour>
      <point x="87" y="382" type="line"/>
      <point x="87" y="329" type="line"/>
      <point x="433" y="329" type="line"/>
      <point x="433" y="382" type="line"/>
    </contour>
  </outline>
</glyph>
<glyph name="ogonek" format="2">
  <advance width="441"/>
  <unicode hex="02DB"/>
  <outline>
    <contour>
      <point x="251" y="19" type="line"/>
      <point x="164" y="-54"/>
      <point x="77" y="-153"/>
      <point x="77" y="-248" type="curve" smooth="yes"/>
      <point x="77" y="-347"/>
      <point x="128" y="-394"/>
      <point x="205" y="-394" type="curve" smooth="yes"/>
      <point x="259" y="-394"/>
      <point x="293" y="-370"/>
      <point x="313" y="-350" type="curve"/>
      <point x="299" y="-304" type="line"/>
      <point x="280" y="-322"/>
      <point x="252" y="-343"/>
      <point x="208" y="-343" type="curve" smooth="yes"/>
      <point x="146" y="-343"/>
      <point x="129" y="-295"/>
      <point x="129" y="-248" type="curve" smooth="yes"/>
      <point x="129" y="-150"/>
      <point x="208" y="-74"/>
      <point x="289" y="0" type="curve"/>
    </contour>
  </outline>
</glyph>
<glyph name="uni02ED" format="2">
  <advance width="831"/>
  <unicode hex="02ED"/>
  <outline>
    <contour>
      <point x="745" y="1304" type="line"/>
      <point x="86" y="1304" type="line"/>
      <point x="86" y="1252" type="line"/>
      <point x="745" y="1252" type="line"/>
    </contour>
    <contour>
      <point x="745" y="1504" type="line"/>
      <point x="86" y="1504" type="line"/>
      <point x="86" y="1454" type="line"/>
      <point x="745" y="1454" type="line"/>
    </contour>
  </outline>
</glyph>
<glyph name="uni035B" format="2">
  <unicode hex="035B"/>
  <anchor x="-459.0" y="1207.0" name="_top"/>
  <anchor x="-459.0" y="1741.0" name="top"/>
  <anchor x="-459.0" y="1741.0" name="parent_top"/>
  <outline>
    <contour>
      <point x="-513" y="1661" type="curve"/>
      <point x="-513" y="1661"/>
      <point x="-590" y="1395"/>
      <point x="-590" y="1395" type="curve"/>
      <point x="-590" y="1395"/>
      <point x="-401" y="1395"/>
      <point x="-401" y="1395" type="curve"/>
      <point x="-401" y="1395"/>
      <point x="-459" y="1181"/>
      <point x="-459" y="1181" type="curve"/>
      <point x="-459" y="1181"/>
      <point x="-406" y="1181"/>
      <point x="-406" y="1181" type="curve"/>
      <point x="-406" y="1181"/>
      <point x="-328" y="1449"/>
      <point x="-328" y="1449" type="curve"/>
      <point x="-328" y="1449"/>
      <point x="-519" y="1449"/>
      <point x="-519" y="1449" type="curve"/>
      <point x="-519" y="1449"/>
      <point x="-459" y="1661"/>
      <point x="-459" y="1661" type="curve"/>
      <point x="-459" y="1661"/>
      <point x="-513" y="1661"/>
    </contour>
  </outline>
</glyph>
<glyph name="uni0363" format="2">
  <unicode hex="0363"/>
  <anchor x="-458" y="1170" name="_top"/>
  <anchor x="-458" y="1818" name="_mkmktop"/>
  <outline>
    <contour>
      <point x="-328" y="1305" type="line"/>
      <point x="-328" y="1268"/>
      <point x="-324" y="1228"/>
      <point x="-313" y="1202" type="curve"/>
      <point x="-271" y="1202" type="line"/>
      <point x="-283" y="1228"/>
      <point x="-289" y="1274"/>
      <point x="-289" y="1312" type="curve" smooth="yes"/>
      <point x="-289" y="1586" type="line" smooth="yes"/>
      <point x="-289" y="1702"/>
      <point x="-359" y="1759"/>
      <point x="-458" y="1759" type="curve" smooth="yes"/>
      <point x="-561" y="1759"/>
      <point x="-631" y="1683"/>
      <point x="-631" y="1599" type="curve"/>
      <point x="-595" y="1597" type="line"/>
      <point x="-595" y="1666"/>
      <point x="-542" y="1722"/>
      <point x="-458" y="1722" type="curve" smooth="yes"/>
      <point x="-371" y="1722"/>
      <point x="-328" y="1677"/>
      <point x="-328" y="1587" type="curve" smooth="yes"/>
    </contour>
    <contour>
      <point x="-308" y="1511" type="line"/>
      <point x="-434" y="1511" type="line" smooth="yes"/>
      <point x="-576" y="1511"/>
      <point x="-645" y="1440"/>
      <point x="-645" y="1337" type="curve" smooth="yes"/>
      <point x="-645" y="1247"/>
      <point x="-592" y="1190"/>
      <point x="-504" y="1190" type="curve" smooth="yes"/>
      <point x="-391" y="1190"/>
      <point x="-323" y="1274"/>
      <point x="-301" y="1351" type="curve"/>
      <point x="-315" y="1389" type="line"/>
      <point x="-340" y="1294"/>
      <point x="-408" y="1230"/>
      <point x="-502" y="1230" type="curve" smooth="yes"/>
      <point x="-574" y="1230"/>
      <point x="-607" y="1272"/>
      <point x="-607" y="1339" type="curve" smooth="yes"/>
      <point x="-607" y="1428"/>
      <point x="-546" y="1470"/>
      <point x="-433" y="1470" type="curve" smooth="yes"/>
      <point x="-307" y="1470" type="line"/>
    </contour>
  </outline>
</glyph>
<glyph name="uni0365" format="2">
  <unicode hex="0365"/>
  <anchor x="-459" y="1170" name="_top"/>
  <anchor x="-459" y="2018" name="_mkmktop"/>
  <outline>
    <contour>
      <point x="-440" y="1755" type="line"/>
      <point x="-478" y="1755" type="line"/>
      <point x="-478" y="1203" type="line"/>
      <point x="-440" y="1203" type="line"/>
    </contour>
    <contour>
      <point x="-491" y="1928" type="curve" smooth="yes"/>
      <point x="-491" y="1910"/>
      <point x="-478" y="1894"/>
      <point x="-459" y="1894" type="curve" smooth="yes"/>
      <point x="-443" y="1894"/>
      <point x="-429" y="1910"/>
      <point x="-429" y="1928" type="curve" smooth="yes"/>
      <point x="-429" y="1945"/>
      <point x="-443" y="1963"/>
      <point x="-459" y="1963" type="curve" smooth="yes"/>
      <point x="-478" y="1963"/>
      <point x="-491" y="1945"/>
    </contour>
  </outline>
</glyph>
<glyph name="uni0371" format="2">
  <advance width="888"/>
  <unicode hex="0371"/>
  <outline>
    <contour>
      <point x="351" y="0" type="line"/>
      <point x="351" y="754" type="line" smooth="yes"/>
      <point x="351" y="978"/>
      <point x="290" y="1102"/>
      <point x="138" y="1102" type="curve" smooth="yes"/>
      <point x="105" y="1102"/>
      <point x="77" y="1095"/>
      <point x="44" y="1082" type="curve"/>
      <point x="55" y="1032" type="line"/>
      <point x="72" y="1040"/>
      <point x="105" y="1051"/>
      <point x="138" y="1051" type="curve" smooth="yes"/>
      <point x="260" y="1051"/>
      <point x="297" y="941"/>
      <point x="297" y="754" type="curve" smooth="yes"/>
      <point x="297" y="0" type="line"/>
    </contour>
    <contour>
      <point x="845" y="584" type="line"/>
      <point x="331" y="584" type="line"/>
      <point x="331" y="530" type="line"/>
      <point x="845" y="530" type="line"/>
    </contour>
  </outline>
</glyph>
<glyph name="uni0373" format="2">
  <advance width="743"/>
  <unicode hex="0373"/>
  <outline>
    <contour>
      <point x="397" y="1456" type="line"/>
      <point x="345" y="1456" type="line"/>
      <point x="345" y="0" type="line"/>
      <point x="397" y="0" type="line"/>
    </contour>
    <contour>
      <point x="676" y="1456" type="line"/>
      <point x="65" y="1456" type="line"/>
      <point x="65" y="1405" type="line"/>
      <point x="676" y="1405" type="line"/>
    </contour>
    <contour>
      <point x="676" y="1456" type="line"/>
      <point x="627" y="1456" type="line"/>
      <point x="627" y="1029" type="line"/>
      <point x="676" y="1029" type="line"/>
    </contour>
    <contour>
      <point x="116" y="1456" type="line"/>
      <point x="65" y="1456" type="line"/>
      <point x="65" y="1029" type="line"/>
      <point x="116" y="1029" type="line"/>
    </contour>
  </outline>
</glyph>
<glyph name="Lambda" format="2">
  <advance width="1154"/>
  <unicode hex="039B"/>
  <outline>
    <contour>
      <point x="584" y="1415" type="line"/>
      <point x="591" y="1456" type="line"/>
      <point x="544" y="1456" type="line"/>
      <point x="91" y="0" type="line"/>
      <point x="149" y="0" type="line"/>
    </contour>
    <contour>
      <point x="999" y="0" type="line"/>
      <point x="1058" y="0" type="line"/>
      <point x="605" y="1456" type="line"/>
      <point x="558" y="1456" type="line"/>
      <point x="564" y="1416" type="line"/>
    </contour>
  </outline>
</glyph>
<glyph name="Xi" format="2">
  <advance width="992"/>
  <unicode hex="039E"/>
  <outline>
    <contour>
      <point x="114" y="0" type="line"/>
      <point x="885" y="0" type="line"/>
      <point x="885" y="51" type="line"/>
      <point x="114" y="51" type="line"/>
    </contour>
    <contour>
      <point x="204" y="686" type="line"/>
      <point x="786" y="686" type="line"/>
      <point x="786" y="738" type="line"/>
      <point x="204" y="738" type="line"/>
    </contour>
    <contour>
      <point x="131" y="1406" type="line"/>
      <point x="851" y="1406" type="line"/>
      <point x="851" y="1456" type="line"/>
      <point x="131" y="1456" type="line"/>
    </contour>
  </outline>
</glyph>
<glyph name="epsilon" format="2">
  <advance width="989"/>
  <unicode hex="03B5"/>
  <anchor x="486" y="1289" name="top"/>
  <anchor x="970" y="1289" name="top0315"/>
  <anchor x="486" y="1289" name="parent_top"/>
  <outline>
    <contour>
      <point x="483" y="572" type="line"/>
      <point x="240" y="572"/>
      <point x="116" y="471"/>
      <point x="116" y="290" type="curve" smooth="yes"/>
      <point x="116" y="94"/>
      <point x="271" y="-20"/>
      <point x="486" y="-20" type="curve" smooth="yes"/>
      <point x="672" y="-20"/>
      <point x="865" y="83"/>
      <point x="865" y="301" type="curve"/>
      <point x="812" y="301" type="line"/>
      <point x="812" y="147"/>
      <point x="681" y="31"/>
      <point x="486" y="31" type="curve" smooth="yes"/>
      <point x="284" y="31"/>
      <point x="170" y="130"/>
      <point x="170" y="287" type="curve" smooth="yes"/>
      <point x="170" y="454"/>
      <point x="282" y="527"/>
      <point x="488" y="527" type="curve" smooth="yes"/>
      <point x="630" y="527" type="line"/>
      <point x="630" y="572" type="line"/>
    </contour>
    <contour>
      <point x="630" y="532" type="line"/>
      <point x="630" y="580" type="line"/>
      <point x="488" y="580" type="line" smooth="yes"/>
      <point x="273" y="580"/>
      <point x="187" y="667"/>
      <point x="187" y="806" type="curve"/>
      <point x="187" y="945"/>
      <point x="277" y="1052"/>
      <point x="486" y="1052" type="curve" smooth="yes"/>
      <point x="658" y="1052"/>
      <point x="797" y="952"/>
      <point x="797" y="800" type="curve"/>
      <point x="850" y="800" type="line"/>
      <point x="850" y="985"/>
      <point x="683" y="1103"/>
      <point x="486" y="1103" type="curve" smooth="yes"/>
      <point x="271" y="1103"/>
      <point x="132" y="996"/>
      <point x="132" y="802" type="curve"/>
      <point x="132" y="654"/>
      <point x="259" y="532"/>
      <point x="483" y="532" type="curve"/>
    </contour>
  </outline>
</glyph>
<glyph name="uni0432" format="2">
  <advance width="991"/>
  <unicode hex="0432"/>
  <anchor x="477" y="1269" name="top"/>
  <anchor x="972" y="1269" name="top0315"/>
  <anchor x="477" y="1269" name="parent_top"/>
  <outline>
    <contour>
      <point x="549" y="522" type="line"/>
      <point x="608" y="550" type="line"/>
      <point x="754" y="563"/>
      <point x="835" y="670"/>
      <point x="835" y="804" type="curve"/>
      <point x="835" y="995"/>
      <point x="704" y="1082"/>
      <point x="489" y="1082" type="curve"/>
      <point x="170" y="1082" type="line"/>
      <point x="170" y="0" type="line"/>
      <point x="224" y="0" type="line"/>
      <point x="224" y="1031" type="line"/>
      <point x="489" y="1031" type="line"/>
      <point x="682" y="1031"/>
      <point x="783" y="963"/>
      <point x="783" y="805" type="curve"/>
      <point x="783" y="654"/>
      <point x="687" y="573"/>
      <point x="506" y="573" type="curve"/>
      <point x="205" y="573" type="line"/>
      <point x="207" y="522" type="line"/>
    </contour>
    <contour>
      <point x="549" y="0" type="line"/>
      <point x="742" y="0"/>
      <point x="876" y="97"/>
      <point x="876" y="293" type="curve" smooth="yes"/>
      <point x="876" y="425"/>
      <point x="781" y="539"/>
      <point x="655" y="556" type="curve"/>
      <point x="624" y="573" type="line"/>
      <point x="319" y="573" type="line"/>
      <point x="317" y="522" type="line"/>
      <point x="549" y="522" type="line" smooth="yes"/>
      <point x="718" y="522"/>
      <point x="824" y="427"/>
      <point x="824" y="292" type="curve" smooth="yes"/>
      <point x="824" y="134"/>
      <point x="718" y="51"/>
      <point x="549" y="51" type="curve" smooth="yes"/>
      <point x="202" y="51" type="line"/>
      <point x="198" y="0" type="line"/>
    </contour>
  </outline>
</glyph>
<glyph name="uni0438" format="2">
  <advance width="991"/>
  <unicode hex="0438"/>
  <anchor x="493" y="1269" name="top"/>
  <anchor x="972" y="1269" name="top0315"/>
  <anchor x="493" y="1269" name="parent_top"/>
  <outline>
    <contour>
      <point x="216" y="91" type="line"/>
      <point x="216" y="1082" type="line"/>
      <point x="164" y="1082" type="line"/>
      <point x="164" y="0" type="line"/>
      <point x="216" y="0" type="line"/>
      <point x="775" y="991" type="line"/>
      <point x="775" y="0" type="line"/>
      <point x="828" y="0" type="line"/>
      <point x="828" y="1082" type="line"/>
      <point x="775" y="1082" type="line"/>
    </contour>
  </outline>
</glyph>
<glyph name="uni043F" format="2">
  <advance width="991"/>
  <unicode hex="043F"/>
  <anchor x="498" y="1269" name="top"/>
  <anchor x="972" y="1269" name="top0315"/>
  <anchor x="498" y="1269" name="parent_top"/>
  <outline>
    <contour>
      <point x="795" y="1082" type="line"/>
      <point x="196" y="1082" type="line"/>
      <point x="196" y="1030" type="line"/>
      <point x="795" y="1030" type="line"/>
    </contour>
    <contour>
      <point x="217" y="1082" type="line"/>
      <point x="164" y="1082" type="line"/>
      <point x="164" y="0" type="line"/>
      <point x="217" y="0" type="line"/>
    </contour>
    <contour>
      <point x="828" y="1082" type="line"/>
      <point x="775" y="1082" type="line"/>
      <point x="775" y="0" type="line"/>
      <point x="828" y="0" type="line"/>
    </contour>
  </outline>
</glyph>
<glyph name="uni045A" format="2">
  <advance width="1534"/>
  <unicode hex="045A"/>
  <outline>
    <contour>
      <point x="792" y="630" type="line"/>
      <point x="198" y="630" type="line"/>
      <point x="198" y="580" type="line"/>
      <point x="792" y="580" type="line"/>
    </contour>
    <contour>
      <point x="217" y="1082" type="line"/>
      <point x="164" y="1082" type="line"/>
      <point x="164" y="0" type="line"/>
      <point x="217" y="0" type="line"/>
    </contour>
    <contour>
      <point x="797" y="627" type="line"/>
      <point x="797" y="579" type="line"/>
      <point x="1118" y="579" type="line"/>
      <point x="1313" y="579"/>
      <point x="1395" y="450"/>
      <point x="1395" y="315" type="curve"/>
      <point x="1395" y="177"/>
      <point x="1313" y="51"/>
      <point x="1118" y="51" type="curve"/>
      <point x="828" y="51" type="line"/>
      <point x="828" y="1082" type="line"/>
      <point x="776" y="1082" type="line"/>
      <point x="776" y="0" type="line"/>
      <point x="1118" y="0" type="line"/>
      <point x="1330" y="0"/>
      <point x="1448" y="131"/>
      <point x="1448" y="313" type="curve"/>
      <point x="1448" y="495"/>
      <point x="1330" y="627"/>
      <point x="1118" y="627" type="curve"/>
    </contour>
  </outline>
</glyph>
<glyph name="uni0466" format="2">
  <advance width="1078"/>
  <unicode hex="0466"/>
  <outline>
    <contour>
      <point x="517" y="1305" type="line"/>
      <point x="556" y="1456" type="line"/>
      <point x="508" y="1456" type="line"/>
      <point x="49" y="0" type="line"/>
      <point x="106" y="0" type="line"/>
    </contour>
    <contour>
      <point x="975" y="0" type="line"/>
      <point x="1031" y="0" type="line"/>
      <point x="569" y="1456" type="line"/>
      <point x="523" y="1456" type="line"/>
      <point x="562" y="1303" type="line"/>
    </contour>
    <contour>
      <point x="837" y="562" type="line"/>
      <point x="241" y="562" type="line"/>
      <point x="241" y="511" type="line"/>
      <point x="837" y="511" type="line"/>
    </contour>
    <contour>
      <point x="561" y="541" type="line"/>
      <point x="507" y="541" type="line"/>
      <point x="507" y="0" type="line"/>
      <point x="561" y="0" type="line"/>
    </contour>
  </outline>
</glyph>
<glyph name="uni047C" format="2">
  <advance width="1584"/>
  <unicode hex="047C"/>
  <outline>
    <contour>
      <point x="1177" y="1613" type="line"/>
      <point x="1002" y="1613"/>
      <point x="949" y="1811"/>
      <point x="797" y="1811" type="curve" smooth="yes"/>
      <point x="672" y="1811"/>
      <point x="596" y="1707"/>
      <point x="596" y="1582" type="curve" smooth="yes"/>
      <point x="596" y="1557" type="line"/>
      <point x="647" y="1557" type="line"/>
      <point x="647" y="1575" type="line" smooth="yes"/>
      <point x="647" y="1671"/>
      <point x="695" y="1761"/>
      <point x="800" y="1761" type="curve" smooth="yes"/>
      <point x="935" y="1761"/>
      <point x="978" y="1570"/>
      <point x="1175" y="1570" type="curve" smooth="yes"/>
      <point x="1191" y="1570" type="line"/>
      <point x="1191" y="1613" type="line"/>
    </contour>
    <contour>
      <point x="765" y="1343" type="line"/>
      <point x="805" y="1368"/>
      <point x="857" y="1426"/>
      <point x="857" y="1513" type="curve" smooth="yes"/>
      <point x="857" y="1615" type="line"/>
      <point x="806" y="1615" type="line"/>
      <point x="806" y="1517" type="line" smooth="yes"/>
      <point x="806" y="1446"/>
      <point x="784" y="1411"/>
      <point x="745" y="1381" type="curve"/>
    </contour>
    <contour>
      <point x="496" y="1454" type="line"/>
      <point x="311" y="1454"/>
      <point x="174" y="1305"/>
      <point x="174" y="1004" type="curve"/>
      <point x="174" y="427" type="line" smooth="yes"/>
      <point x="174" y="127"/>
      <point x="311" y="-21"/>
      <point x="496" y="-21" type="curve" smooth="yes"/>
      <point x="681" y="-21"/>
      <point x="817" y="127"/>
      <point x="817" y="429" type="curve" smooth="yes"/>
      <point x="817" y="942" type="line"/>
      <point x="766" y="942" type="line"/>
      <point x="766" y="429" type="line" smooth="yes"/>
      <point x="766" y="171"/>
      <point x="652" y="30"/>
      <point x="496" y="30" type="curve" smooth="yes"/>
      <point x="342" y="30"/>
      <point x="228" y="172"/>
      <point x="228" y="427" type="curve" smooth="yes"/>
      <point x="228" y="1004" type="line"/>
      <point x="228" y="1262"/>
      <point x="342" y="1404"/>
      <point x="496" y="1404" type="curve"/>
    </contour>
    <contour>
      <point x="1090" y="1404" type="line"/>
      <point x="1244" y="1404"/>
      <point x="1359" y="1262"/>
      <point x="1359" y="1004" type="curve" smooth="yes"/>
      <point x="1359" y="427" type="line" smooth="yes"/>
      <point x="1359" y="172"/>
      <point x="1244" y="30"/>
      <point x="1090" y="30" type="curve" smooth="yes"/>
      <point x="934" y="30"/>
      <point x="819" y="171"/>
      <point x="819" y="429" type="curve" smooth="yes"/>
      <point x="819" y="942" type="line"/>
      <point x="770" y="942" type="line"/>
      <point x="770" y="429" type="line" smooth="yes"/>
      <point x="770" y="127"/>
      <point x="905" y="-21"/>
      <point x="1090" y="-21" type="curve" smooth="yes"/>
      <point x="1274" y="-21"/>
      <point x="1412" y="127"/>
      <point x="1412" y="427" type="curve" smooth="yes"/>
      <point x="1412" y="1004" type="line" smooth="yes"/>
      <point x="1412" y="1305"/>
      <point x="1274" y="1454"/>
      <point x="1090" y="1454" type="curve"/>
    </contour>
  </outline>
</glyph>
<glyph name="uni0480" format="2">
  <advance width="1112"/>
  <unicode hex="0480"/>
  <anchor x="585" y="1633" name="top"/>
  <anchor x="585" y="-10" name="bottom"/>
  <anchor x="1093" y="1633" name="top0315"/>
  <anchor x="585" y="1633" name="parent_top"/>
  <outline>
    <contour>
      <point x="589" y="30" type="line"/>
      <point x="352" y="30"/>
      <point x="194" y="297"/>
      <point x="194" y="702" type="curve" smooth="yes"/>
      <point x="194" y="778" type="line" smooth="yes"/>
      <point x="194" y="1168"/>
      <point x="357" y="1427"/>
      <point x="605" y="1427" type="curve" smooth="yes"/>
      <point x="827" y="1427"/>
      <point x="945" y="1282"/>
      <point x="970" y="1014" type="curve"/>
      <point x="1021" y="1014" type="line"/>
      <point x="1007" y="1324"/>
      <point x="846" y="1477"/>
      <point x="605" y="1477" type="curve" smooth="yes"/>
      <point x="323" y="1477"/>
      <point x="140" y="1193"/>
      <point x="140" y="776" type="curve"/>
      <point x="140" y="702" type="line"/>
      <point x="140" y="272"/>
      <point x="316" y="-21"/>
      <point x="589" y="-21" type="curve"/>
    </contour>
    <contour>
      <point x="630" y="30" type="line"/>
      <point x="578" y="30" type="line"/>
      <point x="578" y="-351" type="line"/>
      <point x="630" y="-351" type="line"/>
    </contour>
  </outline>
</glyph>
<glyph name="uni0485" format="2">
  <unicode hex="0485"/>
  <anchor x="-454" y="1290" name="_top"/>
  <outline>
    <contour>
      <point x="-415" y="1351" type="line"/>
      <point x="-383" y="1377" type="line"/>
      <point x="-438" y="1503" type="line"/>
      <point x="-437" y="1643" type="line"/>
      <point x="-523" y="1643" type="line"/>
      <point x="-523" y="1500" type="line"/>
    </contour>
  </outline>
</glyph>
<glyph name="uni049C" format="2">
  <advance width="1079"/>
  <unicode hex="049C"/>
  <outline>
    <contour>
      <point x="183" y="1456" type="line"/>
      <point x="183" y="0" type="line"/>
      <point x="237" y="0" type="line"/>
      <point x="237" y="1456" type="line"/>
    </contour>
    <contour>
      <point x="389" y="1081" type="line"/>
      <point x="389" y="396" type="line"/>
      <point x="441" y="396" type="line"/>
      <point x="441" y="1081" type="line"/>
    </contour>
    <contour>
      <point x="905" y="1456" type="line"/>
      <point x="538" y="772" type="line"/>
      <point x="220" y="772" type="line"/>
      <point x="214" y="722" type="line"/>
      <point x="565" y="722" type="line"/>
      <point x="972" y="1456" type="line"/>
    </contour>
    <contour>
      <point x="523" y="724" type="line"/>
      <point x="967" y="0" type="line"/>
      <point x="1034" y="0" type="line"/>
      <point x="557" y="770" type="line"/>
    </contour>
  </outline>
</glyph>
<glyph name="uni049D" format="2">
  <advance width="945"/>
  <unicode hex="049D"/>
  <outline>
    <contour>
      <point x="164" y="1082" type="line"/>
      <point x="164" y="0" type="line"/>
      <point x="217" y="0" type="line"/>
      <point x="217" y="1082" type="line"/>
    </contour>
    <contour>
      <point x="359" y="849" type="line"/>
      <point x="359" y="250" type="line"/>
      <point x="410" y="250" type="line"/>
      <point x="410" y="849" type="line"/>
    </contour>
    <contour>
      <point x="767" y="1082" type="line"/>
      <point x="502" y="581" type="line"/>
      <point x="195" y="581" type="line"/>
      <point x="195" y="532" type="line"/>
      <point x="526" y="532" type="line"/>
      <point x="841" y="1082" type="line"/>
    </contour>
    <contour>
      <point x="489" y="534" type="line"/>
      <point x="818" y="0" type="line"/>
      <point x="894" y="0" type="line"/>
      <point x="521" y="581" type="line"/>
    </contour>
  </outline>
</glyph>
<glyph name="uni049E" format="2">
  <advance width="1162"/>
  <unicode hex="049E"/>
  <outline>
    <contour>
      <point x="261" y="1456" type="line"/>
      <point x="207" y="1456" type="line"/>
      <point x="207" y="0" type="line"/>
      <point x="261" y="0" type="line"/>
    </contour>
    <contour>
      <point x="1046" y="1456" type="line"/>
      <point x="977" y="1456" type="line"/>
      <point x="459" y="762" type="line"/>
      <point x="244" y="762" type="line"/>
      <point x="239" y="712" type="line"/>
      <point x="486" y="712" type="line"/>
    </contour>
    <contour>
      <point x="1015" y="0" type="line"/>
      <point x="1084" y="0" type="line"/>
      <point x="475" y="758" type="line"/>
      <point x="444" y="716" type="line"/>
    </contour>
    <contour>
      <point x="524" y="1156" type="line"/>
      <point x="23" y="1156" type="line"/>
      <point x="23" y="1105" type="line"/>
      <point x="524" y="1105" type="line"/>
    </contour>
  </outline>
</glyph>
<glyph name="uni04A6" format="2">
  <advance width="1802"/>
  <unicode hex="04A6"/>
  <outline>
    <contour>
      <point x="1057" y="1456" type="line"/>
      <point x="171" y="1456" type="line"/>
      <point x="171" y="0" type="line"/>
      <point x="224" y="0" type="line"/>
      <point x="224" y="1406" type="line"/>
      <point x="1003" y="1406" type="line"/>
      <point x="1003" y="0" type="line"/>
      <point x="1057" y="0" type="line"/>
    </contour>
    <contour>
      <point x="1022" y="788" type="line"/>
      <point x="1233" y="788" type="line" smooth="yes"/>
      <point x="1472" y="788"/>
      <point x="1657" y="642"/>
      <point x="1655" y="275" type="curve" smooth="yes"/>
      <point x="1656" y="42"/>
      <point x="1549" y="-215"/>
      <point x="1333" y="-215" type="curve"/>
      <point x="1333" y="-263" type="line"/>
      <point x="1601" y="-263"/>
      <point x="1709" y="59"/>
      <point x="1709" y="275" type="curve" smooth="yes"/>
      <point x="1709" y="693"/>
      <point x="1503" y="840"/>
      <point x="1233" y="840" type="curve" smooth="yes"/>
      <point x="1022" y="840" type="line"/>
    </contour>
  </outline>
</glyph>
<glyph name="uni04A7" format="2">
  <advance width="1490"/>
  <unicode hex="04A7"/>
  <outline>
    <contour>
      <point x="786" y="556" type="line"/>
      <point x="967" y="556" type="line" smooth="yes"/>
      <point x="1187" y="556"/>
      <point x="1363" y="445"/>
      <point x="1356" y="161" type="curve" smooth="yes"/>
      <point x="1353" y="27"/>
      <point x="1299" y="-164"/>
      <point x="1084" y="-214" type="curve"/>
      <point x="1099" y="-255" type="line"/>
      <point x="1345" y="-198"/>
      <point x="1411" y="30"/>
      <point x="1407" y="161" type="curve"/>
      <point x="1407" y="490"/>
      <point x="1217" y="603"/>
      <point x="967" y="603" type="curve" smooth="yes"/>
      <point x="786" y="603" type="line"/>
    </contour>
    <contour>
      <point x="793" y="1082" type="line"/>
      <point x="194" y="1082" type="line"/>
      <point x="194" y="1030" type="line"/>
      <point x="793" y="1030" type="line"/>
    </contour>
    <contour>
      <point x="215" y="1082" type="line"/>
      <point x="163" y="1082" type="line"/>
      <point x="163" y="0" type="line"/>
      <point x="215" y="0" type="line"/>
    </contour>
    <contour>
      <point x="827" y="1082" type="line"/>
      <point x="775" y="1082" type="line"/>
      <point x="775" y="0" type="line"/>
      <point x="827" y="0" type="line"/>
    </contour>
  </outline>
</glyph>
<glyph name="uni04C3" format="2">
  <advance width="1079"/>
  <unicode hex="04C3"/>
  <outline>
    <contour>
      <point x="237" y="1456" type="line"/>
      <point x="183" y="1456" type="line"/>
      <point x="183" y="0" type="line"/>
      <point x="237" y="0" type="line"/>
    </contour>
    <contour>
      <point x="972" y="1456" type="line"/>
      <point x="905" y="1456" type="line"/>
      <point x="417" y="771" type="line"/>
      <point x="220" y="771" type="line"/>
      <point x="214" y="722" type="line"/>
      <point x="443" y="722" type="line"/>
    </contour>
    <contour>
      <point x="323" y="722" type="line"/>
      <point x="533" y="722" type="line" smooth="yes"/>
      <point x="774" y="722"/>
      <point x="957" y="577"/>
      <point x="957" y="206" type="curve" smooth="yes"/>
      <point x="958" y="-26"/>
      <point x="851" y="-281"/>
      <point x="635" y="-281" type="curve"/>
      <point x="635" y="-327" type="line"/>
      <point x="903" y="-327"/>
      <point x="1010" y="-6"/>
      <point x="1010" y="207" type="curve" smooth="yes"/>
      <point x="1010" y="626"/>
      <point x="804" y="773"/>
      <point x="533" y="773" type="curve" smooth="yes"/>
      <point x="323" y="773" type="line"/>
    </contour>
  </outline>
</glyph>
<glyph name="uni050A" format="2">
  <advance width="1695"/>
  <unicode hex="050A"/>
  <anchor x="622" y="1612" name="top"/>
  <anchor x="1676" y="1612" name="top0315"/>
  <anchor x="622" y="1612" name="parent_top"/>
  <outline>
    <contour>
      <point x="226" y="744" type="line"/>
      <point x="226" y="696" type="line"/>
      <point x="946" y="696" type="line"/>
      <point x="946" y="744" type="line"/>
    </contour>
    <contour>
      <point x="195" y="1456" type="line"/>
      <point x="195" y="0" type="line"/>
      <point x="248" y="0" type="line"/>
      <point x="248" y="1456" type="line"/>
    </contour>
    <contour>
      <point x="926" y="1456" type="line"/>
      <point x="926" y="345" type="line"/>
      <point x="932" y="83"/>
      <point x="1023" y="-25"/>
      <point x="1169" y="-21" type="curve"/>
      <point x="1365" y="-21"/>
      <point x="1509" y="158"/>
      <point x="1514" y="529" type="curve"/>
      <point x="1516" y="666"/>
      <point x="1486" y="802"/>
      <point x="1456" y="932" type="curve"/>
      <point x="1403" y="930" type="line"/>
      <point x="1436" y="797"/>
      <point x="1461" y="662"/>
      <point x="1461" y="529" type="curve"/>
      <point x="1458" y="225"/>
      <point x="1357" y="32"/>
      <point x="1169" y="30" type="curve"/>
      <point x="1054" y="30"/>
      <point x="978" y="128"/>
      <point x="979" y="345" type="curve"/>
      <point x="979" y="1456" type="line"/>
    </contour>
  </outline>
</glyph>
<glyph name="uni0514" format="2">
  <advance width="1570"/>
  <unicode hex="0514"/>
  <outline>
    <contour>
      <point x="389" y="1456" type="line"/>
      <point x="355" y="825" type="line" smooth="yes"/>
      <point x="320" y="194"/>
      <point x="268" y="51"/>
      <point x="94" y="50" type="curve" smooth="yes"/>
      <point x="64" y="51" type="line"/>
      <point x="64" y="0" type="line"/>
      <point x="93" y="0" type="line" smooth="yes"/>
      <point x="331" y="0"/>
      <point x="373" y="225"/>
      <point x="407" y="825" type="curve" smooth="yes"/>
      <point x="441" y="1456" type="line"/>
    </contour>
    <contour>
      <point x="631" y="1456" type="line"/>
      <point x="411" y="1456" type="line"/>
      <point x="411" y="1406" type="line"/>
      <point x="631" y="1406" type="line"/>
    </contour>
    <contour>
      <point x="637" y="1456" type="line"/>
      <point x="572" y="1456" type="line"/>
      <point x="998" y="744" type="line"/>
      <point x="556" y="0" type="line"/>
      <point x="620" y="0" type="line"/>
      <point x="1031" y="704" type="line"/>
      <point x="1440" y="0" type="line"/>
      <point x="1505" y="0" type="line"/>
      <point x="1064" y="744" type="line"/>
      <point x="1488" y="1456" type="line"/>
      <point x="1423" y="1456" type="line"/>
      <point x="1031" y="782" type="line"/>
    </contour>
  </outline>
</glyph>
<glyph name="uni0517" format="2">
  <advance width="1375"/>
  <unicode hex="0517"/>
  <outline>
    <contour>
      <point x="1293" y="1082" type="line"/>
      <point x="1219" y="1082" type="line"/>
      <point x="859" y="581" type="line"/>
      <point x="836" y="581" type="line"/>
      <point x="834" y="532" type="line"/>
      <point x="885" y="532" type="line"/>
    </contour>
    <contour>
      <point x="1268" y="0" type="line"/>
      <point x="1345" y="0" type="line"/>
      <point x="879" y="581" type="line"/>
      <point x="847" y="534" type="line"/>
    </contour>
    <contour>
      <point x="214" y="874" type="line"/>
      <point x="213" y="1082" type="line"/>
      <point x="162" y="1082" type="line"/>
      <point x="162" y="-416" type="line"/>
      <point x="214" y="-416" type="line"/>
    </contour>
    <contour>
      <point x="870" y="552" type="line"/>
      <point x="870" y="892"/>
      <point x="741" y="1102"/>
      <point x="522" y="1102" type="curve" smooth="yes"/>
      <point x="321" y="1102"/>
      <point x="203" y="949"/>
      <point x="163" y="750" type="curve"/>
      <point x="163" y="299" type="line"/>
      <point x="193" y="132"/>
      <point x="315" y="-20"/>
      <point x="524" y="-20" type="curve" smooth="yes"/>
      <point x="741" y="-20"/>
      <point x="870" y="201"/>
      <point x="870" y="531" type="curve" smooth="yes"/>
    </contour>
    <contour>
      <point x="817" y="531" type="line"/>
      <point x="817" y="240"/>
      <point x="721" y="31"/>
      <point x="522" y="31" type="curve" smooth="yes"/>
      <point x="332" y="31"/>
      <point x="229" y="163"/>
      <point x="198" y="328" type="curve"/>
      <point x="198" y="712" type="line"/>
      <point x="221" y="844"/>
      <point x="294" y="1052"/>
      <point x="520" y="1052" type="curve" smooth="yes"/>
      <point x="721" y="1052"/>
      <point x="817" y="841"/>
      <point x="817" y="552" type="curve" smooth="yes"/>
    </contour>
  </outline>
</glyph>
<glyph name="uni051E" format="2">
  <advance width="1142"/>
  <unicode hex="051E"/>
  <outline>
    <contour>
      <point x="903" y="894" type="line"/>
      <point x="549" y="1309" type="line"/>
      <point x="513" y="1273" type="line"/>
      <point x="866" y="858" type="line"/>
    </contour>
    <contour>
      <point x="241" y="1456" type="line"/>
      <point x="187" y="1456" type="line"/>
      <point x="187" y="0" type="line"/>
      <point x="241" y="0" type="line"/>
    </contour>
    <contour>
      <point x="1026" y="1456" type="line"/>
      <point x="957" y="1456" type="line"/>
      <point x="439" y="762" type="line"/>
      <point x="224" y="762" type="line"/>
      <point x="219" y="712" type="line"/>
      <point x="466" y="712" type="line"/>
    </contour>
    <contour>
      <point x="995" y="0" type="line"/>
      <point x="1064" y="0" type="line"/>
      <point x="455" y="758" type="line"/>
      <point x="424" y="716" type="line"/>
    </contour>
  </outline>
</glyph>
<glyph name="uni051F" format="2">
  <advance width="905"/>
  <unicode hex="051F"/>
  <outline>
    <contour>
      <point x="801" y="640" type="line"/>
      <point x="450" y="1062" type="line"/>
      <point x="415" y="1026" type="line"/>
      <point x="764" y="604" type="line"/>
    </contour>
    <contour>
      <point x="217" y="1082" type="line"/>
      <point x="163" y="1082" type="line"/>
      <point x="163" y="0" type="line"/>
      <point x="217" y="0" type="line"/>
    </contour>
    <contour>
      <point x="824" y="1082" type="line"/>
      <point x="750" y="1082" type="line"/>
      <point x="388" y="581" type="line"/>
      <point x="196" y="581" type="line"/>
      <point x="195" y="532" type="line"/>
      <point x="415" y="532" type="line"/>
    </contour>
    <contour>
      <point x="798" y="0" type="line"/>
      <point x="874" y="0" type="line"/>
      <point x="408" y="583" type="line"/>
      <point x="377" y="534" type="line"/>
    </contour>
  </outline>
</glyph>
<glyph name="uni0524" format="2">
  <advance width="1200"/>
  <unicode hex="0524"/>
  <outline>
    <contour>
      <point x="1120" y="93" type="line"/>
      <point x="1073" y="93" type="line"/>
      <point x="1073" y="1456" type="line"/>
      <point x="187" y="1456" type="line"/>
      <point x="187" y="0" type="line"/>
      <point x="241" y="0" type="line"/>
      <point x="241" y="1406" type="line"/>
      <point x="1019" y="1406" type="line"/>
      <point x="1019" y="0" type="line"/>
      <point x="1068" y="0" type="line"/>
      <point x="1068" y="-352" type="line"/>
      <point x="1120" y="-352" type="line"/>
    </contour>
  </outline>
</glyph>
<glyph name="uni0528" format="2">
  <advance width="1263"/>
  <unicode hex="0528"/>
  <outline>
    <contour>
      <point x="190" y="137" type="line"/>
      <point x="190" y="-117" type="line" smooth="yes"/>
      <point x="190" y="-288"/>
      <point x="119" y="-386"/>
      <point x="1" y="-386" type="curve" smooth="yes"/>
      <point x="-43" y="-386"/>
      <point x="-68" y="-381"/>
      <point x="-100" y="-371" type="curve"/>
      <point x="-106" y="-420" type="line"/>
      <point x="-71" y="-433"/>
      <point x="-33" y="-437"/>
      <point x="1" y="-437" type="curve" smooth="yes"/>
      <point x="153" y="-437"/>
      <point x="244" y="-324"/>
      <point x="244" y="-117" type="curve" smooth="yes"/>
      <point x="244" y="137" type="line"/>
    </contour>
    <contour>
      <point x="1042" y="775" type="line"/>
      <point x="221" y="775" type="line"/>
      <point x="221" y="724" type="line"/>
      <point x="1042" y="724" type="line"/>
    </contour>
    <contour>
      <point x="244" y="1456" type="line"/>
      <point x="190" y="1456" type="line"/>
      <point x="190" y="0" type="line"/>
      <point x="244" y="0" type="line"/>
    </contour>
    <contour>
      <point x="1076" y="1456" type="line"/>
      <point x="1022" y="1456" type="line"/>
      <point x="1022" y="0" type="line"/>
      <point x="1076" y="0" type="line"/>
    </contour>
  </outline>
</glyph>
<glyph name="uni052A" format="2">
  <advance width="2201"/>
  <unicode hex="052A"/>
  <outline>
    <contour>
      <point x="1302" y="1456" type="line"/>
      <point x="1248" y="1456" type="line"/>
      <point x="1248" y="0" type="line"/>
      <point x="1302" y="0" type="line"/>
    </contour>
    <contour>
      <point x="2084" y="1456" type="line"/>
      <point x="2017" y="1456" type="line"/>
      <point x="1500" y="763" type="line"/>
      <point x="1045" y="763" type="line"/>
      <point x="1039" y="714" type="line"/>
      <point x="1527" y="714" type="line"/>
    </contour>
    <contour>
      <point x="2056" y="0" type="line"/>
      <point x="2123" y="0" type="line"/>
      <point x="1517" y="757" type="line"/>
      <point x="1485" y="714" type="line"/>
    </contour>
    <contour>
      <point x="1129" y="51" type="line"/>
      <point x="128" y="51" type="line"/>
      <point x="128" y="0" type="line"/>
      <point x="1129" y="0" type="line"/>
    </contour>
    <contour>
      <point x="147" y="51" type="line"/>
      <point x="96" y="51" type="line"/>
      <point x="94" y="-349" type="line"/>
      <point x="147" y="-349" type="line"/>
    </contour>
    <contour>
      <point x="1172" y="51" type="line"/>
      <point x="1118" y="51" type="line"/>
      <point x="1118" y="-348" type="line"/>
      <point x="1174" y="-348" type="line"/>
    </contour>
    <contour>
      <point x="1034" y="1456" type="line"/>
      <point x="454" y="1456" type="line"/>
      <point x="454" y="1406" type="line"/>
      <point x="1034" y="1406" type="line"/>
    </contour>
    <contour>
      <point x="1069" y="1456" type="line"/>
      <point x="1015" y="1456" type="line"/>
      <point x="1015" y="0" type="line"/>
      <point x="1069" y="0" type="line"/>
    </contour>
    <contour>
      <point x="434" y="1456" type="line"/>
      <point x="414" y="995" type="line" smooth="yes"/>
      <point x="383" y="364"/>
      <point x="214" y="107"/>
      <point x="161" y="51" type="curve"/>
      <point x="106" y="51" type="line"/>
      <point x="106" y="0" type="line"/>
      <point x="161" y="0" type="line"/>
      <point x="256" y="32"/>
      <point x="437" y="396"/>
      <point x="468" y="995" type="curve" smooth="yes"/>
      <point x="485" y="1456" type="line"/>
    </contour>
  </outline>
</glyph>
<glyph name="uni052B" format="2">
  <advance width="1736"/>
  <unicode hex="052B"/>
  <outline>
    <contour>
      <point x="1048" y="1082" type="line"/>
      <point x="994" y="1082" type="line"/>
      <point x="994" y="0" type="line"/>
      <point x="1048" y="0" type="line"/>
    </contour>
    <contour>
      <point x="1654" y="1082" type="line"/>
      <point x="1581" y="1082" type="line"/>
      <point x="1219" y="581" type="line"/>
      <point x="800" y="581" type="line"/>
      <point x="798" y="532" type="line"/>
      <point x="1245" y="532" type="line"/>
    </contour>
    <contour>
      <point x="1629" y="0" type="line"/>
      <point x="1705" y="0" type="line"/>
      <point x="1239" y="581" type="line"/>
      <point x="1208" y="534" type="line"/>
    </contour>
    <contour>
      <point x="324" y="1082" type="line"/>
      <point x="307" y="706" type="line" smooth="yes"/>
      <point x="288" y="279"/>
      <point x="186" y="135"/>
      <point x="129" y="51" type="curve"/>
      <point x="111" y="51" type="line"/>
      <point x="109" y="0" type="line"/>
      <point x="146" y="0" type="line"/>
      <point x="235" y="100"/>
      <point x="341" y="286"/>
      <point x="360" y="706" type="curve" smooth="yes"/>
      <point x="377" y="1082" type="line"/>
    </contour>
    <contour>
      <point x="352" y="1082" type="line"/>
      <point x="352" y="1031" type="line"/>
      <point x="772" y="1031" type="line"/>
      <point x="772" y="0" type="line"/>
      <point x="823" y="0" type="line"/>
      <point x="823" y="1082" type="line"/>
    </contour>
    <contour>
      <point x="68" y="51" type="line"/>
      <point x="68" y="-317" type="line"/>
      <point x="113" y="-317" type="line"/>
      <point x="113" y="0" type="line"/>
      <point x="845" y="0" type="line"/>
      <point x="845" y="-317" type="line"/>
      <point x="898" y="-317" type="line"/>
      <point x="898" y="51" type="line"/>
    </contour>
  </outline>
</glyph>
<glyph name="uni052C" format="2">
  <advance width="1254"/>
  <unicode hex="052C"/>
  <outline>
    <contour>
      <point x="1173" y="51" type="line"/>
      <point x="1120" y="51" type="line"/>
      <point x="1120" y="-348" type="line"/>
      <point x="1173" y="-348" type="line"/>
    </contour>
    <contour>
      <point x="1131" y="51" type="line"/>
      <point x="129" y="51" type="line"/>
      <point x="129" y="0" type="line"/>
      <point x="1131" y="0" type="line"/>
    </contour>
    <contour>
      <point x="148" y="51" type="line"/>
      <point x="95" y="51" type="line"/>
      <point x="97" y="-349" type="line"/>
      <point x="148" y="-349" type="line"/>
    </contour>
    <contour>
      <point x="881" y="1456" type="line"/>
      <point x="156" y="51" type="line"/>
      <point x="156" y="0" type="line"/>
      <point x="187" y="0" type="line"/>
      <point x="937" y="1456" type="line"/>
    </contour>
    <contour>
      <point x="1036" y="1456" type="line"/>
      <point x="903" y="1456" type="line"/>
      <point x="903" y="1406" type="line"/>
      <point x="1036" y="1406" type="line"/>
    </contour>
    <contour>
      <point x="1068" y="1456" type="line"/>
      <point x="1017" y="1456" type="line"/>
      <point x="1017" y="0" type="line"/>
      <point x="1068" y="0" type="line"/>
    </contour>
    <contour>
      <point x="255" y="1456" type="line"/>
      <point x="255" y="1109" type="line" smooth="yes"/>
      <point x="255" y="783"/>
      <point x="401" y="661"/>
      <point x="662" y="661" type="curve" smooth="yes"/>
      <point x="1036" y="661" type="line"/>
      <point x="1036" y="713" type="line"/>
      <point x="662" y="713" type="line" smooth="yes"/>
      <point x="432" y="713"/>
      <point x="306" y="827"/>
      <point x="306" y="1109" type="curve" smooth="yes"/>
      <point x="306" y="1456" type="line"/>
    </contour>
  </outline>
</glyph>
<glyph name="uni052F" format="2">
  <advance width="964"/>
  <unicode hex="052F"/>
  <anchor x="974" y="1269" name="top0315"/>
  <outline>
    <contour>
      <point x="294" y="1082" type="line"/>
      <point x="277" y="590" type="line" smooth="yes"/>
      <point x="262" y="162"/>
      <point x="207" y="50"/>
      <point x="86" y="50" type="curve" smooth="yes"/>
      <point x="56" y="50" type="line"/>
      <point x="56" y="0" type="line"/>
      <point x="85" y="0" type="line" smooth="yes"/>
      <point x="261" y="0"/>
      <point x="313" y="170"/>
      <point x="329" y="589" type="curve" smooth="yes"/>
      <point x="344" y="1030" type="line"/>
      <point x="775" y="1030" type="line"/>
      <point x="775" y="0" type="line"/>
      <point x="828" y="0" type="line"/>
      <point x="828" y="-352" type="line"/>
      <point x="880" y="-352" type="line"/>
      <point x="880" y="93" type="line"/>
      <point x="829" y="93" type="line"/>
      <point x="829" y="1082" type="line"/>
    </contour>
  </outline>
</glyph>
<glyph name="uni1D09" format="2">
  <advance width="402"/>
  <unicode hex="1D09"/>
  <anchor x="204" y="1290" name="top"/>
  <anchor x="204" y="-447" name="bottom"/>
  <anchor x="383" y="1290" name="top0315"/>
  <anchor x="204" y="1290" name="parent_top"/>
  <outline>
    <contour>
      <point x="151" y="-340" type="curve" smooth="yes"/>
      <point x="151" y="-371"/>
      <point x="172" y="-394"/>
      <point x="201" y="-394" type="curve" smooth="yes"/>
      <point x="228" y="-394"/>
      <point x="251" y="-371"/>
      <point x="251" y="-340" type="curve" smooth="yes"/>
      <point x="251" y="-309"/>
      <point x="228" y="-286"/>
      <point x="201" y="-286" type="curve" smooth="yes"/>
      <point x="172" y="-286"/>
      <point x="151" y="-309"/>
    </contour>
    <contour>
      <point x="227" y="1082" type="line"/>
      <point x="175" y="1082" type="line"/>
      <point x="175" y="0" type="line"/>
      <point x="227" y="0" type="line"/>
    </contour>
  </outline>
</glyph>
<glyph name="uni1D0A" format="2">
  <advance width="839"/>
  <unicode hex="1D0A"/>
  <anchor x="650" y="1290" name="top"/>
  <anchor x="377" y="0" name="bottom"/>
  <anchor x="820" y="1290" name="top0315"/>
  <anchor x="650" y="1290" name="parent_top"/>
  <outline>
    <contour>
      <point x="627" y="335" type="line"/>
      <point x="627" y="147"/>
      <point x="516" y="34"/>
      <point x="378" y="34" type="curve" smooth="yes"/>
      <point x="206" y="34"/>
      <point x="110" y="121"/>
      <point x="110" y="318" type="curve"/>
      <point x="59" y="318" type="line"/>
      <point x="59" y="92"/>
      <point x="188" y="-17"/>
      <point x="378" y="-17" type="curve" smooth="yes"/>
      <point x="549" y="-17"/>
      <point x="679" y="118"/>
      <point x="679" y="335" type="curve" smooth="yes"/>
      <point x="679" y="1082" type="line"/>
      <point x="627" y="1082" type="line"/>
    </contour>
  </outline>
</glyph>
<glyph name="uni1D17" format="2">
  <advance width="977"/>
  <unicode hex="1D17"/>
  <outline>
    <contour>
      <point x="830" y="542" type="line" name="hr00"/>
      <point x="830" y="455" type="line" smooth="yes"/>
      <point x="830" y="172"/>
      <point x="697" y="31"/>
      <point x="487" y="31" type="curve" smooth="yes"/>
      <point x="280" y="31"/>
      <point x="146" y="172"/>
      <point x="146" y="455" type="curve" smooth="yes"/>
      <point x="146" y="542" type="line"/>
      <point x="94" y="542" type="line"/>
      <point x="94" y="456" type="line" smooth="yes"/>
      <point x="94" y="159"/>
      <point x="252" y="-20"/>
      <point x="487" y="-20" type="curve" smooth="yes"/>
      <point x="720" y="-20"/>
      <point x="882" y="159"/>
      <point x="882" y="456" type="curve" smooth="yes"/>
      <point x="882" y="542" type="line"/>
    </contour>
  </outline>
</glyph>
<glyph name="uni1D2F" format="2">
  <advance width="949"/>
  <unicode hex="1D2F"/>
  <outline>
    <contour>
      <point x="896" y="1228" type="line"/>
      <point x="52" y="1228" type="line"/>
      <point x="52" y="1176" type="line"/>
      <point x="896" y="1176" type="line"/>
    </contour>
    <contour>
      <point x="528" y="1176" type="line"/>
      <point x="583" y="1206" type="line"/>
      <point x="701" y="1220"/>
      <point x="768" y="1319"/>
      <point x="768" y="1452" type="curve" smooth="yes"/>
      <point x="768" y="1644"/>
      <point x="652" y="1728"/>
      <point x="467" y="1728" type="curve" smooth="yes"/>
      <point x="222" y="1728" type="line"/>
      <point x="222" y="651" type="line"/>
      <point x="273" y="651" type="line"/>
      <point x="273" y="1677" type="line"/>
      <point x="465" y="1677" type="line" smooth="yes"/>
      <point x="637" y="1677"/>
      <point x="715" y="1609"/>
      <point x="715" y="1452" type="curve" smooth="yes"/>
      <point x="715" y="1294"/>
      <point x="642" y="1228"/>
      <point x="478" y="1228" type="curve" smooth="yes"/>
      <point x="248" y="1228" type="line"/>
      <point x="248" y="1176" type="line"/>
    </contour>
    <contour>
      <point x="523" y="651" type="line"/>
      <point x="692" y="651"/>
      <point x="806" y="756"/>
      <point x="806" y="948" type="curve" smooth="yes"/>
      <point x="806" y="1078"/>
      <point x="720" y="1193"/>
      <point x="603" y="1208" type="curve"/>
      <point x="598" y="1227" type="line"/>
      <point x="381" y="1228" type="line"/>
      <point x="380" y="1176" type="line"/>
      <point x="528" y="1176" type="line" smooth="yes"/>
      <point x="689" y="1176"/>
      <point x="756" y="1063"/>
      <point x="756" y="946" type="curve" smooth="yes"/>
      <point x="756" y="786"/>
      <point x="674" y="703"/>
      <point x="523" y="703" type="curve" smooth="yes"/>
      <point x="270" y="703" type="line"/>
      <point x="242" y="651" type="line"/>
    </contour>
  </outline>
</glyph>
<glyph name="uni1D3D" format="2">
  <advance width="734"/>
  <unicode hex="1D3D"/>
  <outline>
    <contour>
      <point x="87" y="1014" type="line"/>
      <point x="87" y="793"/>
      <point x="201" y="638"/>
      <point x="368" y="638" type="curve" smooth="yes"/>
      <point x="534" y="638"/>
      <point x="647" y="793"/>
      <point x="647" y="1014" type="curve" smooth="yes"/>
      <point x="647" y="1043" type="line" smooth="yes"/>
      <point x="647" y="1261"/>
      <point x="534" y="1422"/>
      <point x="367" y="1422" type="curve" smooth="yes"/>
      <point x="201" y="1422"/>
      <point x="87" y="1261"/>
      <point x="87" y="1043" type="curve" smooth="yes"/>
    </contour>
    <contour>
      <point x="138" y="1043" type="line"/>
      <point x="138" y="1220"/>
      <point x="214" y="1370"/>
      <point x="367" y="1370" type="curve" smooth="yes"/>
      <point x="520" y="1370"/>
      <point x="596" y="1220"/>
      <point x="596" y="1043" type="curve" smooth="yes"/>
      <point x="596" y="1014" type="line" smooth="yes"/>
      <point x="596" y="832"/>
      <point x="514" y="690"/>
      <point x="368" y="690" type="curve" smooth="yes"/>
      <point x="222" y="690"/>
      <point x="138" y="832"/>
      <point x="138" y="1014" type="curve" smooth="yes"/>
    </contour>
    <contour>
      <point x="596" y="1728" type="line"/>
      <point x="596" y="1539"/>
      <point x="518" y="1422"/>
      <point x="368" y="1422" type="curve" smooth="yes"/>
      <point x="214" y="1422"/>
      <point x="138" y="1539"/>
      <point x="138" y="1728" type="curve"/>
      <point x="86" y="1728" type="line"/>
      <point x="86" y="1502"/>
      <point x="200" y="1370"/>
      <point x="368" y="1370" type="curve" smooth="yes"/>
      <point x="534" y="1370"/>
      <point x="645" y="1502"/>
      <point x="645" y="1728" type="curve"/>
    </contour>
  </outline>
</glyph>
<glyph name="uni1D45" format="2">
  <advance width="788"/>
  <unicode hex="1D45"/>
  <outline>
    <contour>
      <point x="86" y="1041" type="line"/>
      <point x="86" y="798"/>
      <point x="181" y="642"/>
      <point x="343" y="642" type="curve" smooth="yes"/>
      <point x="494" y="642"/>
      <point x="582" y="774"/>
      <point x="603" y="921" type="curve"/>
      <point x="603" y="1165" type="line"/>
      <point x="573" y="1338"/>
      <point x="492" y="1473"/>
      <point x="343" y="1473" type="curve" smooth="yes"/>
      <point x="182" y="1473"/>
      <point x="86" y="1309"/>
      <point x="86" y="1058" type="curve" smooth="yes"/>
    </contour>
    <contour>
      <point x="138" y="1058" type="line"/>
      <point x="138" y="1270"/>
      <point x="204" y="1419"/>
      <point x="346" y="1419" type="curve" smooth="yes"/>
      <point x="489" y="1419"/>
      <point x="560" y="1234"/>
      <point x="578" y="1118" type="curve"/>
      <point x="578" y="960" type="line"/>
      <point x="556" y="815"/>
      <point x="476" y="692"/>
      <point x="345" y="692" type="curve" smooth="yes"/>
      <point x="204" y="692"/>
      <point x="138" y="826"/>
      <point x="138" y="1041" type="curve" smooth="yes"/>
    </contour>
    <contour>
      <point x="562" y="1458" type="line"/>
      <point x="559" y="1287" type="line"/>
      <point x="559" y="829" type="line" smooth="yes"/>
      <point x="559" y="683"/>
      <point x="609" y="642"/>
      <point x="687" y="642" type="curve" smooth="yes"/>
      <point x="702" y="642"/>
      <point x="718" y="641"/>
      <point x="734" y="651" type="curve"/>
      <point x="726" y="698" type="line"/>
      <point x="713" y="694"/>
      <point x="704" y="692"/>
      <point x="688" y="692" type="curve" smooth="yes"/>
      <point x="645" y="692"/>
      <point x="612" y="715"/>
      <point x="612" y="844" type="curve" smooth="yes"/>
      <point x="612" y="1458" type="line"/>
    </contour>
  </outline>
</glyph>
<glyph name="uni1D60" format="2">
  <advance width="866"/>
  <unicode hex="1D60"/>
  <outline>
    <contour>
      <point x="404" y="296" type="line"/>
      <point x="456" y="296" type="line"/>
      <point x="456" y="1313" type="line" smooth="yes"/>
      <point x="456" y="1377"/>
      <point x="482" y="1400"/>
      <point x="521" y="1400" type="curve" smooth="yes"/>
      <point x="651" y="1400"/>
      <point x="728" y="1246"/>
      <point x="728" y="1054" type="curve" smooth="yes"/>
      <point x="728" y="860"/>
      <point x="639" y="687"/>
      <point x="431" y="687" type="curve" smooth="yes"/>
      <point x="190" y="687"/>
      <point x="137" y="860"/>
      <point x="137" y="1053" type="curve" smooth="yes"/>
      <point x="137" y="1210"/>
      <point x="193" y="1345"/>
      <point x="281" y="1409" type="curve"/>
      <point x="251" y="1452" type="line"/>
      <point x="161" y="1385"/>
      <point x="86" y="1249"/>
      <point x="86" y="1053" type="curve" smooth="yes"/>
      <point x="86" y="810"/>
      <point x="186" y="635"/>
      <point x="431" y="635" type="curve" smooth="yes"/>
      <point x="663" y="635"/>
      <point x="781" y="833"/>
      <point x="781" y="1054" type="curve" smooth="yes"/>
      <point x="781" y="1289"/>
      <point x="669" y="1452"/>
      <point x="520" y="1452" type="curve" smooth="yes"/>
      <point x="457" y="1452"/>
      <point x="404" y="1408"/>
      <point x="404" y="1315" type="curve" smooth="yes"/>
    </contour>
  </outline>
</glyph>
<glyph name="uni1D68" format="2">
  <advance width="728"/>
  <unicode hex="1D68"/>
  <outline>
    <contour>
      <point x="120" y="-502" type="line"/>
      <point x="171" y="-502" type="line"/>
      <point x="171" y="261" type="line" smooth="yes"/>
      <point x="171" y="417"/>
      <point x="218" y="571"/>
      <point x="386" y="571" type="curve" smooth="yes"/>
      <point x="532" y="571"/>
      <point x="592" y="410"/>
      <point x="592" y="209" type="curve" smooth="yes"/>
      <point x="592" y="192" type="line" smooth="yes"/>
      <point x="592" y="-7"/>
      <point x="532" y="-157"/>
      <point x="386" y="-157" type="curve" smooth="yes"/>
      <point x="246" y="-157"/>
      <point x="168" y="-29"/>
      <point x="145" y="94" type="curve"/>
      <point x="132" y="30" type="line"/>
      <point x="152" y="-94"/>
      <point x="234" y="-209"/>
      <point x="389" y="-209" type="curve" smooth="yes"/>
      <point x="549" y="-209"/>
      <point x="643" y="-53"/>
      <point x="643" y="192" type="curve" smooth="yes"/>
      <point x="643" y="209" type="line" smooth="yes"/>
      <point x="643" y="460"/>
      <point x="549" y="622"/>
      <point x="386" y="622" type="curve" smooth="yes"/>
      <point x="237" y="622"/>
      <point x="120" y="505"/>
      <point x="120" y="277" type="curve" smooth="yes"/>
    </contour>
  </outline>
</glyph>
<glyph name="uni1D6F" format="2">
  <advance width="1667"/>
  <unicode hex="1D6F"/>
  <anchor x="833" y="1290" name="top"/>
  <anchor x="833" y="0" name="bottom"/>
  <anchor x="1648" y="1290" name="top0315"/>
  <anchor x="833" y="1290" name="parent_top"/>
  <outline>
    <contour>
      <point x="1566" y="681" type="line"/>
      <point x="1547" y="597"/>
      <point x="1507" y="539"/>
      <point x="1342" y="539" type="curve" smooth="yes"/>
      <point x="1026" y="539"/>
      <point x="628" y="666"/>
      <point x="331" y="666" type="curve" smooth="yes"/>
      <point x="133" y="666"/>
      <point x="72" y="596"/>
      <point x="52" y="487" type="curve"/>
      <point x="100" y="478" type="line"/>
      <point x="121" y="563"/>
      <point x="159" y="612"/>
      <point x="332" y="612" type="curve" smooth="yes"/>
      <point x="644" y="612"/>
      <point x="1033" y="487"/>
      <point x="1342" y="487" type="curve" smooth="yes"/>
      <point x="1537" y="487"/>
      <point x="1596" y="563"/>
      <point x="1616" y="672" type="curve"/>
    </contour>
    <contour>
      <point x="240" y="850" type="line"/>
      <point x="240" y="1082" type="line"/>
      <point x="187" y="1082" type="line"/>
      <point x="187" y="0" type="line"/>
      <point x="240" y="0" type="line"/>
    </contour>
    <contour>
      <point x="234" y="637" type="line"/>
      <point x="240" y="762"/>
      <point x="328" y="1052"/>
      <point x="555" y="1052" type="curve" smooth="yes"/>
      <point x="700" y="1052"/>
      <point x="805" y="982"/>
      <point x="805" y="721" type="curve"/>
      <point x="805" y="0" type="line"/>
      <point x="857" y="0" type="line"/>
      <point x="857" y="719" type="line"/>
      <point x="857" y="994"/>
      <point x="746" y="1102"/>
      <point x="562" y="1102" type="curve" smooth="yes"/>
      <point x="359" y="1102"/>
      <point x="227" y="906"/>
      <point x="204" y="695" type="curve"/>
    </contour>
    <contour>
      <point x="856" y="722" type="line"/>
      <point x="865" y="835"/>
      <point x="965" y="1049"/>
      <point x="1175" y="1052" type="curve" smooth="yes"/>
      <point x="1320" y="1054"/>
      <point x="1423" y="978"/>
      <point x="1423" y="701" type="curve" smooth="yes"/>
      <point x="1423" y="0" type="line"/>
      <point x="1475" y="0" type="line"/>
      <point x="1475" y="701" type="line" smooth="yes"/>
      <point x="1475" y="989"/>
      <point x="1368" y="1102"/>
      <point x="1180" y="1102" type="curve" smooth="yes"/>
      <point x="979" y="1102"/>
      <point x="843" y="938"/>
      <point x="820" y="756" type="curve"/>
    </contour>
  </outline>
</glyph>
<glyph name="uni1D90" format="2">
  <advance width="1103"/>
  <unicode hex="1D90"/>
  <anchor x="471" y="1290" name="top"/>
  <anchor x="471" y="-447" name="bottom"/>
  <anchor x="1084" y="1290" name="top0315"/>
  <anchor x="471" y="1290" name="parent_top"/>
  <outline>
    <contour>
      <point x="121" y="522" type="line"/>
      <point x="121" y="189"/>
      <point x="248" y="-21"/>
      <point x="466" y="-21" type="curve" smooth="yes"/>
      <point x="674" y="-21"/>
      <point x="789" y="160"/>
      <point x="817" y="361" type="curve"/>
      <point x="817" y="689" type="line"/>
      <point x="777" y="922"/>
      <point x="668" y="1102"/>
      <point x="468" y="1102" type="curve" smooth="yes"/>
      <point x="249" y="1102"/>
      <point x="121" y="884"/>
      <point x="121" y="543" type="curve" smooth="yes"/>
    </contour>
    <contour>
      <point x="176" y="543" type="line"/>
      <point x="176" y="831"/>
      <point x="270" y="1051"/>
      <point x="469" y="1051" type="curve" smooth="yes"/>
      <point x="675" y="1051"/>
      <point x="761" y="810"/>
      <point x="785" y="652" type="curve"/>
      <point x="785" y="386" type="line"/>
      <point x="757" y="189"/>
      <point x="659" y="30"/>
      <point x="468" y="30" type="curve" smooth="yes"/>
      <point x="270" y="30"/>
      <point x="176" y="231"/>
      <point x="176" y="522" type="curve" smooth="yes"/>
    </contour>
    <contour>
      <point x="782" y="1082" type="line"/>
      <point x="775" y="854" type="line"/>
      <point x="775" y="255" type="line" smooth="yes"/>
      <point x="775" y="57"/>
      <point x="825" y="0"/>
      <point x="929" y="0" type="curve" smooth="yes"/>
      <point x="950" y="0"/>
      <point x="961" y="0"/>
      <point x="983" y="-1" type="curve"/>
      <point x="985" y="51" type="line"/>
      <point x="966" y="51"/>
      <point x="951" y="51"/>
      <point x="929" y="51" type="curve" smooth="yes"/>
      <point x="870" y="51"/>
      <point x="829" y="80"/>
      <point x="829" y="255" type="curve" smooth="yes"/>
      <point x="829" y="1082" type="line"/>
    </contour>
    <contour>
      <point x="934" y="51" type="line"/>
      <point x="934" y="-89" type="line" smooth="yes"/>
      <point x="934" y="-313"/>
      <point x="994" y="-437"/>
      <point x="1144" y="-437" type="curve" smooth="yes"/>
      <point x="1177" y="-437"/>
      <point x="1205" y="-429"/>
      <point x="1237" y="-415" type="curve"/>
      <point x="1228" y="-368" type="line"/>
      <point x="1211" y="-375"/>
      <point x="1176" y="-386"/>
      <point x="1145" y="-386" type="curve" smooth="yes"/>
      <point x="1023" y="-386"/>
      <point x="986" y="-276"/>
      <point x="986" y="-89" type="curve" smooth="yes"/>
      <point x="986" y="51" type="line"/>
    </contour>
  </outline>
</glyph>
<glyph name="uni1DA6" format="2">
  <advance width="413"/>
  <unicode hex="1DA6"/>
  <outline>
    <contour>
      <point x="232" y="1515" type="line"/>
      <point x="180" y="1515" type="line"/>
      <point x="180" y="652" type="line"/>
      <point x="232" y="652" type="line"/>
    </contour>
    <contour>
      <point x="350" y="1515" type="line"/>
      <point x="62" y="1515" type="line"/>
      <point x="62" y="1462" type="line"/>
      <point x="350" y="1462" type="line"/>
    </contour>
    <contour>
      <point x="350" y="702" type="line"/>
      <point x="62" y="702" type="line"/>
      <point x="62" y="652" type="line"/>
      <point x="350" y="652" type="line"/>
    </contour>
  </outline>
</glyph>
<glyph name="uni1DAA" format="2">
  <advance width="427"/>
  <unicode hex="1DAA"/>
  <outline>
    <contour>
      <point x="262" y="1805" type="line"/>
      <point x="211" y="1805" type="line"/>
      <point x="211" y="651" type="line"/>
      <point x="262" y="651" type="line"/>
    </contour>
    <contour>
      <point x="251" y="526" type="line"/>
      <point x="251" y="467"/>
      <point x="231" y="434"/>
      <point x="191" y="434" type="curve" smooth="yes"/>
      <point x="171" y="434"/>
      <point x="148" y="435"/>
      <point x="121" y="446" type="curve"/>
      <point x="121" y="397" type="line"/>
      <point x="151" y="389"/>
      <point x="182" y="384"/>
      <point x="206" y="384" type="curve" smooth="yes"/>
      <point x="275" y="384"/>
      <point x="305" y="443"/>
      <point x="305" y="524" type="curve" smooth="yes"/>
      <point x="305" y="703" type="line"/>
      <point x="251" y="703" type="line"/>
    </contour>
  </outline>
</glyph>
<glyph name="uni1DAD" format="2">
  <advance width="1251"/>
  <unicode hex="1DAD"/>
  <outline>
    <contour>
      <point x="1089" y="1031" type="line"/>
      <point x="1089" y="835"/>
      <point x="1001" y="687"/>
      <point x="848" y="687" type="curve" smooth="yes"/>
      <point x="730" y="687"/>
      <point x="651" y="753"/>
      <point x="651" y="941" type="curve" smooth="yes"/>
      <point x="651" y="1458" type="line"/>
      <point x="598" y="1458" type="line"/>
      <point x="598" y="950" type="line" smooth="yes"/>
      <point x="598" y="734"/>
      <point x="696" y="643"/>
      <point x="847" y="643" type="curve" smooth="yes"/>
      <point x="1011" y="643"/>
      <point x="1121" y="807"/>
      <point x="1121" y="1032" type="curve"/>
    </contour>
    <contour>
      <point x="1079" y="384" type="line"/>
      <point x="1131" y="384" type="line"/>
      <point x="1131" y="1458" type="line"/>
      <point x="1079" y="1458" type="line"/>
    </contour>
    <contour>
      <point x="610" y="1031" type="line"/>
      <point x="610" y="835"/>
      <point x="523" y="687"/>
      <point x="371" y="687" type="curve" smooth="yes"/>
      <point x="252" y="687"/>
      <point x="173" y="753"/>
      <point x="173" y="941" type="curve" smooth="yes"/>
      <point x="173" y="1458" type="line"/>
      <point x="120" y="1458" type="line"/>
      <point x="120" y="950" type="line" smooth="yes"/>
      <point x="120" y="734"/>
      <point x="215" y="643"/>
      <point x="368" y="643" type="curve" smooth="yes"/>
      <point x="531" y="643"/>
      <point x="642" y="807"/>
      <point x="642" y="1032" type="curve"/>
    </contour>
  </outline>
</glyph>
<glyph name="uni1DBD" format="2">
  <advance width="718"/>
  <unicode hex="1DBD"/>
  <outline>
    <contour>
      <point x="416" y="703" type="line"/>
      <point x="65" y="703" type="line"/>
      <point x="65" y="651" type="line"/>
      <point x="416" y="651" type="line"/>
    </contour>
    <contour>
      <point x="546" y="1412" type="line"/>
      <point x="546" y="1458" type="line"/>
      <point x="517" y="1458" type="line"/>
      <point x="53" y="695" type="line"/>
      <point x="53" y="651" type="line"/>
      <point x="82" y="651" type="line"/>
    </contour>
    <contour>
      <point x="528" y="1458" type="line"/>
      <point x="71" y="1458" type="line"/>
      <point x="71" y="1405" type="line"/>
      <point x="528" y="1405" type="line"/>
    </contour>
    <contour>
      <point x="374" y="651" type="line"/>
      <point x="484" y="651" type="line" smooth="yes"/>
      <point x="598" y="651"/>
      <point x="667" y="724"/>
      <point x="667" y="833" type="curve" smooth="yes"/>
      <point x="667" y="929"/>
      <point x="600" y="985"/>
      <point x="524" y="985" type="curve" smooth="yes"/>
      <point x="410" y="985"/>
      <point x="341" y="878"/>
      <point x="225" y="675" type="curve"/>
      <point x="158" y="554" type="line"/>
      <point x="199" y="526" type="line"/>
      <point x="276" y="664" type="line"/>
      <point x="385" y="860"/>
      <point x="443" y="933"/>
      <point x="523" y="933" type="curve" smooth="yes"/>
      <point x="585" y="933"/>
      <point x="614" y="887"/>
      <point x="614" y="836" type="curve" smooth="yes"/>
      <point x="614" y="762"/>
      <point x="573" y="703"/>
      <point x="484" y="703" type="curve" smooth="yes"/>
      <point x="374" y="703" type="line"/>
    </contour>
  </outline>
</glyph>
<glyph name="uni1DCF" format="2">
  <unicode hex="1DCF"/>
  <anchor x="-459" y="0" name="_bottom"/>
  <outline>
    <contour>
      <point x="-478" y="-102" type="line"/>
      <point x="-526" y="-102" type="line"/>
      <point x="-589" y="-352" type="line"/>
      <point x="-539" y="-352" type="line"/>
    </contour>
    <contour>
      <point x="-332" y="-302" type="line"/>
      <point x="-380" y="-302" type="line"/>
      <point x="-441" y="-548" type="line"/>
      <point x="-392" y="-548" type="line"/>
    </contour>
    <contour>
      <point x="-559" y="-352" type="line"/>
      <point x="-350" y="-352" type="line"/>
      <point x="-350" y="-352"/>
      <point x="-350" y="-302"/>
      <point x="-350" y="-302" type="curve"/>
      <point x="-350" y="-302"/>
      <point x="-559" y="-302"/>
      <point x="-559" y="-302" type="curve"/>
    </contour>
  </outline>
</glyph>
<glyph name="uni1DD3" format="2">
  <unicode hex="1DD3"/>
  <anchor x="-426" y="1170" name="_top"/>
  <outline>
    <contour>
      <point x="-445" y="1366" type="line"/>
      <point x="-445" y="1275"/>
      <point x="-501" y="1229"/>
      <point x="-577" y="1229" type="curve" smooth="yes"/>
      <point x="-660" y="1229"/>
      <point x="-709" y="1299"/>
      <point x="-709" y="1366" type="curve"/>
      <point x="-748" y="1366" type="line"/>
      <point x="-748" y="1280"/>
      <point x="-680" y="1190"/>
      <point x="-577" y="1190" type="curve" smooth="yes"/>
      <point x="-487" y="1190"/>
      <point x="-408" y="1249"/>
      <point x="-408" y="1366" type="curve"/>
    </contour>
    <contour>
      <point x="-142" y="1366" type="line"/>
      <point x="-142" y="1275"/>
      <point x="-198" y="1229"/>
      <point x="-275" y="1229" type="curve" smooth="yes"/>
      <point x="-358" y="1229"/>
      <point x="-406" y="1299"/>
      <point x="-406" y="1366" type="curve"/>
      <point x="-445" y="1366" type="line"/>
      <point x="-445" y="1280"/>
      <point x="-375" y="1190"/>
      <point x="-275" y="1190" type="curve" smooth="yes"/>
      <point x="-182" y="1190"/>
      <point x="-104" y="1249"/>
      <point x="-104" y="1366" type="curve"/>
    </contour>
  </outline>
</glyph>
<glyph name="uni1DE0" format="2">
  <unicode hex="1DE0"/>
  <anchor x="-460.0" y="1170.0" name="_top"/>
  <outline>
    <contour>
      <point x="-629" y="1627" type="line"/>
      <point x="-630" y="1753" type="line"/>
      <point x="-668" y="1753" type="line"/>
      <point x="-668" y="1201" type="line"/>
      <point x="-629" y="1201" type="line"/>
    </contour>
    <contour>
      <point x="-633" y="1524" type="line"/>
      <point x="-633" y="1630"/>
      <point x="-603" y="1728"/>
      <point x="-481" y="1728" type="curve" smooth="yes"/>
      <point x="-405" y="1728"/>
      <point x="-363" y="1688"/>
      <point x="-363" y="1519" type="curve" smooth="yes"/>
      <point x="-363" y="1201" type="line"/>
      <point x="-324" y="1201" type="line"/>
      <point x="-324" y="1518" type="line" smooth="yes"/>
      <point x="-324" y="1704"/>
      <point x="-378" y="1765"/>
      <point x="-479" y="1765" type="curve" smooth="yes"/>
      <point x="-609" y="1765"/>
      <point x="-664" y="1663"/>
      <point x="-664" y="1528" type="curve"/>
    </contour>
  </outline>
</glyph>
<glyph name="uni1DE8" format="2">
  <unicode hex="1DE8"/>
  <anchor x="-458" y="1170" name="_top"/>
  <outline>
    <contour>
      <point x="-647" y="1203" type="line"/>
      <point x="-608" y="1203" type="line"/>
      <point x="-608" y="1311" type="line"/>
      <point x="-608" y="1998" type="line"/>
      <point x="-647" y="1998" type="line"/>
    </contour>
    <contour>
      <point x="-449" y="1192" type="curve" smooth="yes"/>
      <point x="-331" y="1192"/>
      <point x="-273" y="1304"/>
      <point x="-273" y="1474" type="curve" smooth="yes"/>
      <point x="-273" y="1485" type="line" smooth="yes"/>
      <point x="-273" y="1656"/>
      <point x="-339" y="1759"/>
      <point x="-450" y="1759" type="curve" smooth="yes"/>
      <point x="-553" y="1759"/>
      <point x="-613" y="1685"/>
      <point x="-631" y="1585" type="curve"/>
      <point x="-631" y="1355" type="line"/>
      <point x="-616" y="1270"/>
      <point x="-557" y="1192"/>
    </contour>
    <contour>
      <point x="-451" y="1229" type="curve" smooth="yes"/>
      <point x="-546" y="1229"/>
      <point x="-599" y="1306"/>
      <point x="-616" y="1388" type="curve"/>
      <point x="-616" y="1542" type="line"/>
      <point x="-603" y="1614"/>
      <point x="-558" y="1722"/>
      <point x="-452" y="1722" type="curve" smooth="yes"/>
      <point x="-356" y="1722"/>
      <point x="-311" y="1631"/>
      <point x="-311" y="1485" type="curve" smooth="yes"/>
      <point x="-311" y="1474" type="line" smooth="yes"/>
      <point x="-311" y="1326"/>
      <point x="-356" y="1229"/>
    </contour>
  </outline>
</glyph>
<glyph name="uni1FBE" format="2">
  <advance width="355"/>
  <unicode hex="1FBE"/>
  <outline>
    <contour>
      <point x="120" y="-100" type="line"/>
      <point x="120" y="-373" type="line" smooth="yes"/>
      <point x="120" y="-483"/>
      <point x="150" y="-526"/>
      <point x="218" y="-526" type="curve" smooth="yes"/>
      <point x="234" y="-526"/>
      <point x="252" y="-525"/>
      <point x="270" y="-520" type="curve"/>
      <point x="266" y="-471" type="line"/>
      <point x="250" y="-473"/>
      <point x="237" y="-474"/>
      <point x="219" y="-474" type="curve" smooth="yes"/>
      <point x="186" y="-474"/>
      <point x="172" y="-458"/>
      <point x="172" y="-375" type="curve" smooth="yes"/>
      <point x="172" y="-100" type="line"/>
    </contour>
  </outline>
</glyph>
<glyph name="uni1FC1" format="2">
  <advance width="626"/>
  <unicode hex="1FC1"/>
  <outline>
    <contour>
      <point x="90" y="1338" type="curve" smooth="yes"/>
      <point x="90" y="1310"/>
      <point x="111" y="1286"/>
      <point x="139" y="1286" type="curve" smooth="yes"/>
      <point x="166" y="1286"/>
      <point x="189" y="1310"/>
      <point x="189" y="1338" type="curve" smooth="yes"/>
      <point x="189" y="1370"/>
      <point x="166" y="1394"/>
      <point x="139" y="1394" type="curve" smooth="yes"/>
      <point x="111" y="1394"/>
      <point x="90" y="1370"/>
    </contour>
    <contour>
      <point x="436" y="1338" type="curve" smooth="yes"/>
      <point x="436" y="1310"/>
      <point x="458" y="1286"/>
      <point x="485" y="1286" type="curve" smooth="yes"/>
      <point x="514" y="1286"/>
      <point x="536" y="1310"/>
      <point x="536" y="1338" type="curve" smooth="yes"/>
      <point x="536" y="1371"/>
      <point x="514" y="1394"/>
      <point x="485" y="1394" type="curve" smooth="yes"/>
      <point x="458" y="1394"/>
      <point x="436" y="1371"/>
    </contour>
    <contour>
      <point x="492" y="1614" type="line"/>
      <point x="492" y="1550"/>
      <point x="452" y="1507"/>
      <point x="403" y="1507" type="curve" smooth="yes"/>
      <point x="332" y="1507"/>
      <point x="308" y="1599"/>
      <point x="224" y="1599" type="curve" smooth="yes"/>
      <point x="149" y="1599"/>
      <point x="91" y="1545"/>
      <point x="91" y="1460" type="curve"/>
      <point x="133" y="1452" type="line"/>
      <point x="133" y="1515"/>
      <point x="174" y="1551"/>
      <point x="224" y="1551" type="curve" smooth="yes"/>
      <point x="297" y="1551"/>
      <point x="311" y="1461"/>
      <point x="403" y="1461" type="curve" smooth="yes"/>
      <point x="478" y="1461"/>
      <point x="534" y="1517"/>
      <point x="534" y="1604" type="curve"/>
    </contour>
  </outline>
</glyph>
<glyph name="uni1FED" format="2">
  <advance width="622"/>
  <unicode hex="1FED"/>
  <outline>
    <contour>
      <point x="88" y="1377" type="curve" smooth="yes"/>
      <point x="88" y="1349"/>
      <point x="109" y="1325"/>
      <point x="137" y="1325" type="curve" smooth="yes"/>
      <point x="166" y="1325"/>
      <point x="187" y="1349"/>
      <point x="187" y="1377" type="curve" smooth="yes"/>
      <point x="187" y="1409"/>
      <point x="166" y="1433"/>
      <point x="137" y="1433" type="curve" smooth="yes"/>
      <point x="109" y="1433"/>
      <point x="88" y="1409"/>
    </contour>
    <contour>
      <point x="434" y="1380" type="curve" smooth="yes"/>
      <point x="434" y="1348"/>
      <point x="456" y="1325"/>
      <point x="483" y="1325" type="curve" smooth="yes"/>
      <point x="514" y="1325"/>
      <point x="534" y="1348"/>
      <point x="534" y="1380" type="curve" smooth="yes"/>
      <point x="534" y="1410"/>
      <point x="514" y="1433"/>
      <point x="483" y="1433" type="curve" smooth="yes"/>
      <point x="456" y="1433"/>
      <point x="434" y="1410"/>
    </contour>
    <contour>
      <point x="269" y="1482" type="line"/>
      <point x="210" y="1482" type="line"/>
      <point x="360" y="1271" type="line"/>
      <point x="408" y="1271" type="line"/>
    </contour>
  </outline>
</glyph>
<glyph name="quotesinglbase" format="2">
  <advance width="298"/>
  <unicode hex="201A"/>
  <outline>
    <contour>
      <point x="186" y="230" type="line"/>
      <point x="135" y="230" type="line"/>
      <point x="135" y="100" type="line"/>
      <point x="135" y="-5"/>
      <point x="109" y="-70"/>
      <point x="58" y="-148" type="curve"/>
      <point x="92" y="-180" type="line"/>
      <point x="149" y="-112"/>
      <point x="186" y="-23"/>
      <point x="186" y="100" type="curve"/>
    </contour>
  </outline>
</glyph>
<glyph name="daggerdbl" format="2">
  <advance width="1008"/>
  <unicode hex="2021"/>
  <outline>
    <contour>
      <point x="524" y="1456" type="line"/>
      <point x="470" y="1456" type="line"/>
      <point x="470" y="-416" type="line"/>
      <point x="524" y="-416" type="line"/>
    </contour>
    <contour>
      <point x="927" y="1082" type="line"/>
      <point x="90" y="1082" type="line"/>
      <point x="90" y="1030" type="line"/>
      <point x="927" y="1030" type="line"/>
    </contour>
    <contour>
      <point x="927" y="51" type="line"/>
      <point x="90" y="51" type="line"/>
      <point x="90" y="0" type="line"/>
      <point x="927" y="0" type="line"/>
    </contour>
  </outline>
</glyph>
<glyph name="uni2052" format="2">
  <advance width="745"/>
  <unicode hex="2052"/>
  <outline>
    <contour>
      <point x="656" y="1456" type="line"/>
      <point x="600" y="1456" type="line"/>
      <point x="86" y="-125" type="line"/>
      <point x="141" y="-125" type="line"/>
    </contour>
    <contour>
      <point x="179" y="1082" type="curve" smooth="yes"/>
      <point x="179" y="1052"/>
      <point x="199" y="1028"/>
      <point x="230" y="1028" type="curve" smooth="yes"/>
      <point x="257" y="1028"/>
      <point x="280" y="1052"/>
      <point x="280" y="1082" type="curve" smooth="yes"/>
      <point x="280" y="1112"/>
      <point x="257" y="1136"/>
      <point x="230" y="1136" type="curve" smooth="yes"/>
      <point x="199" y="1136"/>
      <point x="179" y="1112"/>
    </contour>
    <contour>
      <point x="460" y="303" type="curve" smooth="yes"/>
      <point x="460" y="273"/>
      <point x="481" y="250"/>
      <point x="510" y="250" type="curve" smooth="yes"/>
      <point x="537" y="250"/>
      <point x="560" y="273"/>
      <point x="560" y="303" type="curve" smooth="yes"/>
      <point x="560" y="335"/>
      <point x="537" y="358"/>
      <point x="510" y="358" type="curve" smooth="yes"/>
      <point x="481" y="358"/>
      <point x="460" y="335"/>
    </contour>
  </outline>
</glyph>
<glyph name="uni20B9" format="2">
  <advance width="844"/>
  <unicode hex="20B9"/>
  <outline>
    <contour>
      <point x="773" y="1054" type="line"/>
      <point x="88" y="1054" type="line"/>
      <point x="69" y="1002" type="line"/>
      <point x="757" y="1002" type="line"/>
    </contour>
    <contour>
      <point x="609" y="0" type="line"/>
      <point x="666" y="0" type="line"/>
      <point x="666" y="14" type="line"/>
      <point x="249" y="613" type="line"/>
      <point x="501" y="613"/>
      <point x="616" y="821"/>
      <point x="616" y="1028" type="curve" smooth="yes"/>
      <point x="616" y="1298"/>
      <point x="448" y="1456"/>
      <point x="209" y="1456" type="curve" smooth="yes"/>
      <point x="111" y="1456" type="line"/>
      <point x="93" y="1406" type="line"/>
      <point x="209" y="1406" type="line" smooth="yes"/>
      <point x="426" y="1406"/>
      <point x="563" y="1257"/>
      <point x="563" y="1026" type="curve" smooth="yes"/>
      <point x="563" y="844"/>
      <point x="459" y="666"/>
      <point x="249" y="666" type="curve" smooth="yes"/>
      <point x="179" y="666" type="line"/>
      <point x="179" y="611" type="line"/>
    </contour>
    <contour>
      <point x="773" y="1456" type="line"/>
      <point x="97" y="1456" type="line"/>
      <point x="78" y="1406" type="line"/>
      <point x="757" y="1406" type="line"/>
    </contour>
  </outline>
</glyph>
<glyph name="uni20BD" format="2">
  <advance width="1119"/>
  <unicode hex="20BD"/>
  <outline>
    <contour>
      <point x="612" y="615" type="line"/>
      <point x="878" y="615"/>
      <point x="1014" y="777"/>
      <point x="1014" y="1032" type="curve" smooth="yes"/>
      <point x="1014" y="1287"/>
      <point x="876" y="1456"/>
      <point x="612" y="1456" type="curve" smooth="yes"/>
      <point x="223" y="1456" type="line"/>
      <point x="223" y="0" type="line"/>
      <point x="275" y="0" type="line"/>
      <point x="275" y="1406" type="line"/>
      <point x="612" y="1406" type="line" smooth="yes"/>
      <point x="860" y="1406"/>
      <point x="961" y="1238"/>
      <point x="961" y="1030" type="curve" smooth="yes"/>
      <point x="961" y="830"/>
      <point x="857" y="667"/>
      <point x="612" y="667" type="curve" smooth="yes"/>
      <point x="52" y="667" type="line"/>
      <point x="52" y="615" type="line"/>
    </contour>
    <contour>
      <point x="611" y="455" type="line"/>
      <point x="52" y="455" type="line"/>
      <point x="52" y="405" type="line"/>
      <point x="611" y="405" type="line"/>
    </contour>
  </outline>
</glyph>
<glyph name="uni2185" format="2">
  <advance width="1121"/>
  <unicode hex="2185"/>
  <outline>
    <contour>
      <point x="978" y="438" type="line"/>
      <point x="952" y="117"/>
      <point x="816" y="29"/>
      <point x="589" y="29" type="curve" smooth="yes"/>
      <point x="351" y="29"/>
      <point x="201" y="217"/>
      <point x="201" y="562" type="curve" smooth="yes"/>
      <point x="201" y="915" type="line" smooth="yes"/>
      <point x="201" y="1247"/>
      <point x="352" y="1426"/>
      <point x="591" y="1426" type="curve" smooth="yes"/>
      <point x="822" y="1426"/>
      <point x="953" y="1319"/>
      <point x="978" y="1013" type="curve"/>
      <point x="1032" y="1013" type="line"/>
      <point x="1004" y="1361"/>
      <point x="839" y="1476"/>
      <point x="591" y="1476" type="curve" smooth="yes"/>
      <point x="316" y="1476"/>
      <point x="147" y="1272"/>
      <point x="147" y="913" type="curve" smooth="yes"/>
      <point x="147" y="562" type="line" smooth="yes"/>
      <point x="147" y="192"/>
      <point x="317" y="-22"/>
      <point x="589" y="-22" type="curve" smooth="yes"/>
      <point x="834" y="-22"/>
      <point x="999" y="85"/>
      <point x="1028" y="430" type="curve"/>
    </contour>
    <contour>
      <point x="1031" y="444" type="line"/>
      <point x="977" y="444" type="line"/>
      <point x="977" y="-350" type="line"/>
      <point x="1031" y="-350" type="line"/>
    </contour>
  </outline>
</glyph>
<glyph name="arrowup" format="2">
  <advance width="552"/>
  <unicode hex="2191"/>
  <outline>
    <contour>
      <point x="88" y="1157" type="line"/>
      <point x="303" y="1400" type="line"/>
      <point x="281" y="1447" type="line"/>
      <point x="88" y="1232" type="line"/>
    </contour>
    <contour>
      <point x="466" y="1232" type="line"/>
      <point x="281" y="1447" type="line"/>
      <point x="257" y="1399" type="line"/>
      <point x="466" y="1157" type="line"/>
    </contour>
    <contour>
      <point x="252" y="-437" type="line"/>
      <point x="302" y="-437" type="line"/>
      <point x="302" y="1397" type="line"/>
      <point x="252" y="1397" type="line"/>
    </contour>
  </outline>
</glyph>
<glyph name="product" format="2">
  <advance width="1122"/>
  <unicode hex="220F"/>
  <outline>
    <contour>
      <point x="951" y="1456" type="line"/>
      <point x="172" y="1456" type="line"/>
      <point x="172" y="-274" type="line"/>
      <point x="223" y="-274" type="line"/>
      <point x="223" y="1405" type="line"/>
      <point x="899" y="1405" type="line"/>
      <point x="899" y="-274" type="line"/>
      <point x="951" y="-274" type="line"/>
    </contour>
  </outline>
</glyph>
<glyph name="minus" format="2">
  <advance width="1028"/>
  <unicode hex="2212"/>
  <outline>
    <contour>
      <point x="958" y="703" type="line"/>
      <point x="70" y="703" type="line"/>
      <point x="70" y="652" type="line"/>
      <point x="958" y="652" type="line"/>
    </contour>
  </outline>
</glyph>
<glyph name="infinity" format="2">
  <advance width="1919"/>
  <unicode hex="221E"/>
  <outline>
    <contour>
      <point x="137" y="517" type="line"/>
      <point x="137" y="227"/>
      <point x="284" y="-21"/>
      <point x="523" y="-21" type="curve" smooth="yes"/>
      <point x="823" y="-21"/>
      <point x="945" y="415"/>
      <point x="971" y="520" type="curve"/>
      <point x="971" y="562" type="line"/>
      <point x="942" y="674"/>
      <point x="821" y="1102"/>
      <point x="521" y="1102" type="curve" smooth="yes"/>
      <point x="284" y="1102"/>
      <point x="137" y="854"/>
      <point x="137" y="564" type="curve"/>
    </contour>
    <contour>
      <point x="188" y="564" type="line"/>
      <point x="188" y="797"/>
      <point x="299" y="1051"/>
      <point x="521" y="1051" type="curve" smooth="yes"/>
      <point x="812" y="1051"/>
      <point x="918" y="556"/>
      <point x="920" y="562" type="curve"/>
      <point x="920" y="520" type="line"/>
      <point x="918" y="527"/>
      <point x="812" y="30"/>
      <point x="523" y="30" type="curve" smooth="yes"/>
      <point x="299" y="30"/>
      <point x="188" y="282"/>
      <point x="188" y="517" type="curve"/>
    </contour>
    <contour>
      <point x="1770" y="564" type="line"/>
      <point x="1770" y="854"/>
      <point x="1623" y="1102"/>
      <point x="1385" y="1102" type="curve" smooth="yes"/>
      <point x="1085" y="1102"/>
      <point x="960" y="674"/>
      <point x="933" y="562" type="curve"/>
      <point x="933" y="520" type="line"/>
      <point x="958" y="415"/>
      <point x="1082" y="-21"/>
      <point x="1383" y="-21" type="curve" smooth="yes"/>
      <point x="1623" y="-21"/>
      <point x="1770" y="227"/>
      <point x="1770" y="517" type="curve" smooth="yes"/>
    </contour>
    <contour>
      <point x="1718" y="517" type="line"/>
      <point x="1718" y="282"/>
      <point x="1606" y="30"/>
      <point x="1383" y="30" type="curve" smooth="yes"/>
      <point x="1093" y="30"/>
      <point x="985" y="527"/>
      <point x="985" y="520" type="curve"/>
      <point x="985" y="562" type="line"/>
      <point x="985" y="556"/>
      <point x="1093" y="1051"/>
      <point x="1385" y="1051" type="curve" smooth="yes"/>
      <point x="1606" y="1051"/>
      <point x="1718" y="797"/>
      <point x="1718" y="564" type="curve" smooth="yes"/>
    </contour>
  </outline>
</glyph>
<glyph name="approxequal" format="2">
  <advance width="1016"/>
  <unicode hex="2248"/>
  <outline>
    <contour>
      <point x="151" y="798" type="line"/>
      <point x="205" y="889"/>
      <point x="249" y="934"/>
      <point x="323" y="934" type="curve" smooth="yes"/>
      <point x="412" y="934.0"/>
      <point x="451" y="888"/>
      <point x="522" y="846" type="curve" smooth="yes"/>
      <point x="589" y="806"/>
      <point x="623" y="778"/>
      <point x="707" y="778" type="curve" smooth="yes"/>
      <point x="781" y="778"/>
      <point x="858" y="832"/>
      <point x="911" y="925" type="curve"/>
      <point x="873" y="952" type="line"/>
      <point x="824" y="868"/>
      <point x="780" y="828"/>
      <point x="706" y="828" type="curve" smooth="yes"/>
      <point x="622" y="828"/>
      <point x="584" y="870"/>
      <point x="518" y="910" type="curve" smooth="yes"/>
      <point x="446" y="952"/>
      <point x="409" y="986"/>
      <point x="318" y="984" type="curve" smooth="yes"/>
      <point x="244" y="983"/>
      <point x="167" y="919"/>
      <point x="113" y="829" type="curve"/>
    </contour>
    <contour>
      <point x="140" y="411" type="line"/>
      <point x="193" y="501"/>
      <point x="238" y="541"/>
      <point x="311" y="541" type="curve" smooth="yes"/>
      <point x="401" y="541.0"/>
      <point x="441" y="501"/>
      <point x="512" y="459" type="curve" smooth="yes"/>
      <point x="580" y="419"/>
      <point x="614" y="390"/>
      <point x="700" y="390" type="curve" smooth="yes"/>
      <point x="773" y="390"/>
      <point x="849" y="446"/>
      <point x="903" y="538" type="curve"/>
      <point x="866" y="569" type="line"/>
      <point x="812" y="477"/>
      <point x="771" y="441"/>
      <point x="697" y="441" type="curve" smooth="yes"/>
      <point x="614" y="441"/>
      <point x="578" y="480"/>
      <point x="509" y="520" type="curve" smooth="yes"/>
      <point x="439" y="562"/>
      <point x="401" y="595"/>
      <point x="311" y="593" type="curve" smooth="yes"/>
      <point x="237" y="592"/>
      <point x="158" y="530"/>
      <point x="105" y="439" type="curve"/>
    </contour>
  </outline>
</glyph>
<glyph name="notequal" format="2">
  <advance width="1005"/>
  <unicode hex="2260"/>
  <outline>
    <contour>
      <point x="757" y="1154" type="line"/>
      <point x="715" y="1177" type="line"/>
      <point x="230" y="175" type="line"/>
      <point x="273" y="151" type="line"/>
    </contour>
    <contour>
      <point x="857" y="895" type="line"/>
      <point x="149" y="895" type="line"/>
      <point x="149" y="843" type="line"/>
      <point x="857" y="843" type="line"/>
    </contour>
    <contour>
      <point x="857" y="488" type="line"/>
      <point x="149" y="488" type="line"/>
      <point x="149" y="437" type="line"/>
      <point x="857" y="437" type="line"/>
    </contour>
  </outline>
</glyph>
<glyph name="greaterequal" format="2">
  <advance width="933"/>
  <unicode hex="2265"/>
  <outline>
    <contour>
      <point x="814" y="692" type="line"/>
      <point x="849" y="694" type="line"/>
      <point x="849" y="733" type="line"/>
      <point x="90" y="1063" type="line"/>
      <point x="90" y="1009" type="line"/>
    </contour>
    <contour>
      <point x="90" y="417" type="line"/>
      <point x="90" y="361" type="line"/>
      <point x="849" y="687" type="line"/>
      <point x="849" y="727" type="line"/>
      <point x="815" y="730" type="line"/>
    </contour>
    <contour>
      <point x="841" y="129" type="line"/>
      <point x="84" y="129" type="line"/>
      <point x="84" y="78" type="line"/>
      <point x="841" y="78" type="line"/>
    </contour>
  </outline>
</glyph>
<glyph name="uni27E8" format="2">
  <advance width="607"/>
  <unicode hex="27E8"/>
  <outline>
    <contour>
      <point x="442" y="1674" type="line"/>
      <point x="103" y="676" type="line"/>
      <point x="442" y="-322" type="line"/>
      <point x="488" y="-303" type="line"/>
      <point x="158" y="676" type="line"/>
      <point x="488" y="1655" type="line"/>
    </contour>
  </outline>
</glyph>
<glyph name="uni27E9" format="2">
  <advance width="607"/>
  <unicode hex="27E9"/>
  <outline>
    <contour>
      <point x="168" y="1674" type="line"/>
      <point x="507" y="676" type="line"/>
      <point x="168" y="-322" type="line"/>
      <point x="119" y="-303" type="line"/>
      <point x="452" y="676" type="line"/>
      <point x="119" y="1655" type="line"/>
    </contour>
  </outline>
</glyph>
<glyph name="uni27ED" format="2">
  <advance width="612"/>
  <unicode hex="27ED"/>
  <outline>
    <contour>
      <point x="373" y="-7" type="line"/>
      <point x="118" y="-302" type="line"/>
      <point x="152" y="-337" type="line"/>
      <point x="424" y="-22" type="line"/>
      <point x="424" y="1374" type="line"/>
      <point x="152" y="1687" type="line"/>
      <point x="118" y="1653" type="line"/>
      <point x="373" y="1359" type="line"/>
    </contour>
    <contour>
      <point x="275" y="-177" type="line"/>
      <point x="275" y="1518" type="line"/>
      <point x="223" y="1559" type="line"/>
      <point x="223" y="-218" type="line"/>
    </contour>
  </outline>
</glyph>
<glyph name="uni2B4E" format="2">
  <advance width="687"/>
  <unicode hex="2B4E"/>
  <outline>
    <contour>
      <point x="189" y="0" type="line"/>
      <point x="426" y="1035" type="line"/>
      <point x="378" y="1049" type="line"/>
      <point x="140" y="0" type="line"/>
    </contour>
    <contour>
      <point x="87" y="818" type="line"/>
      <point x="430" y="1048" type="line"/>
      <point x="418" y="1101" type="line"/>
      <point x="104" y="889" type="line"/>
    </contour>
    <contour>
      <point x="600" y="732" type="line"/>
      <point x="418" y="1101" type="line"/>
      <point x="383" y="1060" type="line"/>
      <point x="581" y="661" type="line"/>
    </contour>
  </outline>
</glyph>
<glyph name="uni2C6B" format="2">
  <advance width="1077"/>
  <unicode hex="2C6B"/>
  <outline>
    <contour>
      <point x="978" y="51" type="line"/>
      <point x="925" y="51" type="line"/>
      <point x="925" y="-348" type="line"/>
      <point x="978" y="-348" type="line"/>
    </contour>
    <contour>
      <point x="978" y="51" type="line"/>
      <point x="116" y="51" type="line"/>
      <point x="116" y="0" type="line"/>
      <point x="978" y="0" type="line"/>
    </contour>
    <contour>
      <point x="950" y="1422" type="line"/>
      <point x="950" y="1456" type="line"/>
      <point x="914" y="1456" type="line"/>
      <point x="97" y="41" type="line"/>
      <point x="97" y="0" type="line"/>
      <point x="133" y="0" type="line"/>
    </contour>
    <contour>
      <point x="927" y="1456" type="line"/>
      <point x="130" y="1456" type="line"/>
      <point x="130" y="1406" type="line"/>
      <point x="927" y="1406" type="line"/>
    </contour>
  </outline>
</glyph>
<glyph name="uni2C78" format="2">
  <advance width="1089"/>
  <unicode hex="2C78"/>
  <outline>
    <contour>
      <point x="777" y="140" type="line"/>
      <point x="792" y="37"/>
      <point x="849" y="-20"/>
      <point x="945" y="-20" type="curve" smooth="yes"/>
      <point x="1027" y="-20"/>
      <point x="1071" y="41"/>
      <point x="1107" y="152" type="curve"/>
      <point x="1107" y="152"/>
      <point x="1065" y="194"/>
      <point x="1065" y="194" type="curve"/>
      <point x="1049" y="129"/>
      <point x="1010" y="30"/>
      <point x="945" y="30" type="curve" smooth="yes"/>
      <point x="882" y="30"/>
      <point x="846" y="55"/>
      <point x="828" y="127" type="curve"/>
    </contour>
    <contour>
      <point x="505" y="-22" type="curve"/>
      <point x="654" y="-22"/>
      <point x="746" y="32"/>
      <point x="805" y="109" type="curve"/>
      <point x="777" y="140" type="line"/>
      <point x="703" y="54"/>
      <point x="613" y="30"/>
      <point x="506" y="30" type="curve" smooth="yes"/>
      <point x="305" y="30"/>
      <point x="155" y="183"/>
      <point x="155" y="480" type="curve" smooth="yes"/>
      <point x="155" y="602" type="line" smooth="yes"/>
      <point x="155" y="891"/>
      <point x="290" y="1051"/>
      <point x="490" y="1051" type="curve"/>
      <point x="671" y="1051"/>
      <point x="788" y="919"/>
      <point x="787" y="661" type="curve"/>
      <point x="787" y="631" type="line"/>
      <point x="137" y="631" type="line"/>
      <point x="137" y="580" type="line"/>
      <point x="839" y="580" type="line"/>
      <point x="839" y="660" type="line" smooth="yes"/>
      <point x="839" y="976"/>
      <point x="697" y="1102"/>
      <point x="490" y="1102" type="curve" smooth="yes"/>
      <point x="277" y="1102"/>
      <point x="103" y="939"/>
      <point x="103" y="602" type="curve" smooth="yes"/>
      <point x="103" y="480" type="line" smooth="yes"/>
      <point x="103" y="143"/>
      <point x="280" y="-22"/>
    </contour>
  </outline>
</glyph>
<glyph name="uni2DE4" format="2">
  <unicode hex="2DE4"/>
  <anchor x="-460" y="1170" name="_top"/>
  <outline>
    <contour>
      <point x="-558" y="1466" type="line"/>
      <point x="-464" y="1466" type="line"/>
      <point x="-463" y="1501" type="line"/>
      <point x="-544" y="1501" type="line"/>
      <point x="-709" y="1755" type="line"/>
      <point x="-760" y="1755" type="line"/>
    </contour>
    <contour>
      <point x="-539" y="1467" type="line"/>
      <point x="-555" y="1503" type="line"/>
      <point x="-785" y="1203" type="line"/>
      <point x="-734" y="1203" type="line"/>
    </contour>
    <contour>
      <point x="-442" y="1755" type="line"/>
      <point x="-480" y="1755" type="line"/>
      <point x="-480" y="1203" type="line"/>
      <point x="-442" y="1203" type="line"/>
    </contour>
    <contour>
      <point x="-157" y="1755" type="line"/>
      <point x="-209" y="1755" type="line"/>
      <point x="-375" y="1501" type="line"/>
      <point x="-458" y="1501" type="line"/>
      <point x="-457" y="1466" type="line"/>
      <point x="-362" y="1466" type="line"/>
    </contour>
    <contour>
      <point x="-184" y="1203" type="line"/>
      <point x="-134" y="1203" type="line"/>
      <point x="-365" y="1503" type="line"/>
      <point x="-381" y="1467" type="line"/>
    </contour>
  </outline>
</glyph>
<glyph name="uni2DE6" format="2">
  <unicode hex="2DE6"/>
  <anchor x="-458" y="1170" name="_top"/>
  <outline>
    <contour>
      <point x="-602" y="1755" type="line"/>
      <point x="-641" y="1755" type="line"/>
      <point x="-641" y="1203" type="line"/>
      <point x="-602" y="1203" type="line"/>
    </contour>
    <contour>
      <point x="-305" y="1755" type="line"/>
      <point x="-352" y="1755" type="line"/>
      <point x="-523" y="1507" type="line"/>
      <point x="-614" y="1507" type="line"/>
      <point x="-612" y="1470" type="line"/>
      <point x="-509" y="1470" type="line"/>
    </contour>
    <contour>
      <point x="-331" y="1203" type="line"/>
      <point x="-275" y="1203" type="line"/>
      <point x="-508" y="1510" type="line"/>
      <point x="-538" y="1486" type="line"/>
    </contour>
  </outline>
</glyph>
<glyph name="uni2DE9" format="2">
  <unicode hex="2DE9"/>
  <anchor x="-460" y="1170" name="_top"/>
  <outline>
    <contour>
      <point x="-308" y="1507" type="line"/>
      <point x="-610" y="1507" type="line"/>
      <point x="-610" y="1469" type="line"/>
      <point x="-308" y="1469" type="line"/>
    </contour>
    <contour>
      <point x="-592" y="1755" type="line"/>
      <point x="-629" y="1755" type="line"/>
      <point x="-629" y="1203" type="line"/>
      <point x="-592" y="1203" type="line"/>
    </contour>
    <contour>
      <point x="-289" y="1755" type="line"/>
      <point x="-326" y="1755" type="line"/>
      <point x="-326" y="1203" type="line"/>
      <point x="-289" y="1203" type="line"/>
    </contour>
  </outline>
</glyph>
<glyph name="uni2DFD" format="2">
  <unicode hex="2DFD"/>
  <anchor x="-458" y="1170" name="_top"/>
  <outline>
    <contour>
      <point x="-481" y="1639" type="line"/>
      <point x="-441" y="1755" type="line"/>
      <point x="-478" y="1755" type="line"/>
      <point x="-671" y="1203" type="line"/>
      <point x="-630" y="1203" type="line"/>
    </contour>
    <contour>
      <point x="-287" y="1203" type="line"/>
      <point x="-246" y="1203" type="line"/>
      <point x="-441" y="1755" type="line"/>
      <point x="-476" y="1755" type="line"/>
      <point x="-438" y="1639" type="line"/>
    </contour>
    <contour>
      <point x="-338" y="1432" type="line"/>
      <point x="-580" y="1432" type="line"/>
      <point x="-580" y="1392" type="line"/>
      <point x="-338" y="1392" type="line"/>
    </contour>
    <contour>
      <point x="-440" y="1420" type="line"/>
      <point x="-477" y="1420" type="line"/>
      <point x="-477" y="1203" type="line"/>
      <point x="-440" y="1203" type="line"/>
    </contour>
  </outline>
</glyph>
<glyph name="uni2DFE" format="2">
  <unicode hex="2DFE"/>
  <anchor x="-461" y="1170" name="_top"/>
  <outline>
    <contour>
      <point x="-291" y="1755" type="line"/>
      <point x="-457" y="1521" type="line"/>
      <point x="-471" y="1464" type="line"/>
      <point x="-449" y="1467" type="line"/>
      <point x="-238" y="1755" type="line"/>
    </contour>
    <contour>
      <point x="-680" y="1755" type="line"/>
      <point x="-468" y="1467" type="line"/>
      <point x="-446" y="1467" type="line"/>
      <point x="-462" y="1520" type="line"/>
      <point x="-628" y="1755" type="line"/>
    </contour>
    <contour>
      <point x="-478" y="1203" type="line"/>
      <point x="-439" y="1203" type="line"/>
      <point x="-439" y="1494" type="line"/>
      <point x="-478" y="1494" type="line"/>
    </contour>
    <contour>
      <point x="-635" y="1755" type="line"/>
      <point x="-625" y="1715" type="line"/>
      <point x="-295" y="1715" type="line"/>
      <point x="-286" y="1755" type="line"/>
    </contour>
    <contour>
      <point x="-661" y="1203" type="line"/>
      <point x="-661" y="1309" type="line" smooth="yes"/>
      <point x="-661" y="1423"/>
      <point x="-615" y="1466"/>
      <point x="-512" y="1466" type="curve" smooth="yes"/>
      <point x="-406" y="1466" type="line" smooth="yes"/>
      <point x="-304" y="1466"/>
      <point x="-258" y="1423"/>
      <point x="-258" y="1309" type="curve" smooth="yes"/>
      <point x="-258" y="1203" type="line"/>
      <point x="-220" y="1203" type="line"/>
      <point x="-220" y="1309" type="line" smooth="yes"/>
      <point x="-220" y="1451"/>
      <point x="-294" y="1503"/>
      <point x="-406" y="1503" type="curve" smooth="yes"/>
      <point x="-512" y="1503" type="line" smooth="yes"/>
      <point x="-624" y="1503"/>
      <point x="-698" y="1451"/>
      <point x="-698" y="1309" type="curve" smooth="yes"/>
      <point x="-698" y="1203" type="line"/>
    </contour>
  </outline>
</glyph>
<glyph name="uni2E00" format="2">
  <advance width="653"/>
  <unicode hex="2E00"/>
  <outline>
    <contour>
      <point x="566" y="1451" type="line"/>
      <point x="109" y="1451" type="line"/>
      <point x="109" y="1400" type="line"/>
      <point x="566" y="1400" type="line"/>
    </contour>
    <contour>
      <point x="136" y="1451" type="line"/>
      <point x="87" y="1451" type="line"/>
      <point x="87" y="651" type="line"/>
      <point x="136" y="651" type="line"/>
    </contour>
  </outline>
</glyph>
<glyph name="uni2E14" format="2">
  <advance width="1127"/>
  <unicode hex="2E14"/>
  <outline>
    <contour>
      <point x="567" y="143" type="line"/>
      <point x="496" y="-6"/>
      <point x="396" y="13"/>
      <point x="279" y="94" type="curve" smooth="yes"/>
      <point x="160" y="175"/>
      <point x="97" y="268"/>
      <point x="168" y="421" type="curve"/>
      <point x="126" y="444" type="line"/>
      <point x="55" y="298"/>
      <point x="75" y="173"/>
      <point x="255" y="52" type="curve" smooth="yes"/>
      <point x="433" y="-71"/>
      <point x="537" y="-26"/>
      <point x="610" y="120" type="curve"/>
    </contour>
    <contour>
      <point x="1041" y="1491" type="line"/>
      <point x="1000" y="1517" type="line"/>
      <point x="248" y="89" type="line"/>
      <point x="288" y="62" type="line"/>
    </contour>
  </outline>
</glyph>
<glyph name="uni2E38" format="2">
  <advance width="949"/>
  <unicode hex="2E38"/>
  <outline>
    <contour>
      <point x="505" y="0" type="line"/>
      <point x="454" y="0" type="line"/>
      <point x="454" y="1456" type="line"/>
      <point x="505" y="1456" type="line"/>
    </contour>
    <contour>
      <point x="895" y="374" type="line"/>
      <point x="56" y="374" type="line"/>
      <point x="56" y="428" type="line"/>
      <point x="895" y="428" type="line"/>
    </contour>
  </outline>
</glyph>
<glyph name="uniA640" format="2">
  <advance width="1077"/>
  <unicode hex="A640"/>
  <outline>
    <contour>
      <point x="261" y="-329" type="line"/>
      <point x="329" y="-244"/>
      <point x="375" y="-201"/>
      <point x="445" y="-201" type="curve" smooth="yes"/>
      <point x="557" y="-201"/>
      <point x="654" y="-319"/>
      <point x="778" y="-319" type="curve" smooth="yes"/>
      <point x="924" y="-319"/>
      <point x="978" y="-187"/>
      <point x="978" y="2" type="curve"/>
      <point x="978" y="2"/>
      <point x="928" y="2"/>
      <point x="928" y="2" type="curve"/>
      <point x="928" y="-212"/>
      <point x="854" y="-268"/>
      <point x="778" y="-268" type="curve" smooth="yes"/>
      <point x="674" y="-268"/>
      <point x="566" y="-150"/>
      <point x="445" y="-150" type="curve" smooth="yes"/>
      <point x="360" y="-150"/>
      <point x="290" y="-207"/>
      <point x="223" y="-294" type="curve"/>
    </contour>
    <contour>
      <point x="978" y="51" type="line"/>
      <point x="116" y="51" type="line"/>
      <point x="116" y="0" type="line"/>
      <point x="978" y="0" type="line"/>
    </contour>
    <contour>
      <point x="950" y="1422" type="line"/>
      <point x="950" y="1456" type="line"/>
      <point x="914" y="1456" type="line"/>
      <point x="97" y="41" type="line"/>
      <point x="97" y="0" type="line"/>
      <point x="133" y="0" type="line"/>
    </contour>
    <contour>
      <point x="927" y="1456" type="line"/>
      <point x="130" y="1456" type="line"/>
      <point x="130" y="1406" type="line"/>
      <point x="927" y="1406" type="line"/>
    </contour>
  </outline>
</glyph>
<glyph name="uniA64D" format="2">
  <advance width="1561"/>
  <unicode hex="A64D"/>
  <outline>
    <contour>
      <point x="491" y="30" type="curve" smooth="yes"/>
      <point x="263" y="30"/>
      <point x="156" y="280"/>
      <point x="156" y="520" type="curve" smooth="yes"/>
      <point x="156" y="562" type="line" smooth="yes"/>
      <point x="156" y="800"/>
      <point x="249" y="1051"/>
      <point x="472" y="1051" type="curve"/>
      <point x="472" y="1102" type="line"/>
      <point x="235" y="1102"/>
      <point x="104" y="850"/>
      <point x="104" y="562" type="curve" smooth="yes"/>
      <point x="104" y="520" type="line" smooth="yes"/>
      <point x="104" y="232"/>
      <point x="241" y="-21"/>
      <point x="491" y="-21" type="curve" smooth="yes"/>
      <point x="671" y="-21"/>
      <point x="807" y="83"/>
      <point x="807" y="301" type="curve" smooth="yes"/>
      <point x="807" y="619" type="line"/>
      <point x="754" y="619" type="line"/>
      <point x="754" y="301" type="line" smooth="yes"/>
      <point x="754" y="157"/>
      <point x="688" y="30"/>
    </contour>
    <contour>
      <point x="1071" y="30" type="curve" smooth="yes"/>
      <point x="872" y="30"/>
      <point x="807" y="157"/>
      <point x="807" y="301" type="curve" smooth="yes"/>
      <point x="807" y="619" type="line"/>
      <point x="754" y="619" type="line"/>
      <point x="754" y="301" type="line" smooth="yes"/>
      <point x="754" y="83"/>
      <point x="891" y="-21"/>
      <point x="1071" y="-21" type="curve" smooth="yes"/>
      <point x="1320" y="-21"/>
      <point x="1459" y="232"/>
      <point x="1459" y="520" type="curve" smooth="yes"/>
      <point x="1459" y="562" type="line" smooth="yes"/>
      <point x="1459" y="850"/>
      <point x="1325" y="1102"/>
      <point x="1089" y="1102" type="curve"/>
      <point x="1089" y="1051" type="line"/>
      <point x="1312" y="1051"/>
      <point x="1407" y="800"/>
      <point x="1407" y="562" type="curve" smooth="yes"/>
      <point x="1407" y="520" type="line" smooth="yes"/>
      <point x="1407" y="280"/>
      <point x="1297" y="30"/>
    </contour>
  </outline>
</glyph>
<glyph name="uniA656" format="2">
  <advance width="1391"/>
  <unicode hex="A656"/>
  <outline>
    <contour>
      <point x="537" y="486" type="line"/>
      <point x="208" y="486" type="line"/>
      <point x="208" y="436" type="line"/>
      <point x="537" y="436" type="line"/>
    </contour>
    <contour>
      <point x="241" y="1456" type="line"/>
      <point x="187" y="1456" type="line"/>
      <point x="187" y="0" type="line"/>
      <point x="241" y="0" type="line"/>
    </contour>
    <contour>
      <point x="857" y="1413" type="line"/>
      <point x="867" y="1456" type="line"/>
      <point x="820" y="1456" type="line"/>
      <point x="355" y="0" type="line"/>
      <point x="412" y="0" type="line"/>
    </contour>
    <contour>
      <point x="1286" y="0" type="line"/>
      <point x="1343" y="0" type="line"/>
      <point x="880" y="1456" type="line"/>
      <point x="834" y="1456" type="line"/>
      <point x="842" y="1413" type="line"/>
    </contour>
    <contour>
      <point x="1162" y="486" type="line"/>
      <point x="539" y="486" type="line"/>
      <point x="539" y="436" type="line"/>
      <point x="1162" y="436" type="line"/>
    </contour>
  </outline>
</glyph>
<glyph name="uniA657" format="2">
  <advance width="1257"/>
  <unicode hex="A657"/>
  <outline>
    <contour>
      <point x="430" y="306" type="line"/>
      <point x="197" y="306" type="line"/>
      <point x="197" y="256" type="line"/>
      <point x="430" y="256" type="line"/>
    </contour>
    <contour>
      <point x="216" y="1082" type="line"/>
      <point x="163" y="1082" type="line"/>
      <point x="163" y="0" type="line"/>
      <point x="216" y="0" type="line"/>
    </contour>
    <contour>
      <point x="1039" y="204" type="line"/>
      <point x="1039" y="133"/>
      <point x="1045" y="52"/>
      <point x="1055" y="0" type="curve"/>
      <point x="1115" y="0" type="line"/>
      <point x="1115" y="9" type="line"/>
      <point x="1099" y="53"/>
      <point x="1092" y="138"/>
      <point x="1092" y="217" type="curve" smooth="yes"/>
      <point x="1092" y="789" type="line"/>
      <point x="1092" y="1016"/>
      <point x="955" y="1102"/>
      <point x="764" y="1102" type="curve" smooth="yes"/>
      <point x="566" y="1102"/>
      <point x="423" y="966"/>
      <point x="423" y="787" type="curve"/>
      <point x="476" y="784" type="line"/>
      <point x="476" y="948"/>
      <point x="600" y="1051"/>
      <point x="763" y="1051" type="curve" smooth="yes"/>
      <point x="940" y="1051"/>
      <point x="1039" y="972"/>
      <point x="1039" y="791" type="curve"/>
    </contour>
    <contour>
      <point x="1060" y="603" type="line"/>
      <point x="800" y="603" type="line"/>
      <point x="536" y="603"/>
      <point x="399" y="466"/>
      <point x="399" y="274" type="curve" smooth="yes"/>
      <point x="399" y="76"/>
      <point x="510" y="-22"/>
      <point x="682" y="-22" type="curve" smooth="yes"/>
      <point x="910" y="-22"/>
      <point x="1035" y="130"/>
      <point x="1075" y="269" type="curve"/>
      <point x="1054" y="318" type="line"/>
      <point x="1002" y="142"/>
      <point x="874" y="30"/>
      <point x="685" y="30" type="curve" smooth="yes"/>
      <point x="546" y="30"/>
      <point x="452" y="111"/>
      <point x="452" y="269" type="curve" smooth="yes"/>
      <point x="452" y="432"/>
      <point x="557" y="550"/>
      <point x="803" y="550" type="curve"/>
      <point x="1059" y="550" type="line"/>
    </contour>
  </outline>
</glyph>
<glyph name="uniA65F" format="2">
  <advance width="878"/>
  <unicode hex="A65F"/>
  <outline>
    <contour>
      <point x="822" y="0" type="line"/>
      <point x="766" y="0" type="line"/>
      <point x="482" y="850" type="line"/>
      <point x="416" y="1082" type="line"/>
      <point x="463" y="1082" type="line"/>
    </contour>
    <contour>
      <point x="105" y="-20" type="curve"/>
      <point x="65" y="14" type="line"/>
      <point x="351" y="359"/>
      <point x="359" y="729"/>
      <point x="414" y="1082" type="curve"/>
      <point x="461" y="1082" type="line"/>
      <point x="445" y="997" type="line"/>
      <point x="399" y="712"/>
      <point x="400" y="350"/>
    </contour>
    <contour>
      <point x="478" y="-416" type="line"/>
      <point x="427" y="-416" type="line"/>
      <point x="427" y="1018" type="line"/>
      <point x="478" y="1018" type="line"/>
    </contour>
  </outline>
</glyph>
<glyph name="uniA683" format="2">
  <advance width="905"/>
  <unicode hex="A683"/>
  <outline>
    <contour>
      <point x="725" y="-78" type="curve" smooth="yes"/>
      <point x="725" y="-255"/>
      <point x="647" y="-386"/>
      <point x="453" y="-386" type="curve" smooth="yes"/>
      <point x="321" y="-386"/>
      <point x="169" y="-329"/>
      <point x="159" y="-143" type="curve"/>
      <point x="107" y="-143" type="line"/>
      <point x="107" y="-302"/>
      <point x="228" y="-437"/>
      <point x="453" y="-437" type="curve" smooth="yes"/>
      <point x="667" y="-437"/>
      <point x="776" y="-290"/>
      <point x="776" y="-78" type="curve" smooth="yes"/>
      <point x="776" y="141"/>
      <point x="647" y="265"/>
      <point x="470" y="381" type="curve" smooth="yes"/>
      <point x="271" y="517"/>
      <point x="188" y="611"/>
      <point x="188" y="773" type="curve" smooth="yes"/>
      <point x="188" y="924"/>
      <point x="263" y="1051"/>
      <point x="445" y="1051" type="curve" smooth="yes"/>
      <point x="624" y="1051"/>
      <point x="722" y="929"/>
      <point x="722" y="793" type="curve"/>
      <point x="775" y="793" type="line"/>
      <point x="775" y="977"/>
      <point x="650" y="1102"/>
      <point x="445" y="1102" type="curve" smooth="yes"/>
      <point x="253" y="1102"/>
      <point x="137" y="965"/>
      <point x="137" y="773" type="curve" smooth="yes"/>
      <point x="137" y="559"/>
      <point x="272" y="445"/>
      <point x="448" y="335" type="curve" smooth="yes"/>
      <point x="634" y="215"/>
      <point x="725" y="78"/>
    </contour>
  </outline>
</glyph>
<glyph name="uniA695" format="2">
  <advance width="989"/>
  <unicode hex="A695"/>
  <outline>
    <contour>
      <point x="215" y="1058" type="line"/>
      <point x="163" y="1058" type="line"/>
      <point x="163" y="0" type="line"/>
      <point x="215" y="0" type="line"/>
    </contour>
    <contour>
      <point x="205" y="637" type="line"/>
      <point x="212" y="762"/>
      <point x="306" y="1052"/>
      <point x="531" y="1052" type="curve" smooth="yes"/>
      <point x="677" y="1052"/>
      <point x="776" y="971"/>
      <point x="776" y="659" type="curve" smooth="yes"/>
      <point x="776" y="0" type="line"/>
      <point x="829" y="0" type="line"/>
      <point x="829" y="659" type="line" smooth="yes"/>
      <point x="829" y="975"/>
      <point x="723" y="1102"/>
      <point x="538" y="1102" type="curve" smooth="yes"/>
      <point x="336" y="1102"/>
      <point x="200" y="906"/>
      <point x="177" y="695" type="curve"/>
    </contour>
    <contour>
      <point x="215" y="830" type="line"/>
      <point x="215" y="1125" type="line" smooth="yes"/>
      <point x="215" y="1316"/>
      <point x="252" y="1423"/>
      <point x="373" y="1423" type="curve" smooth="yes"/>
      <point x="404" y="1423"/>
      <point x="440" y="1414"/>
      <point x="459" y="1405" type="curve"/>
      <point x="467" y="1454" type="line"/>
      <point x="436" y="1467"/>
      <point x="407" y="1473"/>
      <point x="373" y="1473" type="curve" smooth="yes"/>
      <point x="221" y="1473"/>
      <point x="163" y="1350"/>
      <point x="163" y="1125" type="curve" smooth="yes"/>
      <point x="163" y="830" type="line"/>
    </contour>
  </outline>
</glyph>
<glyph name="uniA706" format="2">
  <advance width="523"/>
  <unicode hex="A706"/>
  <outline>
    <contour>
      <point x="87" y="-416" type="line"/>
      <point x="238" y="-416" type="line" smooth="yes"/>
      <point x="362" y="-416"/>
      <point x="435" y="-303"/>
      <point x="435" y="-139" type="curve" smooth="yes"/>
      <point x="435" y="-119" type="line" smooth="yes"/>
      <point x="435" y="44"/>
      <point x="361" y="158"/>
      <point x="240" y="158" type="curve" smooth="yes"/>
      <point x="87" y="158" type="line"/>
      <point x="87" y="119" type="line"/>
      <point x="240" y="119" type="line" smooth="yes"/>
      <point x="344" y="119"/>
      <point x="399" y="20"/>
      <point x="399" y="-119" type="curve" smooth="yes"/>
      <point x="399" y="-139" type="line" smooth="yes"/>
      <point x="399" y="-278"/>
      <point x="339" y="-379"/>
      <point x="238" y="-379" type="curve" smooth="yes"/>
      <point x="87" y="-379" type="line"/>
    </contour>
  </outline>
</glyph>
<glyph name="uniA710" format="2">
  <advance width="476"/>
  <unicode hex="A710"/>
  <outline>
    <contour>
      <point x="238" y="1456" type="line"/>
      <point x="188" y="1456" type="line"/>
      <point x="188" y="-270" type="line"/>
      <point x="238" y="-270" type="line"/>
    </contour>
    <contour>
      <point x="304" y="181" type="curve" smooth="yes"/>
      <point x="304" y="153"/>
      <point x="325" y="129"/>
      <point x="355" y="129" type="curve" smooth="yes"/>
      <point x="382" y="129"/>
      <point x="404" y="153"/>
      <point x="404" y="181" type="curve" smooth="yes"/>
      <point x="404" y="212"/>
      <point x="382" y="236"/>
      <point x="355" y="236" type="curve" smooth="yes"/>
      <point x="325" y="236"/>
      <point x="304" y="212"/>
    </contour>
  </outline>
</glyph>
<glyph name="uniA719" format="2">
  <advance width="865"/>
  <unicode hex="A719"/>
  <outline>
    <contour>
      <point x="778" y="952" type="line"/>
      <point x="87" y="952" type="line"/>
      <point x="87" y="902" type="line"/>
      <point x="778" y="902" type="line"/>
    </contour>
    <contour>
      <point x="387" y="1191" type="curve" smooth="yes"/>
      <point x="387" y="1164"/>
      <point x="408" y="1141"/>
      <point x="432" y="1141" type="curve" smooth="yes"/>
      <point x="460" y="1141"/>
      <point x="481" y="1164"/>
      <point x="481" y="1191" type="curve" smooth="yes"/>
      <point x="481" y="1218"/>
      <point x="460" y="1242"/>
      <point x="432" y="1242" type="curve" smooth="yes"/>
      <point x="408" y="1242"/>
      <point x="387" y="1218"/>
    </contour>
  </outline>
</glyph>
<glyph name="uniA71C" format="2">
  <advance width="686"/>
  <unicode hex="A71C"/>
  <outline>
    <contour>
      <point x="366" y="1464" type="line"/>
      <point x="366" y="758" type="line"/>
      <point x="315" y="758" type="line"/>
      <point x="315" y="1464" type="line"/>
    </contour>
    <contour>
      <point x="600" y="997" type="line"/>
      <point x="343" y="696" type="line"/>
      <point x="320" y="745" type="line"/>
      <point x="600" y="1072" type="line"/>
    </contour>
    <contour>
      <point x="87" y="1070" type="line"/>
      <point x="368" y="742" type="line"/>
      <point x="343" y="696" type="line"/>
      <point x="87" y="997" type="line"/>
    </contour>
  </outline>
</glyph>
<glyph name="uniA723" format="2">
  <advance width="518"/>
  <unicode hex="A723"/>
  <outline>
    <contour>
      <point x="90" y="1031" type="line"/>
      <point x="142" y="1031" type="line" smooth="yes"/>
      <point x="315" y="1031"/>
      <point x="352" y="941"/>
      <point x="352" y="871" type="curve" smooth="yes"/>
      <point x="352" y="748"/>
      <point x="290" y="689"/>
      <point x="103" y="601" type="curve"/>
      <point x="124" y="559" type="line"/>
      <point x="320" y="645"/>
      <point x="405" y="714"/>
      <point x="405" y="871" type="curve" smooth="yes"/>
      <point x="405" y="990"/>
      <point x="321" y="1082"/>
      <point x="142" y="1082" type="curve" smooth="yes"/>
      <point x="89" y="1082" type="line"/>
    </contour>
    <contour>
      <point x="90" y="452" type="line"/>
      <point x="142" y="452" type="line" smooth="yes"/>
      <point x="315" y="452"/>
      <point x="352" y="362"/>
      <point x="352" y="287" type="curve" smooth="yes"/>
      <point x="352" y="169"/>
      <point x="290" y="110"/>
      <point x="103" y="22" type="curve"/>
      <point x="124" y="-20" type="line"/>
      <point x="320" y="66"/>
      <point x="405" y="135"/>
      <point x="405" y="287" type="curve" smooth="yes"/>
      <point x="405" y="411"/>
      <point x="321" y="503"/>
      <point x="142" y="503" type="curve" smooth="yes"/>
      <point x="89" y="503" type="line"/>
    </contour>
  </outline>
</glyph>
<glyph name="uniA72A" format="2">
  <advance width="987"/>
  <unicode hex="A72A"/>
  <outline>
    <contour>
      <point x="873" y="406" type="curve"/>
      <point x="821" y="406" type="line"/>
      <point x="821" y="188"/>
      <point x="673" y="30"/>
      <point x="476" y="30" type="curve" smooth="yes"/>
      <point x="273" y="30"/>
      <point x="159" y="163"/>
      <point x="159" y="381" type="curve" smooth="yes"/>
      <point x="159" y="621"/>
      <point x="305" y="715"/>
      <point x="513" y="715" type="curve" smooth="yes"/>
      <point x="609" y="715" type="line"/>
      <point x="609" y="768" type="line"/>
      <point x="513" y="768" type="line" smooth="yes"/>
      <point x="300" y="768"/>
      <point x="185" y="916"/>
      <point x="185" y="1087" type="curve" smooth="yes"/>
      <point x="185" y="1269"/>
      <point x="275" y="1425"/>
      <point x="483" y="1425" type="curve" smooth="yes"/>
      <point x="659" y="1425"/>
      <point x="796" y="1292"/>
      <point x="796" y="1073" type="curve"/>
      <point x="849" y="1073" type="line"/>
      <point x="849" y="1324"/>
      <point x="683" y="1476"/>
      <point x="483" y="1476" type="curve" smooth="yes"/>
      <point x="270" y="1476"/>
      <point x="132" y="1326"/>
      <point x="132" y="1083" type="curve" smooth="yes"/>
      <point x="132" y="927"/>
      <point x="218" y="797"/>
      <point x="362" y="743" type="curve"/>
      <point x="200" y="701"/>
      <point x="105" y="579"/>
      <point x="105" y="385" type="curve" smooth="yes"/>
      <point x="105" y="127"/>
      <point x="263" y="-22"/>
      <point x="476" y="-22" type="curve" smooth="yes"/>
      <point x="663" y="-22"/>
      <point x="873" y="111"/>
    </contour>
  </outline>
</glyph>
<glyph name="uniA72D" format="2">
  <advance width="900"/>
  <unicode hex="A72D"/>
  <outline>
    <contour>
      <point x="724" y="51" type="line"/>
      <point x="165" y="51" type="line"/>
      <point x="616" y="882" type="line"/>
      <point x="721" y="1081" type="line"/>
      <point x="675" y="1081" type="line"/>
      <point x="86" y="27" type="line"/>
      <point x="86" y="0" type="line"/>
      <point x="724" y="0" type="line"/>
    </contour>
    <contour>
      <point x="735" y="1081" type="line"/>
      <point x="683" y="1081" type="line"/>
      <point x="683" y="-20" type="line"/>
      <point x="735" y="-20" type="line"/>
    </contour>
    <contour>
      <point x="683" y="0" type="line"/>
      <point x="683" y="-89" type="line" smooth="yes"/>
      <point x="683" y="-277"/>
      <point x="613" y="-386"/>
      <point x="491" y="-386" type="curve" smooth="yes"/>
      <point x="461" y="-386"/>
      <point x="425" y="-376"/>
      <point x="407" y="-367" type="curve"/>
      <point x="397" y="-415" type="line"/>
      <point x="430" y="-430"/>
      <point x="459" y="-437"/>
      <point x="493" y="-437" type="curve" smooth="yes"/>
      <point x="646" y="-437"/>
      <point x="735" y="-314"/>
      <point x="735" y="-89" type="curve" smooth="yes"/>
      <point x="735" y="0" type="line"/>
    </contour>
  </outline>
</glyph>
<glyph name="uniA733" format="2">
  <advance width="1597"/>
  <unicode hex="A733"/>
  <outline>
    <contour>
      <point x="738" y="235" type="line"/>
      <point x="789" y="217" type="line"/>
      <point x="789" y="761" type="line" smooth="yes"/>
      <point x="789" y="989"/>
      <point x="653" y="1102"/>
      <point x="464" y="1102" type="curve" smooth="yes"/>
      <point x="264" y="1102"/>
      <point x="123" y="956"/>
      <point x="123" y="787" type="curve"/>
      <point x="174" y="784" type="line"/>
      <point x="174" y="937"/>
      <point x="299" y="1052"/>
      <point x="462" y="1052" type="curve" smooth="yes"/>
      <point x="639" y="1052"/>
      <point x="738" y="944"/>
      <point x="738" y="763" type="curve"/>
    </contour>
    <contour>
      <point x="758" y="603" type="line"/>
      <point x="521" y="603" type="line" smooth="yes"/>
      <point x="257" y="603"/>
      <point x="99" y="466"/>
      <point x="99" y="274" type="curve" smooth="yes"/>
      <point x="99" y="102"/>
      <point x="211" y="-20"/>
      <point x="382" y="-20" type="curve" smooth="yes"/>
      <point x="610" y="-20"/>
      <point x="734" y="138"/>
      <point x="776" y="287" type="curve"/>
      <point x="753" y="338" type="line"/>
      <point x="701" y="149"/>
      <point x="574" y="29"/>
      <point x="382" y="29" type="curve" smooth="yes"/>
      <point x="245" y="29"/>
      <point x="150" y="137"/>
      <point x="150" y="269" type="curve" smooth="yes"/>
      <point x="150" y="433"/>
      <point x="291" y="550"/>
      <point x="526" y="550" type="curve" smooth="yes"/>
      <point x="760" y="550" type="line"/>
    </contour>
    <contour>
      <point x="1377" y="204" type="line"/>
      <point x="1377" y="133"/>
      <point x="1382" y="52"/>
      <point x="1395" y="0" type="curve"/>
      <point x="1454" y="0" type="line"/>
      <point x="1454" y="9" type="line"/>
      <point x="1439" y="53"/>
      <point x="1430" y="138"/>
      <point x="1430" y="217" type="curve" smooth="yes"/>
      <point x="1430" y="761" type="line" smooth="yes"/>
      <point x="1430" y="989"/>
      <point x="1290" y="1102"/>
      <point x="1089" y="1102" type="curve" smooth="yes"/>
      <point x="884" y="1102"/>
      <point x="738" y="957"/>
      <point x="738" y="760" type="curve"/>
      <point x="789" y="758" type="line"/>
      <point x="789" y="938"/>
      <point x="920" y="1052"/>
      <point x="1088" y="1052" type="curve" smooth="yes"/>
      <point x="1275" y="1052"/>
      <point x="1377" y="944"/>
      <point x="1377" y="763" type="curve" smooth="yes"/>
    </contour>
    <contour>
      <point x="1397" y="603" type="line"/>
      <point x="1161" y="603" type="line" smooth="yes"/>
      <point x="895" y="603"/>
      <point x="738" y="466"/>
      <point x="738" y="274" type="curve" smooth="yes"/>
      <point x="738" y="102"/>
      <point x="850" y="-20"/>
      <point x="1022" y="-20" type="curve" smooth="yes"/>
      <point x="1248" y="-20"/>
      <point x="1373" y="138"/>
      <point x="1417" y="287" type="curve"/>
      <point x="1392" y="338" type="line"/>
      <point x="1341" y="149"/>
      <point x="1214" y="29"/>
      <point x="1022" y="29" type="curve" smooth="yes"/>
      <point x="884" y="29"/>
      <point x="789" y="137"/>
      <point x="789" y="269" type="curve" smooth="yes"/>
      <point x="789" y="433"/>
      <point x="932" y="550"/>
      <point x="1165" y="550" type="curve" smooth="yes"/>
      <point x="1400" y="550" type="line"/>
    </contour>
  </outline>
</glyph>
<glyph name="uniA759" format="2">
  <advance width="1229"/>
  <unicode hex="A759"/>
  <outline>
    <contour>
      <point x="1018" y="818" type="line"/>
      <point x="1121" y="650"/>
      <point x="1195" y="509"/>
      <point x="1010" y="288" type="curve" smooth="yes"/>
      <point x="543" y="-267" type="line"/>
      <point x="581" y="-304" type="line"/>
      <point x="1034" y="236" type="line" smooth="yes"/>
      <point x="1207" y="437"/>
      <point x="1231" y="586"/>
      <point x="1060" y="852" type="curve"/>
    </contour>
    <contour>
      <point x="776" y="-416" type="line"/>
      <point x="827" y="-416" type="line"/>
      <point x="827" y="1082" type="line"/>
      <point x="778" y="1082" type="line"/>
      <point x="776" y="874" type="line"/>
    </contour>
    <contour>
      <point x="121" y="531" type="line"/>
      <point x="121" y="201"/>
      <point x="249" y="-20"/>
      <point x="467" y="-20" type="curve" smooth="yes"/>
      <point x="676" y="-20"/>
      <point x="798" y="133"/>
      <point x="826" y="298" type="curve"/>
      <point x="826" y="750" type="line"/>
      <point x="788" y="949"/>
      <point x="671" y="1102"/>
      <point x="467" y="1102" type="curve" smooth="yes"/>
      <point x="249" y="1102"/>
      <point x="121" y="892"/>
      <point x="121" y="552" type="curve" smooth="yes"/>
    </contour>
    <contour>
      <point x="176" y="552" type="line"/>
      <point x="176" y="841"/>
      <point x="269" y="1051"/>
      <point x="470" y="1051" type="curve" smooth="yes"/>
      <point x="695" y="1051"/>
      <point x="773" y="834"/>
      <point x="794" y="712" type="curve"/>
      <point x="794" y="327" type="line"/>
      <point x="763" y="162"/>
      <point x="658" y="31"/>
      <point x="468" y="31" type="curve" smooth="yes"/>
      <point x="269" y="31"/>
      <point x="176" y="240"/>
      <point x="176" y="531" type="curve" smooth="yes"/>
    </contour>
  </outline>
</glyph>
<glyph name="uniA760" format="2">
  <advance width="1605"/>
  <unicode hex="A760"/>
  <outline>
    <contour>
      <point x="128" y="1456" type="line"/>
      <point x="70" y="1456" type="line"/>
      <point x="402" y="0" type="line"/>
      <point x="452" y="0" type="line"/>
      <point x="385" y="325" type="line"/>
    </contour>
    <contour>
      <point x="485" y="327" type="line"/>
      <point x="413" y="0" type="line"/>
      <point x="459" y="0" type="line"/>
      <point x="766" y="1219" type="line"/>
      <point x="826" y="1456" type="line"/>
      <point x="779" y="1456" type="line"/>
    </contour>
    <contour>
      <point x="835" y="1456" type="line"/>
      <point x="787" y="1456" type="line"/>
      <point x="849" y="1219" type="line"/>
      <point x="1150" y="0" type="line"/>
      <point x="1196" y="0" type="line"/>
      <point x="1125" y="327" type="line"/>
    </contour>
    <contour>
      <point x="1115" y="-174" type="line" smooth="yes"/>
      <point x="1086" y="-303"/>
      <point x="1028" y="-388"/>
      <point x="913" y="-388" type="curve" smooth="yes"/>
      <point x="902" y="-388"/>
      <point x="872" y="-383"/>
      <point x="858" y="-379" type="curve"/>
      <point x="850" y="-428" type="line"/>
      <point x="866" y="-433"/>
      <point x="898" y="-437"/>
      <point x="916" y="-437" type="curve" smooth="yes"/>
      <point x="1085" y="-437"/>
      <point x="1141" y="-280"/>
      <point x="1164" y="-179" type="curve" smooth="yes"/>
      <point x="1540" y="1456" type="line"/>
      <point x="1483" y="1456" type="line"/>
    </contour>
  </outline>
</glyph>
<glyph name="uniA769" format="2">
  <advance width="774"/>
  <unicode hex="A769"/>
  <outline>
    <contour>
      <point x="214" y="1082" type="line"/>
      <point x="162" y="1082" type="line"/>
      <point x="162" y="-416" type="line"/>
      <point x="214" y="-416" type="line"/>
    </contour>
    <contour>
      <point x="204" y="83" type="line"/>
      <point x="165" y="-24" type="line"/>
      <point x="212" y="-24" type="line"/>
      <point x="730" y="1082" type="line"/>
      <point x="678" y="1082" type="line"/>
    </contour>
  </outline>
</glyph>
<glyph name="uniA76F" format="2">
  <advance width="967"/>
  <unicode hex="A76F"/>
  <outline>
    <contour>
      <point x="314" y="-437" type="line"/>
      <point x="680" y="-439"/>
      <point x="849" y="-119"/>
      <point x="849" y="363" type="curve" smooth="yes"/>
      <point x="849" y="527" type="line" smooth="yes"/>
      <point x="849" y="913"/>
      <point x="707" y="1101"/>
      <point x="471" y="1101" type="curve" smooth="yes"/>
      <point x="252" y="1101"/>
      <point x="98" y="865"/>
      <point x="98" y="583" type="curve" smooth="yes"/>
      <point x="98" y="320"/>
      <point x="246" y="92"/>
      <point x="464" y="92" type="curve" smooth="yes"/>
      <point x="585" y="92"/>
      <point x="836" y="152"/>
      <point x="836" y="421" type="curve"/>
      <point x="808" y="431" type="line"/>
      <point x="808" y="278"/>
      <point x="664" y="143"/>
      <point x="464" y="143" type="curve" smooth="yes"/>
      <point x="271" y="143"/>
      <point x="158" y="356"/>
      <point x="158" y="583" type="curve" smooth="yes"/>
      <point x="158" y="820"/>
      <point x="280" y="1050"/>
      <point x="475" y="1050" type="curve" smooth="yes"/>
      <point x="676" y="1050"/>
      <point x="796" y="877"/>
      <point x="796" y="525" type="curve" smooth="yes"/>
      <point x="796" y="341" type="line" smooth="yes"/>
      <point x="796" y="-79"/>
      <point x="637" y="-388"/>
      <point x="301" y="-387" type="curve"/>
    </contour>
  </outline>
</glyph>
<glyph name="uniA776" format="2">
  <advance width="1083"/>
  <unicode hex="A776"/>
  <outline>
    <contour>
      <point x="157" y="1082" type="line"/>
      <point x="157" y="0" type="line"/>
      <point x="212" y="0" type="line"/>
      <point x="212" y="1031" type="line"/>
      <point x="520" y="1031" type="line" smooth="yes"/>
      <point x="724" y="1031"/>
      <point x="798" y="941"/>
      <point x="798" y="787" type="curve" smooth="yes"/>
      <point x="798" y="617"/>
      <point x="723" y="526"/>
      <point x="521" y="526" type="curve"/>
      <point x="179" y="526" type="line"/>
      <point x="181" y="474" type="line"/>
      <point x="552" y="474" type="line"/>
      <point x="588" y="478" type="line"/>
      <point x="780" y="498"/>
      <point x="851" y="633"/>
      <point x="851" y="785" type="curve" smooth="yes"/>
      <point x="851" y="997"/>
      <point x="735" y="1082"/>
      <point x="520" y="1082" type="curve" smooth="yes"/>
    </contour>
    <contour>
      <point x="545" y="474" type="line"/>
      <point x="743" y="0" type="line"/>
      <point x="1045" y="0" type="line"/>
      <point x="1045" y="51" type="line"/>
      <point x="774" y="51" type="line"/>
      <point x="584" y="507" type="line"/>
    </contour>
    <contour>
      <point x="1046" y="800" type="line"/>
      <point x="988" y="800" type="line"/>
      <point x="589" y="-416" type="line"/>
      <point x="643" y="-416" type="line"/>
    </contour>
  </outline>
</glyph>
<glyph name="uniA777" format="2">
  <advance width="689"/>
  <unicode hex="A777"/>
  <outline>
    <contour>
      <point x="661" y="1082" type="line"/>
      <point x="50" y="1082" type="line"/>
      <point x="50" y="1029" type="line"/>
      <point x="661" y="1029" type="line"/>
    </contour>
    <contour>
      <point x="610" y="1289" type="line"/>
      <point x="554" y="1289" type="line"/>
      <point x="329" y="591" type="line"/>
      <point x="384" y="591" type="line"/>
    </contour>
    <contour>
      <point x="219" y="1374" type="line"/>
      <point x="219" y="259" type="line" smooth="yes"/>
      <point x="219" y="42"/>
      <point x="291" y="-20"/>
      <point x="408" y="-20" type="curve" smooth="yes"/>
      <point x="435" y="-20"/>
      <point x="482" y="-18"/>
      <point x="506" y="-9" type="curve"/>
      <point x="498" y="40" type="line"/>
      <point x="467" y="34"/>
      <point x="444" y="31"/>
      <point x="407" y="31" type="curve" smooth="yes"/>
      <point x="336" y="31"/>
      <point x="273" y="66"/>
      <point x="273" y="259" type="curve" smooth="yes"/>
      <point x="273" y="1374" type="line"/>
    </contour>
  </outline>
</glyph>
<glyph name="uniA78D" format="2">
  <advance width="1094"/>
  <unicode hex="A78D"/>
  <outline>
    <contour>
      <point x="106" y="1456" type="line"/>
      <point x="106" y="670" type="line"/>
      <point x="872" y="670" type="line"/>
      <point x="872" y="721" type="line"/>
      <point x="158" y="721" type="line"/>
      <point x="158" y="1456" type="line"/>
    </contour>
    <contour>
      <point x="854" y="1456" type="line"/>
      <point x="854" y="0" type="line"/>
      <point x="907" y="0" type="line"/>
      <point x="907" y="1456" type="line"/>
    </contour>
  </outline>
</glyph>
<glyph name="uniA796" format="2">
  <advance width="1258"/>
  <unicode hex="A796"/>
  <outline>
    <contour>
      <point x="380" y="771" type="line"/>
      <point x="348" y="771" type="line" smooth="yes"/>
      <point x="135" y="771"/>
      <point x="53" y="654"/>
      <point x="53" y="456" type="curve" smooth="yes"/>
      <point x="53" y="397"/>
      <point x="64" y="322"/>
      <point x="77" y="273" type="curve"/>
      <point x="127" y="286" type="line"/>
      <point x="114" y="330"/>
      <point x="103" y="401"/>
      <point x="103" y="457" type="curve" smooth="yes"/>
      <point x="103" y="626"/>
      <point x="166" y="721"/>
      <point x="348" y="721" type="curve" smooth="yes"/>
      <point x="380" y="721" type="line"/>
    </contour>
    <contour>
      <point x="771" y="721" type="line"/>
      <point x="843" y="749" type="line"/>
      <point x="1004" y="768"/>
      <point x="1091" y="903"/>
      <point x="1091" y="1083" type="curve"/>
      <point x="1091" y="1341"/>
      <point x="938" y="1456"/>
      <point x="688" y="1456" type="curve"/>
      <point x="358" y="1456" type="line"/>
      <point x="358" y="0" type="line"/>
      <point x="410" y="0" type="line"/>
      <point x="410" y="1406" type="line"/>
      <point x="688" y="1406" type="line"/>
      <point x="918" y="1406"/>
      <point x="1038" y="1297"/>
      <point x="1038" y="1087" type="curve"/>
      <point x="1038" y="872"/>
      <point x="923" y="771"/>
      <point x="704" y="771" type="curve"/>
      <point x="391" y="771" type="line"/>
      <point x="394" y="721" type="line"/>
    </contour>
    <contour>
      <point x="763" y="0" type="line"/>
      <point x="988" y="0"/>
      <point x="1146" y="141"/>
      <point x="1146" y="401" type="curve" smooth="yes"/>
      <point x="1146" y="579"/>
      <point x="1028" y="732"/>
      <point x="869" y="753" type="curve"/>
      <point x="866" y="771" type="line"/>
      <point x="570" y="771" type="line"/>
      <point x="570" y="721" type="line"/>
      <point x="771" y="721" type="line" smooth="yes"/>
      <point x="988" y="721"/>
      <point x="1095" y="565"/>
      <point x="1095" y="399" type="curve" smooth="yes"/>
      <point x="1095" y="181"/>
      <point x="968" y="51"/>
      <point x="763" y="51" type="curve" smooth="yes"/>
      <point x="405" y="51" type="line"/>
      <point x="388" y="0" type="line"/>
    </contour>
  </outline>
</glyph>
<glyph name="uniA79B" format="2">
  <advance width="988"/>
  <unicode hex="A79B"/>
  <outline>
    <contour>
      <point x="700" y="1082" type="line"/>
      <point x="700" y="255" type="line" smooth="yes"/>
      <point x="700" y="57"/>
      <point x="751" y="-21"/>
      <point x="854" y="-21" type="curve" smooth="yes"/>
      <point x="875" y="-21"/>
      <point x="897" y="-21"/>
      <point x="918" y="-8" type="curve"/>
      <point x="909" y="38" type="line"/>
      <point x="892" y="33"/>
      <point x="876" y="29"/>
      <point x="855" y="29" type="curve" smooth="yes"/>
      <point x="796" y="29"/>
      <point x="753" y="80"/>
      <point x="753" y="255" type="curve" smooth="yes"/>
      <point x="753" y="1082" type="line"/>
    </contour>
    <contour>
      <point x="495" y="532" type="line"/>
      <point x="495" y="578" type="line"/>
      <point x="423" y="578" type="line" smooth="yes"/>
      <point x="223" y="578"/>
      <point x="148" y="667"/>
      <point x="148" y="806" type="curve" smooth="yes"/>
      <point x="148" y="945"/>
      <point x="225" y="1052"/>
      <point x="422" y="1052" type="curve" smooth="yes"/>
      <point x="569" y="1052"/>
      <point x="700" y="952"/>
      <point x="700" y="800" type="curve"/>
      <point x="747" y="800" type="line"/>
      <point x="747" y="985"/>
      <point x="595" y="1103"/>
      <point x="422" y="1103" type="curve" smooth="yes"/>
      <point x="219" y="1103"/>
      <point x="95" y="996"/>
      <point x="95" y="802" type="curve" smooth="yes"/>
      <point x="95" y="654"/>
      <point x="207" y="532"/>
      <point x="420" y="532" type="curve" smooth="yes"/>
    </contour>
    <contour>
      <point x="420" y="572" type="line"/>
      <point x="187" y="572"/>
      <point x="79" y="471"/>
      <point x="79" y="290" type="curve" smooth="yes"/>
      <point x="79" y="94"/>
      <point x="219" y="-15"/>
      <point x="422" y="-15" type="curve" smooth="yes"/>
      <point x="585" y="-15"/>
      <point x="746" y="83"/>
      <point x="746" y="301" type="curve"/>
      <point x="700" y="301" type="line"/>
      <point x="700" y="147"/>
      <point x="590" y="36"/>
      <point x="422" y="36" type="curve" smooth="yes"/>
      <point x="231" y="36"/>
      <point x="132" y="130"/>
      <point x="132" y="287" type="curve" smooth="yes"/>
      <point x="132" y="454"/>
      <point x="228" y="527"/>
      <point x="423" y="527" type="curve" smooth="yes"/>
      <point x="495" y="527" type="line"/>
      <point x="495" y="572" type="line"/>
    </contour>
  </outline>
</glyph>
<glyph name="uniA79D" format="2">
  <advance width="930"/>
  <unicode hex="A79D"/>
  <outline>
    <contour>
      <point x="425" y="-22" type="line"/>
      <point x="665" y="-22"/>
      <point x="826" y="204"/>
      <point x="826" y="520" type="curve" smooth="yes"/>
      <point x="826" y="562" type="line" smooth="yes"/>
      <point x="826" y="880"/>
      <point x="665" y="1102"/>
      <point x="423" y="1102" type="curve"/>
      <point x="423" y="1051" type="line"/>
      <point x="645" y="1051"/>
      <point x="774" y="817"/>
      <point x="774" y="562" type="curve" smooth="yes"/>
      <point x="774" y="520" type="line" smooth="yes"/>
      <point x="774" y="259"/>
      <point x="645" y="30"/>
      <point x="425" y="30" type="curve"/>
    </contour>
    <contour>
      <point x="496" y="532" type="line"/>
      <point x="496" y="578" type="line"/>
      <point x="424" y="578" type="line" smooth="yes"/>
      <point x="224" y="578"/>
      <point x="149" y="667"/>
      <point x="149" y="806" type="curve" smooth="yes"/>
      <point x="149" y="945"/>
      <point x="228" y="1051"/>
      <point x="423" y="1051" type="curve"/>
      <point x="423" y="1102" type="line"/>
      <point x="220" y="1102"/>
      <point x="95" y="996"/>
      <point x="95" y="802" type="curve" smooth="yes"/>
      <point x="95" y="654"/>
      <point x="208" y="532"/>
      <point x="421" y="532" type="curve" smooth="yes"/>
    </contour>
    <contour>
      <point x="421" y="572" type="line"/>
      <point x="188" y="572"/>
      <point x="80" y="471"/>
      <point x="80" y="290" type="curve" smooth="yes"/>
      <point x="80" y="94"/>
      <point x="220" y="-22"/>
      <point x="425" y="-22" type="curve"/>
      <point x="425" y="30" type="line"/>
      <point x="233" y="30"/>
      <point x="133" y="130"/>
      <point x="133" y="287" type="curve" smooth="yes"/>
      <point x="133" y="454"/>
      <point x="229" y="527"/>
      <point x="424" y="527" type="curve" smooth="yes"/>
      <point x="496" y="527" type="line"/>
      <point x="496" y="572" type="line"/>
    </contour>
  </outline>
</glyph>
<glyph name="uniA7A1" format="2">
  <advance width="1102"/>
  <unicode hex="A7A1"/>
  <outline>
    <contour>
      <point x="1056" y="731" type="line"/>
      <point x="36" y="411" type="line"/>
      <point x="47" y="361" type="line"/>
      <point x="1066" y="681" type="line"/>
    </contour>
    <contour>
      <point x="833" y="1082" type="line"/>
      <point x="831" y="844" type="line"/>
      <point x="831" y="16" type="line" smooth="yes"/>
      <point x="831" y="-230"/>
      <point x="730" y="-386"/>
      <point x="533" y="-386" type="curve" smooth="yes"/>
      <point x="422" y="-386"/>
      <point x="339" y="-328"/>
      <point x="269" y="-220" type="curve"/>
      <point x="234" y="-254" type="line"/>
      <point x="301" y="-361"/>
      <point x="405" y="-436"/>
      <point x="535" y="-436" type="curve" smooth="yes"/>
      <point x="752" y="-436"/>
      <point x="887" y="-262"/>
      <point x="887" y="14" type="curve" smooth="yes"/>
      <point x="887" y="1082" type="line"/>
    </contour>
    <contour>
      <point x="178" y="531" type="line"/>
      <point x="178" y="201"/>
      <point x="306" y="-20"/>
      <point x="524" y="-20" type="curve" smooth="yes"/>
      <point x="732" y="-20"/>
      <point x="852" y="133"/>
      <point x="879" y="298" type="curve"/>
      <point x="879" y="750" type="line"/>
      <point x="841" y="949"/>
      <point x="726" y="1102"/>
      <point x="524" y="1102" type="curve" smooth="yes"/>
      <point x="306" y="1102"/>
      <point x="178" y="892"/>
      <point x="178" y="552" type="curve" smooth="yes"/>
    </contour>
    <contour>
      <point x="230" y="552" type="line"/>
      <point x="230" y="841"/>
      <point x="326" y="1052"/>
      <point x="527" y="1052" type="curve" smooth="yes"/>
      <point x="752" y="1052"/>
      <point x="822" y="844"/>
      <point x="846" y="712" type="curve"/>
      <point x="846" y="327" type="line"/>
      <point x="817" y="162"/>
      <point x="714" y="31"/>
      <point x="525" y="31" type="curve" smooth="yes"/>
      <point x="326" y="31"/>
      <point x="230" y="240"/>
      <point x="230" y="531" type="curve" smooth="yes"/>
    </contour>
  </outline>
</glyph>
<glyph name="uniA7A2" format="2">
  <advance width="1189"/>
  <unicode hex="A7A2"/>
  <outline>
    <contour>
      <point x="953" y="614" type="line"/>
      <point x="52" y="333" type="line"/>
      <point x="63" y="281" type="line"/>
      <point x="965" y="565" type="line"/>
    </contour>
    <contour>
      <point x="288" y="1456" type="line"/>
      <point x="235" y="1456" type="line"/>
      <point x="235" y="0" type="line"/>
      <point x="288" y="0" type="line"/>
    </contour>
    <contour>
      <point x="1069" y="1456" type="line"/>
      <point x="994" y="1456" type="line"/>
      <point x="486" y="845" type="line"/>
      <point x="271" y="601" type="line"/>
      <point x="267" y="534" type="line"/>
      <point x="518" y="803" type="line"/>
    </contour>
    <contour>
      <point x="1042" y="0" type="line"/>
      <point x="1110" y="0" type="line"/>
      <point x="500" y="832" type="line"/>
      <point x="468" y="786" type="line"/>
    </contour>
  </outline>
</glyph>
<glyph name="uniA7A7" format="2">
  <advance width="701"/>
  <unicode hex="A7A7"/>
  <outline>
    <contour>
      <point x="489" y="545" type="line"/>
      <point x="51" y="408" type="line"/>
      <point x="64" y="359" type="line"/>
      <point x="499" y="496" type="line"/>
    </contour>
    <contour>
      <point x="289" y="893" type="line"/>
      <point x="288" y="1082" type="line"/>
      <point x="237" y="1082" type="line"/>
      <point x="237" y="0" type="line"/>
      <point x="289" y="0" type="line"/>
    </contour>
    <contour>
      <point x="648" y="1093" type="line"/>
      <point x="635" y="1099"/>
      <point x="612" y="1102"/>
      <point x="583" y="1102" type="curve"/>
      <point x="356" y="1102"/>
      <point x="248" y="879"/>
      <point x="248" y="576" type="curve"/>
      <point x="278" y="578" type="line"/>
      <point x="279" y="837"/>
      <point x="381" y="1053"/>
      <point x="584" y="1053" type="curve"/>
      <point x="603" y="1053"/>
      <point x="625" y="1051"/>
      <point x="644" y="1046" type="curve"/>
    </contour>
  </outline>
</glyph>
<glyph name="uniA7AA" format="2">
  <advance width="1398"/>
  <unicode hex="A7AA"/>
  <outline>
    <contour>
      <point x="364" y="1456" type="line"/>
      <point x="322" y="1456" type="line" smooth="yes"/>
      <point x="148" y="1456"/>
      <point x="52" y="1348"/>
      <point x="52" y="1172" type="curve" smooth="yes"/>
      <point x="52" y="1129"/>
      <point x="55" y="1084"/>
      <point x="66" y="1043" type="curve"/>
      <point x="114" y="1052" type="line"/>
      <point x="106" y="1090"/>
      <point x="102" y="1117"/>
      <point x="102" y="1174" type="curve" smooth="yes"/>
      <point x="102" y="1316"/>
      <point x="183" y="1403"/>
      <point x="322" y="1403" type="curve" smooth="yes"/>
      <point x="364" y="1403" type="line"/>
    </contour>
    <contour>
      <point x="1177" y="775" type="line"/>
      <point x="355" y="775" type="line"/>
      <point x="355" y="724" type="line"/>
      <point x="1177" y="724" type="line"/>
    </contour>
    <contour>
      <point x="377" y="1456" type="line"/>
      <point x="324" y="1456" type="line"/>
      <point x="324" y="0" type="line"/>
      <point x="377" y="0" type="line"/>
    </contour>
    <contour>
      <point x="1210" y="1456" type="line"/>
      <point x="1157" y="1456" type="line"/>
      <point x="1157" y="0" type="line"/>
      <point x="1210" y="0" type="line"/>
    </contour>
  </outline>
</glyph>
<glyph name="uniA7F7" format="2">
  <advance width="1340"/>
  <unicode hex="A7F7"/>
  <outline>
    <contour>
      <point x="54" y="752" type="line"/>
      <point x="54" y="704" type="line"/>
      <point x="1288" y="704" type="line"/>
      <point x="1288" y="752" type="line"/>
    </contour>
  </outline>
</glyph>
<glyph name="uniAB4F" format="2">
  <advance width="1111"/>
  <unicode hex="AB4F"/>
  <outline>
    <contour>
      <point x="1060" y="562" type="line"/>
      <point x="52" y="562" type="line"/>
      <point x="52" y="511" type="line"/>
      <point x="1060" y="511" type="line"/>
    </contour>
    <contour>
      <point x="833" y="250" type="line"/>
      <point x="834" y="0" type="line"/>
      <point x="888" y="0" type="line"/>
      <point x="888" y="782" type="line"/>
      <point x="833" y="782" type="line"/>
    </contour>
    <contour>
      <point x="844" y="421" type="line"/>
      <point x="844" y="223"/>
      <point x="766" y="31"/>
      <point x="521" y="31" type="curve" smooth="yes"/>
      <point x="378" y="31"/>
      <point x="271" y="126"/>
      <point x="271" y="392" type="curve" smooth="yes"/>
      <point x="271" y="1082" type="line"/>
      <point x="219" y="1082" type="line"/>
      <point x="219" y="394" type="line" smooth="yes"/>
      <point x="219" y="91"/>
      <point x="342" y="-20"/>
      <point x="521" y="-20" type="curve" smooth="yes"/>
      <point x="774" y="-20"/>
      <point x="885" y="168"/>
      <point x="885" y="423" type="curve"/>
    </contour>
  </outline>
</glyph>
<glyph name="uniFE24" format="2">
  <unicode hex="FE24"/>
  <anchor x="-241" y="1170" name="_top"/>
  <outline>
    <contour>
      <point x="-23" y="1456" type="line"/>
      <point x="-460" y="1456" type="line"/>
      <point x="-460" y="1405" type="line"/>
      <point x="-23" y="1405" type="line"/>
    </contour>
  </outline>
</glyph>
<glyph name="D.smcp" format="2">
  <advance width="1015"/>
  <anchor x="450" y="1320" name="top"/>
  <anchor x="450" y="10" name="bottom"/>
  <anchor x="996" y="1600" name="top_dd"/>
  <anchor x="996" y="-407" name="bottom_dd"/>
  <anchor x="996" y="1320" name="top0315"/>
  <anchor x="450" y="1320" name="parent_top"/>
  <outline>
    <contour>
      <point x="454" y="0" type="line"/>
      <point x="711" y="0"/>
      <point x="899" y="208"/>
      <point x="899" y="514" type="curve"/>
      <point x="899" y="650" type="line"/>
      <point x="899" y="956"/>
      <point x="711" y="1165"/>
      <point x="456" y="1165" type="curve"/>
      <point x="195" y="1165" type="line"/>
      <point x="195" y="1113" type="line"/>
      <point x="456" y="1113" type="line"/>
      <point x="684" y="1113"/>
      <point x="848" y="925"/>
      <point x="848" y="652" type="curve"/>
      <point x="848" y="514" type="line" smooth="yes"/>
      <point x="848" y="243"/>
      <point x="683" y="51"/>
      <point x="454" y="51" type="curve"/>
      <point x="201" y="51" type="line"/>
      <point x="200" y="0" type="line"/>
    </contour>
    <contour>
      <point x="214" y="1165" type="line"/>
      <point x="161" y="1165" type="line"/>
      <point x="161" y="0" type="line"/>
      <point x="214" y="0" type="line"/>
    </contour>
  </outline>
</glyph>
<glyph name="E.smcp" format="2">
  <advance width="888"/>
  <anchor x="471" y="1320" name="top"/>
  <anchor x="471" y="8" name="bottom"/>
  <anchor x="869" y="1600" name="top_dd"/>
  <anchor x="869" y="-407" name="bottom_dd"/>
  <anchor x="869" y="1320" name="top0315"/>
  <anchor x="471" y="1320" name="parent_top"/>
  <outline>
    <contour>
      <point x="811" y="51" type="line"/>
      <point x="187" y="51" type="line"/>
      <point x="187" y="0" type="line"/>
      <point x="811" y="0" type="line"/>
    </contour>
    <contour>
      <point x="214" y="1165" type="line"/>
      <point x="161" y="1165" type="line"/>
      <point x="161" y="0" type="line"/>
      <point x="214" y="0" type="line"/>
    </contour>
    <contour>
      <point x="738" y="632" type="line"/>
      <point x="187" y="632" type="line"/>
      <point x="187" y="580" type="line"/>
      <point x="738" y="580" type="line"/>
    </contour>
    <contour>
      <point x="812" y="1165" type="line"/>
      <point x="187" y="1165" type="line"/>
      <point x="187" y="1113" type="line"/>
      <point x="812" y="1113" type="line"/>
    </contour>
  </outline>
</glyph>
<glyph name="Gsmallcap" format="2">
  <advance width="1047"/>
  <anchor x="535" y="1290" name="top"/>
  <anchor x="535" y="0" name="bottom"/>
  <anchor x="1028" y="1290" name="top0315"/>
  <anchor x="535" y="1290" name="parent_top"/>
  <outline>
    <contour>
      <point x="909" y="493" type="line"/>
      <point x="578" y="493" type="line"/>
      <point x="578" y="441" type="line"/>
      <point x="856" y="441" type="line"/>
      <point x="856" y="177" type="line"/>
      <point x="823" y="115"/>
      <point x="726" y="36"/>
      <point x="547" y="36" type="curve" smooth="yes"/>
      <point x="329" y="36"/>
      <point x="189" y="210"/>
      <point x="189" y="461" type="curve" smooth="yes"/>
      <point x="189" y="625" type="line" smooth="yes"/>
      <point x="189" y="872"/>
      <point x="323" y="1051"/>
      <point x="534" y="1051" type="curve" smooth="yes"/>
      <point x="759" y="1051"/>
      <point x="838" y="950"/>
      <point x="855" y="762" type="curve"/>
      <point x="910" y="762" type="line"/>
      <point x="892" y="987"/>
      <point x="776" y="1100"/>
      <point x="534" y="1100" type="curve" smooth="yes"/>
      <point x="298" y="1100"/>
      <point x="137" y="907"/>
      <point x="137" y="624" type="curve" smooth="yes"/>
      <point x="137" y="461" type="line" smooth="yes"/>
      <point x="137" y="178"/>
      <point x="301" y="-15"/>
      <point x="547" y="-15" type="curve" smooth="yes"/>
      <point x="755" y="-15"/>
      <point x="875" y="96"/>
      <point x="909" y="156" type="curve"/>
    </contour>
  </outline>
</glyph>
<glyph name="Hbar.smcp" format="2">
  <advance width="1088"/>
  <anchor x="541" y="1320" name="top"/>
  <anchor x="541" y="10" name="bottom"/>
  <anchor x="1071" y="1600" name="top_dd"/>
  <anchor x="1071" y="-407" name="bottom_dd"/>
  <anchor x="1071" y="1320" name="top0315"/>
  <anchor x="541" y="1320" name="parent_top"/>
  <outline>
    <contour>
      <point x="891" y="603" type="line"/>
      <point x="195" y="603" type="line"/>
      <point x="195" y="553" type="line"/>
      <point x="891" y="553" type="line"/>
    </contour>
    <contour>
      <point x="214" y="1165" type="line"/>
      <point x="161" y="1165" type="line"/>
      <point x="161" y="0" type="line"/>
      <point x="214" y="0" type="line"/>
    </contour>
    <contour>
      <point x="927" y="1165" type="line"/>
      <point x="874" y="1165" type="line"/>
      <point x="874" y="0" type="line"/>
      <point x="927" y="0" type="line"/>
    </contour>
    <contour>
      <point x="1005" y="923" type="line"/>
      <point x="84" y="923" type="line"/>
      <point x="84" y="873" type="line"/>
      <point x="1005" y="873" type="line"/>
    </contour>
  </outline>
</glyph>
